<?xml version="1.0" encoding="UTF-8" standalone="no"?>
<!-- Created with Inkscape (http://www.inkscape.org/) -->

<svg
   width="620"
   height="300"
   viewBox="0 0 164.04145 79.374998"
   version="1.1"
   id="svg5"
   inkscape:version="1.2.2 (732a01da63, 2022-12-09)"
   sodipodi:docname="accept.svg"
   xmlns:inkscape="http://www.inkscape.org/namespaces/inkscape"
   xmlns:sodipodi="http://sodipodi.sourceforge.net/DTD/sodipodi-0.dtd"
   xmlns="http://www.w3.org/2000/svg"
   xmlns:svg="http://www.w3.org/2000/svg">
  <sodipodi:namedview
     id="namedview7"
     pagecolor="#505050"
     bordercolor="#eeeeee"
     borderopacity="1"
     inkscape:showpageshadow="0"
     inkscape:pageopacity="0"
     inkscape:pagecheckerboard="0"
     inkscape:deskcolor="#505050"
     inkscape:document-units="mm"
     showgrid="false"
     inkscape:zoom="0.96102398"
     inkscape:cx="294.99784"
     inkscape:cy="100.41373"
     inkscape:window-width="1368"
     inkscape:window-height="842"
     inkscape:window-x="-6"
     inkscape:window-y="-6"
     inkscape:window-maximized="1"
     inkscape:current-layer="layer1"
     showguides="false" />
  <defs
     id="defs2" />
  <g
     inkscape:label="Layer 1"
     inkscape:groupmode="layer"
     id="layer1">
    <path
       style="opacity:1;fill:#000000;fill-opacity:1;stroke-width:270.621"
       id="path1065"
       d="m 86.62768,56.866189 c -0.664472,-2.335573 -1.293212,-4.681601 -1.939205,-7.022627 -0.744847,-2.695082 -1.146742,-5.37324 -0.767094,-8.165509 0.244825,-1.800636 0.440024,-2.179795 0.971945,-3.865431 0.396827,-0.857297 1.609397,-3.65756 2.951908,-3.490924 0.170471,0.02116 0.284943,0.196139 0.403895,0.32007 0.233058,0.24281 0.431453,0.516661 0.647178,0.774991 0.19957,0.484268 0.436745,0.954697 0.59871,1.452805 1.239158,3.810928 1.051502,8.169115 0.758777,12.113386 -0.05057,1.912514 -0.843758,3.713432 -1.013417,5.604835 -0.123338,1.37501 -0.0141,1.578753 0.165984,3.000661 0.162443,0.605271 0.277452,1.225312 0.487328,1.815814 1.08998,3.066764 3.221807,5.774648 5.934696,7.575195 0.831244,0.551696 1.754198,0.95086 2.631301,1.42629 0.98498,0.314835 1.940214,0.745487 2.954964,0.944509 3.55284,0.696825 7.2774,0.07267 10.50059,-1.551421 0.91642,-0.461759 1.67629,-1.184156 2.51443,-1.776233 0.0764,-0.07174 -0.93814,-1.152443 -1.01456,-1.080701 v 0 c -1.37924,0.650846 -3.56676,1.762101 -5.07652,2.179786 -1.99853,0.552905 -3.99343,0.817943 -6.06255,0.521086 -0.9344,-0.134059 -1.81943,-0.503944 -2.729154,-0.755915 -1.96471,-0.947279 -2.919925,-1.245089 -4.578455,-2.666039 -0.581572,-0.498263 -1.084532,-1.085025 -1.570334,-1.677046 -1.2525,-1.52636 -2.169924,-3.251999 -2.696037,-5.154469 -0.193998,-0.956067 -0.416605,-1.671852 -0.345983,-2.645569 0.06105,-0.841854 0.379346,-1.379307 0.636146,-2.178407 0.447286,-1.391849 0.556215,-1.997805 0.904234,-3.472352 0.100664,-0.804743 0.246494,-1.605116 0.301993,-2.414228 0.229079,-3.33966 -0.09669,-7.254868 -1.505844,-10.338282 -0.257588,-0.563633 -0.63038,-1.067124 -0.945571,-1.600686 -0.343291,-0.314545 -0.616831,-0.728734 -1.029872,-0.943636 -1.817716,-0.945738 -3.418059,0.620501 -4.309485,2.039066 -0.335796,0.534368 -0.579713,1.121235 -0.869569,1.681853 -0.611937,1.802446 -0.851795,2.213532 -1.08502,4.156467 -0.348355,2.902048 0.137748,5.778341 0.976646,8.553746 0.754486,2.335676 1.530583,4.699434 2.810479,6.81064 0.01214,0.0274 0.39961,-0.144328 0.387466,-0.171725 z" />
    <path
       style="fill:#000000;fill-opacity:1;stroke-width:270.621"
       id="path1065-4"
       d="m 77.131946,57.043827 c 0.664472,-2.335573 1.293212,-4.681601 1.939205,-7.022627 0.744847,-2.695082 1.146742,-5.37324 0.767094,-8.165509 C 79.59342,40.055055 79.398221,39.675896 78.8663,37.99026 78.469473,37.132963 77.256903,34.3327 75.914392,34.499336 c -0.170471,0.02116 -0.284943,0.196139 -0.403895,0.32007 -0.233058,0.24281 -0.431453,0.516661 -0.647178,0.774991 -0.19957,0.484268 -0.436745,0.954697 -0.59871,1.452805 -1.239158,3.810928 -1.051502,8.169115 -0.758777,12.113386 0.05057,1.912514 0.843758,3.713432 1.013417,5.604835 0.123338,1.37501 0.0141,1.578753 -0.165984,3.000661 -0.162443,0.605271 -0.277452,1.225312 -0.487328,1.815814 -1.08998,3.066764 -3.221807,5.774648 -5.934696,7.575195 -0.831244,0.551696 -1.754198,0.95086 -2.631301,1.42629 -0.98498,0.314835 -1.94021,0.745487 -2.95496,0.944509 -3.55285,0.696825 -7.27741,0.07267 -10.5006,-1.551421 -0.91642,-0.461759 -1.67629,-1.184156 -2.51443,-1.776233 -0.0764,-0.07174 0.93814,-1.152443 1.01456,-1.080701 v 0 c 1.37924,0.650846 3.56676,1.762101 5.07652,2.179786 1.99853,0.552905 3.99343,0.817943 6.06256,0.521086 0.9344,-0.134059 1.81943,-0.503944 2.72915,-0.755915 1.96471,-0.947279 2.919925,-1.245089 4.578455,-2.666039 0.581572,-0.498263 1.084532,-1.085025 1.570334,-1.677046 1.2525,-1.52636 2.169924,-3.251999 2.696037,-5.154469 0.193998,-0.956067 0.416605,-1.671852 0.345983,-2.645569 -0.06105,-0.841854 -0.379346,-1.379307 -0.636146,-2.178407 -0.447286,-1.391849 -0.556215,-1.997805 -0.904234,-3.472352 -0.100664,-0.804743 -0.246494,-1.605116 -0.301993,-2.414228 -0.229079,-3.33966 0.09669,-7.254868 1.505844,-10.338282 0.257588,-0.563633 0.63038,-1.067124 0.945571,-1.600686 0.343291,-0.314545 0.616831,-0.728734 1.029872,-0.943636 1.817716,-0.945738 3.418059,0.620501 4.309485,2.039066 0.335796,0.534368 0.579713,1.121235 0.869569,1.681853 0.611937,1.802446 0.851795,2.213532 1.08502,4.156467 0.348355,2.902048 -0.137748,5.778341 -0.976646,8.553746 -0.754486,2.335676 -1.530583,4.699434 -2.810479,6.81064 -0.01214,0.0274 -0.39961,-0.144328 -0.387466,-0.171725 z" />
    <path
       style="opacity:1;fill:#000000;fill-opacity:1;stroke-width:370.215"
       id="path1142"
       d="m 87.923627,15.734339 c 0.574021,-1.192602 1.531409,-2.175659 2.792985,-2.647618 0.330827,-0.123765 0.687085,-0.16423 1.030627,-0.246344 0.958127,-0.09035 1.936116,-0.03241 2.845527,0.317379 0.254447,0.09787 0.480412,0.257847 0.72062,0.386771 0.05033,0.04178 0.641264,-0.669998 0.590935,-0.711783 v 0 c -0.282224,-0.17415 -0.546357,-0.381768 -0.846664,-0.52245 -1.192822,-0.558785 -2.507786,-0.575639 -3.781799,-0.346063 -0.386145,0.134377 -0.788587,0.22883 -1.158432,0.403129 -1.329527,0.626576 -2.236165,1.871115 -2.565353,3.280375 -0.0062,0.02627 0.36543,0.112877 0.371554,0.0866 z" />
    <path
       style="fill:#000000;fill-opacity:1;stroke-width:370.215"
       id="path1142-0"
       d="m 75.365283,15.585517 c -0.574021,-1.192602 -1.531409,-2.175659 -2.792985,-2.647618 -0.330827,-0.123765 -0.687085,-0.16423 -1.030627,-0.246345 -0.958127,-0.09035 -1.936116,-0.03241 -2.845527,0.31738 -0.254447,0.09787 -0.480412,0.257847 -0.72062,0.386771 -0.05033,0.04178 -0.641264,-0.669998 -0.590935,-0.711783 v 0 c 0.282224,-0.17415 0.546357,-0.381768 0.846664,-0.52245 1.192822,-0.558785 2.507786,-0.575639 3.781799,-0.346063 0.386145,0.134376 0.788587,0.22883 1.158432,0.403129 1.329527,0.626576 2.236165,1.871114 2.565353,3.280375 0.0062,0.02627 -0.36543,0.112877 -0.371554,0.0866 z" />
    <path
       style="opacity:1;fill:#000000;fill-opacity:1;stroke-width:270.621"
       id="path1212"
       d="m 77.404883,24.200251 c 0.548061,0.471959 1.251754,0.737005 1.968929,0.807615 0.149124,0.01468 0.299638,-0.0056 0.449455,-0.0084 0.935681,-0.139751 1.582267,-0.562617 2.079654,-1.358389 0.125484,-0.271475 0.275551,-0.642979 0.09909,-0.934187 -0.03943,-0.06507 -0.08047,-0.144754 -0.152204,-0.170106 -0.122487,-0.04329 -0.259435,-0.01414 -0.389155,-0.02121 -0.154313,0.105588 -0.275238,0.256681 -0.27183,0.452955 5.29e-4,0.03578 -0.01865,0.09681 0.01588,0.106168 0.192273,0.05212 0.396451,0.03955 0.594677,0.05933 0.160504,-0.119127 -0.370993,-0.0095 -0.333584,0.06398 0.06392,0.125553 0.196676,0.299543 0.268642,0.400964 0.671336,0.862227 1.624553,1.473702 2.718724,1.63335 0.304995,0.0445 0.61523,0.0388 0.922845,0.0582 0.189728,-0.120006 0.379452,-0.240012 0.56918,-0.360018 0.03682,-0.0173 -0.207796,-0.538023 -0.244618,-0.520726 v 0 c -0.163999,-0.02815 -0.327999,-0.0563 -0.491998,-0.08444 -0.71219,-0.0487 -1.448057,-0.229866 -2.06929,-0.594265 -0.100944,-0.05921 -0.633037,-0.47449 -0.747686,-0.563072 -0.268547,-0.249906 -0.748134,-0.858771 -1.125694,-0.354007 0.232341,0.06984 0.693642,0.145983 0.475414,0.252325 -0.09233,-0.01832 -0.193633,-0.01124 -0.276987,-0.05497 -0.105537,-0.05537 -0.0068,-0.213161 -0.04403,-0.05997 -0.01185,0.04877 -0.02519,0.09746 -0.0439,0.144038 -0.02535,0.06305 -0.05859,0.122629 -0.08789,0.183944 -0.411729,0.526536 -0.953357,0.902035 -1.628712,0.992111 -0.193836,-0.007 -0.389437,0.0038 -0.58139,-0.02401 -0.471823,-0.06848 -0.900557,-0.26029 -1.349092,-0.410182 -0.02566,-0.02294 -0.350096,0.339998 -0.324434,0.362939 z" />
  </g>
</svg>
