<?xml version="1.0" encoding="UTF-8" standalone="no"?>
<!-- Created with Inkscape (http://www.inkscape.org/) -->

<svg
   width="743"
   height="172"
   viewBox="0 0 196.58531 45.508339"
   version="1.1"
   id="svg5"
   inkscape:version="1.2.2 (732a01da63, 2022-12-09)"
   sodipodi:docname="birds.svg"
   xmlns:inkscape="http://www.inkscape.org/namespaces/inkscape"
   xmlns:sodipodi="http://sodipodi.sourceforge.net/DTD/sodipodi-0.dtd"
   xmlns="http://www.w3.org/2000/svg"
   xmlns:svg="http://www.w3.org/2000/svg">
  <sodipodi:namedview
     id="namedview7"
     pagecolor="#505050"
     bordercolor="#eeeeee"
     borderopacity="1"
     inkscape:showpageshadow="0"
     inkscape:pageopacity="0"
     inkscape:pagecheckerboard="0"
     inkscape:deskcolor="#505050"
     inkscape:document-units="mm"
     showgrid="false"
     inkscape:zoom="1.1789508"
     inkscape:cx="409.2622"
     inkscape:cy="151.40581"
     inkscape:window-width="1368"
     inkscape:window-height="842"
     inkscape:window-x="-6"
     inkscape:window-y="-6"
     inkscape:window-maximized="1"
     inkscape:current-layer="layer1"
     showguides="false" />
  <defs
     id="defs2" />
  <g
     inkscape:label="Layer 1"
     inkscape:groupmode="layer"
     id="layer1">
    <path
       style="fill:#000000;stroke-width:311.304"
       id="path319"
       d="m 8.7391746,31.147546 c 2.7172274,-1.01068 5.3711494,-2.179048 8.1343444,-3.067521 0.89773,-0.288657 1.793716,-0.592717 2.714066,-0.798132 0.954972,-0.213139 1.933295,-0.303244 2.899947,-0.454866 1.120563,0.01211 2.243758,-0.04137 3.361687,0.03634 1.06054,0.07372 2.113344,0.241901 3.1619,0.41713 2.373828,0.396688 4.912299,0.929221 7.194621,1.720282 2.583421,0.895422 3.734858,1.594798 6.120358,2.828917 2.517646,1.349826 4.740361,3.147664 7.041651,4.82005 0.03927,0.04852 0.725445,-0.506906 0.68617,-0.555427 v 0 c -0.317395,-0.393243 -0.604954,-0.812561 -0.952185,-1.179729 -1.658602,-1.753832 -3.659761,-3.149835 -5.58003,-4.590206 -0.978255,-0.561887 -1.925464,-1.181665 -2.934762,-1.685667 -4.749293,-2.371591 -9.964446,-3.616572 -15.27119,-3.681248 -1.175736,-0.01433 -2.347346,0.142193 -3.521018,0.213291 -1.012911,0.193146 -2.03773,0.331876 -3.03873,0.579441 -3.30527,0.817446 -6.533237,2.26032 -9.4162174,4.064566 -0.3738357,0.233954 -0.7232821,0.50479 -1.084922,0.757189 -0.040699,0.03424 0.443609,0.609836 0.48431,0.57559 z" />
    <path
       style="fill:#000000;stroke-width:311.304"
       id="path321"
       d="m 50.190719,36.761208 c 2.707122,-1.901177 5.535198,-3.623301 8.535564,-5.023907 0.98276,-0.458765 1.987523,-0.868839 2.981287,-1.303259 2.922677,-1.122803 3.168474,-1.283042 6.14922,-2.169804 1.734334,-0.515961 3.329714,-0.95774 5.117959,-1.182001 2.133811,-0.267594 2.543331,-0.181997 4.603022,-0.122306 3.36258,0.356212 6.277042,2.132055 9.297044,3.499829 1.670316,0.705487 0.861645,0.421418 2.415181,0.882445 0.04286,0.02746 0.431012,-0.578753 0.388148,-0.606197 v 0 c -1.329952,-0.82157 -0.601676,-0.416092 -2.200705,-1.187466 -0.968307,-0.459207 -1.942562,-0.905957 -2.90691,-1.373424 -2.162328,-1.048188 -4.229844,-2.101719 -6.644632,-2.479991 -0.749554,-0.07041 -1.495925,-0.197881 -2.248658,-0.211237 -1.988045,-0.03527 -3.765936,0.244699 -5.720979,0.637476 -3.189335,0.64075 -6.285479,1.673652 -9.262842,2.977106 -0.989284,0.487311 -1.997724,0.937524 -2.967847,1.461937 -2.592979,1.401658 -5.269871,3.150063 -7.321701,5.293997 -0.207326,0.216634 -0.383266,0.461261 -0.574899,0.691892 -0.01519,0.0256 0.346552,0.240488 0.361748,0.21491 z" />
    <path
       style="fill:#000000;stroke-width:311.304"
       id="path325"
       d="m 89.284109,14.515591 c 2.501731,0.250636 4.819931,1.234657 7.045229,2.347599 0.621287,0.344333 1.009838,0.547457 1.586006,0.903714 0.09607,0.0594 0.172467,0.157907 0.280914,0.189496 0.03904,0.01139 -0.03558,-0.07676 -0.0333,-0.117366 0.0182,-0.32295 0.167828,-0.121078 -0.140918,-0.348693 -0.0182,-0.0611 -0.06399,-0.120255 -0.05458,-0.183312 0.09906,-0.663552 1.437799,-1.06257 1.823974,-1.199636 1.461076,-0.518581 2.195916,-0.623778 3.750636,-0.964736 3.08785,-0.416147 1.52887,-0.25913 4.67734,-0.467035 0.0951,-0.02982 -0.32657,-1.37409 -0.42162,-1.344277 v 0 c -3.27243,0.253131 -1.66093,0.03996 -4.8356,0.631082 -1.7147,0.511482 -3.591098,0.942976 -4.940639,2.219295 -0.356821,0.337461 -0.646901,0.795905 -0.56894,1.306864 0.02325,0.152427 0.13788,0.275843 0.206817,0.413763 0.118144,0.06471 0.220198,0.182869 0.354426,0.19411 0.325286,0.02724 0.692665,-0.03376 0.587625,-0.431138 -0.07881,-0.298136 -0.640032,-0.75245 -0.789165,-0.868385 -0.295526,-0.229743 -0.615197,-0.426617 -0.922796,-0.639925 -0.403211,-0.228474 -0.795925,-0.476555 -1.20963,-0.685426 -2.013565,-1.016598 -4.27051,-1.692171 -6.54163,-1.422109 -0.03296,0.01035 0.112894,0.476429 0.145851,0.466115 z" />
    <path
       style="fill:#000000;stroke-width:311.304"
       id="path335"
       d="m 124.48721,43.061888 c 2.25371,-1.236352 4.6713,-2.171007 7.16331,-2.800009 0.66639,-0.168204 1.342,-0.297458 2.013,-0.446186 3.23034,-0.522924 6.51,-0.378768 9.63231,0.627974 0.48684,0.156972 0.95606,0.364082 1.43409,0.546122 0.7503,0.352036 1.16825,0.507189 1.82409,0.939126 0.11658,0.07677 0.37754,0.404233 0.30902,0.282618 -0.22525,-0.3998 0.0344,-0.02526 -0.17167,-0.309457 -0.0618,-0.04398 -0.92242,-0.363245 -0.86044,-0.436045 0.0219,-0.02572 0.0606,-0.02977 0.0909,-0.04465 0.0697,-0.08616 0.13948,-0.172307 0.20921,-0.258461 0.80693,-1.023622 1.7647,-1.866122 2.86481,-2.564852 0.4708,-0.299027 0.93892,-0.60862 1.44379,-0.845639 0.59668,-0.280122 1.23288,-0.46691 1.84931,-0.700365 3.45178,-0.951416 7.04088,-0.937104 10.58241,-0.632868 1.34105,0.115205 3.37991,0.457549 4.70345,0.664271 2.31071,0.548677 1.23616,0.323588 3.21853,0.699289 0.0483,0.03406 0.53004,-0.6491 0.48172,-0.68316 v 0 c -1.66635,-1.236885 -0.68955,-0.681989 -3.01167,-1.512683 -0.79834,-0.195809 -1.58522,-0.446311 -2.39502,-0.58743 -3.93032,-0.684915 -8.11499,-0.812487 -12.02511,0.08761 -0.8044,0.185169 -1.57905,0.481684 -2.36858,0.722525 -0.63988,0.308526 -1.30317,0.572577 -1.91963,0.925572 -1.70275,0.975022 -3.13065,2.396472 -4.14274,4.068819 -0.0716,0.15198 -0.17048,0.293882 -0.2147,0.455946 -0.22748,0.833742 0.55133,1.166606 1.22001,1.308955 0.20953,-0.0032 0.4295,0.0558 0.62859,-0.0095 0.15805,-0.0519 0.30311,-0.1752 0.38124,-0.322068 0.42653,-0.801753 -1.70627,-1.938575 -2.08011,-2.159289 -1.17465,-0.527094 -1.92492,-0.919028 -3.19769,-1.2474 -2.96859,-0.765891 -6.02584,-0.790425 -9.02657,-0.196701 -0.69176,0.166384 -1.39139,0.302921 -2.07529,0.499147 -2.47461,0.71002 -5.06982,1.799029 -6.96872,3.58007 -0.0246,0.02885 0.38348,0.377672 0.40815,0.34881 z" />
    <path
       style="fill:#000000;stroke-width:311.304"
       id="path337"
       d="m 176.97675,20.956849 c 1.85004,-0.683511 3.79163,-1.081386 5.76539,-1.146546 0.4201,-0.01387 0.84057,0.0125 1.26085,0.01875 0.69367,0.05538 1.40105,0.154325 2.01645,0.506432 0.2081,0.11906 0.26795,0.290166 0.0556,0.129387 -0.18158,-0.05275 -0.3664,-0.09884 -0.55104,-0.139646 -0.0382,-0.0084 0.0849,0.0078 0.11147,0.03649 0.0414,0.04454 0.14061,0.26526 0.17555,0.340239 0.8624,-0.131419 1.69572,-0.440913 2.56131,-0.549694 0.23132,-0.02907 0.46517,-0.03204 0.69776,-0.04806 1.35912,-0.03496 2.64848,0.339829 3.89551,0.836442 0.0407,0.03778 0.57505,-0.538376 0.53432,-0.576156 v 0 c -0.1438,-0.119186 -0.27272,-0.259046 -0.4314,-0.357558 -1.22765,-0.762178 -2.88126,-0.843689 -4.2823,-0.810739 -1.17788,0.161519 -2.38779,0.389618 -3.45075,0.944282 -0.0919,0.119722 -0.24126,0.212223 -0.27573,0.359168 -0.17959,0.765667 1.17038,0.758495 1.52631,0.450305 0.0772,-0.124992 0.19481,-0.232748 0.2316,-0.37498 0.32267,-1.247758 -2.31472,-1.607479 -2.9985,-1.703736 -0.45586,-0.02082 -0.91138,-0.07264 -1.36762,-0.06249 -2.03839,0.04539 -4.08378,0.576906 -5.79301,1.704453 -0.0314,0.0225 0.28685,0.466147 0.31822,0.443646 z" />
    <path
       style="fill:#000000;stroke-width:311.304"
       id="path341"
       d="m 19.026445,13.76574 c 1.133114,-0.287617 2.161696,-0.870677 3.257929,-1.257162 0.419661,-0.147955 3.541827,-1.081436 3.908171,-1.160315 0.76354,-0.1644 1.544272,-0.2352 2.316404,-0.352801 0.80123,-0.04086 1.601586,-0.139034 2.403689,-0.122585 2.386706,0.04895 4.846816,0.518597 7.093446,1.321916 1.592969,0.569591 2.842993,1.247581 4.342813,1.997891 1.032414,0.58426 2.10379,1.139814 2.96852,1.966539 0.06972,0.06666 -0.104921,-0.163443 -0.172233,-0.232534 -0.06624,-0.068 -0.156452,-0.107522 -0.234681,-0.161289 -0.09602,-0.04868 -0.643663,-0.280248 -0.720977,-0.4594 -0.03614,-0.08376 0.273175,-0.369086 0.412622,-0.458921 0.567616,-0.365672 1.533753,-0.775885 2.090592,-1.032732 3.303473,-1.490373 6.89593,-2.145464 10.509443,-2.172274 0.936338,-0.0069 1.872051,0.05015 2.808077,0.07523 0.107027,-0.02291 -0.216989,-1.536551 -0.324019,-1.51364 v 0 c -0.986334,-0.03939 -1.972106,-0.139193 -2.959006,-0.118179 -0.878714,0.01872 -1.754498,0.123626 -2.626056,0.237106 -2.840835,0.369891 -5.610092,1.18268 -8.111546,2.595245 -0.702862,0.459577 -3.57716,2.056109 -1.997502,3.218196 0.166497,0.122482 0.370566,0.183231 0.555847,0.274848 0.260793,0.0494 0.518076,0.172619 0.782378,0.148186 0.207923,-0.01922 0.429285,-0.113089 0.563986,-0.272647 0.566307,-0.670798 -0.840627,-1.868691 -1.134257,-2.122975 -0.469347,-0.406462 -0.99072,-0.748647 -1.486078,-1.122971 C 42.587022,12.648918 41.92359,12.212793 41.213054,11.865805 37.001364,9.809043 32.616305,9.1043514 27.972996,9.7050577 27.179554,9.8789244 26.37663,10.014089 25.592669,10.226657 c -2.411948,0.653985 -4.759084,1.75451 -6.776457,3.228336 -0.02197,0.01486 0.18826,0.325612 0.210233,0.310747 z" />
    <path
       style="fill:#000000;stroke-width:311.304"
       id="path343"
       d="m 6.5595206,21.166171 c 1.3712014,-0.351698 2.7021067,-0.883398 4.1256854,-0.958835 0.261239,-0.0068 1.084312,0.248792 0.854469,0.649516 -0.128592,0.196555 -0.179816,0.235935 0.49059,0.314475 0.143069,0.01677 0.270468,-0.09927 0.404677,-0.151595 0.203949,-0.07951 0.408234,-0.158349 0.609739,-0.243861 0.0277,-0.01175 1.398489,-0.623459 1.420392,-0.633231 0.69812,-0.373884 1.486044,-0.404586 2.231966,-0.603682 0.02678,-0.0051 -0.04458,-0.383763 -0.07135,-0.378718 v 0 c -0.183299,-0.05512 -0.359304,-0.147715 -0.549896,-0.165367 -0.701085,-0.06494 -1.411278,0.28593 -2.04996,0.502706 -0.67136,0.31152 -1.319665,0.635212 -1.950603,1.023169 -0.108453,0.06669 -0.288734,0.08386 -0.320964,0.207029 -0.03682,0.140698 0.06578,0.295416 0.160636,0.405655 0.03235,0.03759 0.05405,-0.08317 0.08108,-0.124761 0.31358,-0.946107 -0.689869,-1.338292 -1.47165,-1.37977 -1.4749011,0.03764 -2.9046164,0.454172 -4.1917241,1.180741 -0.025215,0.01604 0.2017106,0.372575 0.2269212,0.356529 z" />
    <path
       style="fill:#000000;stroke-width:311.304"
       id="path347"
       d="m 33.677077,43.173184 c 1.627851,-0.415142 3.189322,-1.056197 4.894536,-0.925164 0.221439,0.110731 0.249997,0.07421 0.06765,0.195477 -0.242163,0.161042 -0.01857,0.03984 -0.263705,0.162591 0.07999,-0.0068 -0.145353,0.03628 -0.120206,0.0766 0.119514,0.191584 0.20061,0.429625 0.388412,0.555004 0.02575,0.0172 1.446202,-0.365998 1.493235,-0.378589 1.292533,-0.219181 2.828203,-0.69811 4.122765,-0.236176 0.07122,0.0287 0.142449,0.05739 0.213672,0.08608 0.02447,0.03597 0.533147,-0.309885 0.508692,-0.345855 v 0 c -0.07616,-0.120322 -0.152322,-0.240643 -0.228482,-0.360966 -0.218064,-0.10545 -0.426208,-0.234516 -0.654185,-0.31635 -1.41809,-0.509045 -2.998408,-0.09575 -4.367128,0.350046 -0.06848,0.0262 -1.360166,0.538706 -1.365374,0.595486 -0.01951,0.212699 0.109454,0.413943 0.188,0.612567 0.02974,0.07523 0.344254,-0.227894 0.234794,-0.06151 0.407968,-0.242847 0.809986,-0.622885 0.61509,-1.160431 -0.04951,-0.136544 -0.133954,-0.272388 -0.254149,-0.353922 -0.197148,-0.133735 -0.441702,-0.178617 -0.662555,-0.267924 -0.23143,-0.03169 -0.460841,-0.08709 -0.694296,-0.09509 -1.584912,-0.05423 -3.179138,0.5167 -4.533853,1.290754 -0.04083,0.0295 0.376263,0.606857 0.41709,0.577362 z" />
    <path
       style="fill:#000000;stroke-width:311.304"
       id="path357"
       d="m 118.19674,25.007423 c 1.64671,-0.136149 3.30127,-0.335172 4.95323,-0.182132 0.30047,0.05829 0.44579,0.07456 0.35018,0.342075 0.14778,-0.218356 -0.0689,0.06484 0.50592,0.236329 0.0631,0.01884 0.11285,-0.06841 0.1727,-0.0959 0.46355,-0.213012 0.96303,-0.350721 1.44836,-0.50141 1.07595,-0.239375 2.31499,-0.952254 3.42067,-0.488385 0.11622,0.0437 0.23242,0.08741 0.34863,0.131117 0.0204,0.02435 0.36474,-0.262917 0.34443,-0.287272 v 0 c -0.0957,-0.123782 -0.19141,-0.247565 -0.28713,-0.371344 -0.22171,-0.09644 -0.43325,-0.220834 -0.66513,-0.289338 -1.17479,-0.347087 -2.44171,0.250688 -3.53254,0.601823 -0.1192,0.05083 -1.6605,0.741667 -1.64263,0.897836 0.0201,0.176525 0.13779,0.334432 0.25468,0.46824 0.0257,0.02937 0.0525,-0.05775 0.0787,-0.08663 0.39388,-0.706893 -0.22784,-1.062034 -0.84062,-1.271045 -1.70565,-0.35127 -3.46195,-0.19205 -5.12065,0.329319 -0.04,0.01494 0.17114,0.58165 0.21122,0.566715 z" />
  </g>
</svg>
