<?xml version="1.0" encoding="UTF-8" standalone="no"?>
<!-- Created with Inkscape (http://www.inkscape.org/) -->

<svg
   width="720"
   height="470"
   viewBox="0 0 190.49969 124.35389"
   version="1.1"
   id="svg5"
   inkscape:version="1.2.2 (732a01da63, 2022-12-09)"
   sodipodi:docname="cloudpink.svg"
   xmlns:inkscape="http://www.inkscape.org/namespaces/inkscape"
   xmlns:sodipodi="http://sodipodi.sourceforge.net/DTD/sodipodi-0.dtd"
   xmlns="http://www.w3.org/2000/svg"
   xmlns:svg="http://www.w3.org/2000/svg">
  <sodipodi:namedview
     id="namedview7"
     pagecolor="#505050"
     bordercolor="#eeeeee"
     borderopacity="1"
     inkscape:showpageshadow="0"
     inkscape:pageopacity="0"
     inkscape:pagecheckerboard="0"
     inkscape:deskcolor="#505050"
     inkscape:document-units="mm"
     showgrid="false"
     inkscape:zoom="0.68"
     inkscape:cx="365.44118"
     inkscape:cy="262.5"
     inkscape:window-width="1368"
     inkscape:window-height="842"
     inkscape:window-x="-6"
     inkscape:window-y="-6"
     inkscape:window-maximized="1"
     inkscape:current-layer="layer1"
     showguides="true" />
  <defs
     id="defs2" />
  <g
     inkscape:label="Layer 1"
     inkscape:groupmode="layer"
     id="layer1">
    <path
       style="opacity:0.63;fill:#f9a8d4;fill-opacity:1;stroke-width:238.879;stroke-dasharray:none"
       id="path22064"
       d="m 25.616968,97.908049 c -3.314164,0.10667 -6.788116,-0.33865 -9.614117,-2.23423 -0.955859,-0.64116 -1.766115,-1.47642 -2.649173,-2.21463 -1.945078,-2.23866 -3.178349,-3.30287 -4.361611,-6.089461 -0.49759,-1.17183 -0.868944,-2.41293 -1.043328,-3.67402 -0.345694,-2.499955 0.01648,-6.066875 0.784726,-8.444881 0.519481,-1.607992 1.376323,-3.0867 2.064485,-4.63005 0.940151,-1.529898 1.782405,-3.124454 2.820454,-4.589693 0.86875,-1.226269 1.892183,-2.336367 2.885349,-3.464233 2.53516,-2.879 4.118749,-4.682323 7.240896,-6.882846 2.754016,-1.941063 4.414365,-2.532449 7.389589,-3.871145 1.105002,-0.234002 2.189836,-0.603116 3.315007,-0.70201 3.120098,-0.274231 6.340661,0.57629 8.994064,2.205339 2.166373,1.33004 2.413368,1.901089 4.025324,3.771424 0.453759,0.815389 0.979769,1.594575 1.361281,2.446163 0.413812,0.923686 0.714057,1.895333 1.016444,2.861251 0.642978,2.053837 1.006721,3.460797 1.036202,5.625379 0.03526,2.588586 -0.292261,3.277009 -0.886866,5.768725 -0.513803,1.002035 -0.952019,2.046585 -1.541414,3.006109 -2.385867,3.884156 -5.778548,7.210338 -9.780362,9.406028 -0.945762,0.51892 -1.966501,0.88759 -2.949753,1.33139 -0.970161,0.18484 -1.925007,0.489621 -2.910487,0.554531 -1.906088,0.12555 -3.583455,-0.187301 -5.192463,-1.271241 -1.615938,-1.08861 -2.993815,-2.96655 -3.878288,-4.65738 -0.472188,-0.902667 -0.7575,-1.891372 -1.13625,-2.837058 -0.133183,-0.936944 -0.391591,-1.864501 -0.399551,-2.810829 -0.01605,-1.907895 0.616966,-4.498609 2.213238,-5.747428 1.515044,-1.185269 1.748796,-1.02925 3.574037,-1.446936 0.713495,0.100443 1.442871,0.121051 2.140482,0.301328 2.576612,0.665856 5.49958,2.337996 6.577347,4.903249 0.187749,0.446869 0.214062,0.945487 0.321093,1.41823 -0.120065,0.417243 -0.157193,0.86794 -0.360198,1.25173 -0.466704,0.882316 -0.806212,1.041734 -1.561405,1.455451 -0.567418,0.310845 -1.361955,0.803127 -2.05805,0.847112 -0.201522,0.01273 -0.387864,-0.112497 -0.581796,-0.168745 -0.180751,-0.154806 -0.3615,-0.309614 -0.542251,-0.46442 -0.05882,-0.06717 -1.008615,0.764751 -0.949791,0.83191 v 0 c 0.262544,0.38932 0.525092,0.778642 0.787636,1.167961 0.454188,0.206806 0.870517,0.537075 1.362564,0.620417 0.47152,0.07987 0.965269,-0.02359 1.427061,-0.147916 1.983871,-0.534113 3.742899,-2.137397 4.381241,-4.112855 0.209036,-0.646901 0.174942,-1.348371 0.262414,-2.022556 -0.151376,-0.683339 -0.192688,-1.400775 -0.454128,-2.050019 -1.31548,-3.26678 -4.751402,-5.475403 -8.100597,-6.14951 -0.930184,-0.187223 -1.892365,-0.141849 -2.838547,-0.212776 -2.0176,0.422097 -3.272032,0.416155 -4.916067,1.858703 -2.478495,2.174742 -3.733716,5.425655 -3.668917,8.681391 0.02316,1.163537 0.340816,2.302448 0.511225,3.453674 1.207345,2.934032 1.372462,4.091002 3.631674,6.468482 2.510852,2.642281 5.881435,4.127681 9.535847,4.053301 1.192101,-0.0243 2.360086,-0.34173 3.540128,-0.51259 1.15018,-0.43236 2.346905,-0.75686 3.450538,-1.29708 4.808508,-2.353751 9.543832,-7.127761 11.897253,-11.949157 0.559341,-1.145909 0.891022,-2.389554 1.336531,-3.584332 0.216978,-1.096369 0.529005,-2.178149 0.650936,-3.289113 0.468788,-4.271325 -0.500752,-8.930237 -2.471902,-12.72877 -0.495578,-0.955011 -1.129264,-1.83176 -1.693896,-2.74764 -1.849468,-2.167767 -2.219422,-2.921705 -4.691021,-4.49019 -3.158775,-2.00457 -6.803392,-2.945829 -10.536428,-2.790307 -1.309245,0.05454 -2.596294,0.357286 -3.89444,0.535931 -1.352591,0.431599 -2.752845,0.735379 -4.05777,1.294795 -3.076345,1.318818 -6.0854,3.281356 -8.640958,5.424069 -1.429383,1.198465 -2.832204,2.448213 -4.052817,3.858732 -4.013932,4.638427 -4.352574,5.893141 -7.062686,10.981069 -1.337728,4.177908 -2.258539,5.923701 -2.329331,10.282645 -0.07485,4.608857 1.348726,9.045738 4.211806,12.666538 0.878132,1.11054 1.986671,2.01761 2.980006,3.02642 1.107903,0.71178 2.152635,1.53314 3.32371,2.13536 2.845581,1.46333 6.697707,2.141491 9.821332,1.20719 0.406079,-0.12146 0.77145,-0.35139 1.157175,-0.52709 0.06286,-0.0157 -0.159582,-0.90461 -0.222436,-0.88889 z" />
    <path
       style="opacity:0.63;fill:#f9a8d4;fill-opacity:1;stroke-width:238.879;stroke-dasharray:none"
       id="path22072"
       d="m 43.102189,50.75547 c -0.142694,-0.140968 -0.303413,-0.265768 -0.428084,-0.422902 -1.254368,-1.580985 -1.583733,-3.834023 -1.132812,-5.773578 0.226405,-0.97384 0.665365,-1.88568 0.998049,-2.828518 0.570785,-1.067146 1.066449,-2.178011 1.712356,-3.201438 1.232276,-1.952517 3.047195,-4.227355 4.834669,-5.720663 1.206042,-1.00756 3.541919,-2.106678 5.028544,-2.433719 0.844547,-0.185791 1.727156,-0.08969 2.590735,-0.134541 0.775426,0.226426 1.586884,0.35394 2.32628,0.67928 2.280347,1.003371 3.933316,2.959548 5.6759,4.647709 2.199601,2.130914 1.713376,1.642728 4.19229,3.627271 0.938481,0.563602 1.837083,1.199674 2.81544,1.690804 2.939874,1.475807 6.354681,2.32448 9.595071,2.776241 2.560079,0.356917 4.345456,0.378403 6.93548,0.498932 4.591282,-0.154711 9.291242,-0.417641 13.597543,-2.196067 1.02959,-0.4252 2.04373,-0.914977 2.96584,-1.539929 1.10789,-0.750875 2.05979,-1.70946 3.08968,-2.564192 0.6075,-1.103335 1.39657,-2.124689 1.82251,-3.310011 2.30337,-6.40988 -0.47641,-13.357404 -4.28649,-18.532074 -1.12502,-1.527937 -2.51727,-2.839781 -3.7759,-4.259671 -1.33687,-1.12473 -2.603581,-2.3385778 -4.010611,-3.3741908 -3.37736,-2.485821 -7.1378,-4.297466 -11.283004,-5.045943 -2.883379,-0.520636 -3.61105,-0.285336 -6.439954,-0.05774 -1.041644,0.220186 -2.099391,0.374602 -3.124932,0.660558 -2.025894,0.564889 -4.064135,1.419118 -5.908158,2.428537 -1.986048,1.087163 -3.571432,2.039265 -5.158935,3.606258 -0.545608,0.5385598 -0.989873,1.1709358 -1.484809,1.7564038 -0.976088,1.805919 -1.369253,2.174646 -1.691477,4.279131 -0.378112,2.46949 0.188732,5.16624 0.951476,7.501506 0.283165,0.866958 0.672723,1.695474 1.009085,2.543211 1.83707,4.15872 4.06861,7.724908 7.956043,10.285776 2.725902,1.795702 3.48848,1.761749 6.568375,2.640589 1.075072,0.0783 2.147458,0.253499 3.225217,0.234873 3.829158,-0.06617 7.721633,-1.47513 10.126383,-4.590136 0.46166,-0.598011 0.69278,-1.342769 1.03917,-2.014153 0.15724,-0.714883 0.39677,-1.416526 0.47172,-2.144648 0.28864,-2.803961 -0.8446,-5.6175 -2.57651,-7.771715 -0.43781,-0.544573 -0.971,-1.005055 -1.456502,-1.507583 -1.42829,-1.059201 -2.08279,-1.738444 -3.845142,-2.249026 -2.306156,-0.66813 -5.084905,-0.470655 -7.180999,0.771241 -0.815127,0.482948 -1.486668,1.174949 -2.229999,1.762423 -0.29821,0.611155 -0.719034,1.176499 -0.894627,1.833465 -0.526234,1.968841 0.256341,4.468721 1.978485,5.649348 0.845145,0.579396 1.894643,0.781155 2.841966,1.171733 0.132049,0.07057 1.130089,-1.796891 0.998038,-1.867465 v 0 c -0.669455,-0.302295 -1.389098,-0.511837 -2.008366,-0.906884 -1.048758,-0.669028 -1.898139,-1.994889 -1.456686,-3.280262 0.132179,-0.384865 0.434053,-0.688454 0.651079,-1.03268 0.205979,-0.196743 0.372196,-0.446195 0.617939,-0.590228 1.513294,-0.886955 3.668511,-1.424972 5.417896,-1.097388 1.347565,0.252339 2.07279,0.887108 3.177426,1.614148 0.86453,0.904645 1.65273,1.638676 2.324892,2.709969 0.86398,1.37701 1.30435,2.932923 1.09007,4.555558 -0.0708,0.535783 -0.24954,1.051668 -0.37432,1.5775 -0.38527,0.713035 -0.75661,1.666726 -1.458092,2.188509 -1.80295,1.341065 -4.255584,2.069569 -6.486239,2.126361 -0.899908,0.02291 -1.793727,-0.154836 -2.690591,-0.232253 -2.460913,-0.621512 -3.379371,-0.647314 -5.570112,-2.03466 -2.280425,-1.444142 -4.931886,-4.311361 -6.353918,-6.602706 -0.458091,-0.738134 -0.774849,-1.555105 -1.162274,-2.332658 -0.844251,-2.119108 -1.95336,-4.412866 -2.143687,-6.719299 -0.05006,-0.60668 -0.0072,-1.221749 0.07729,-1.82459 0.08308,-0.592302 0.191877,-1.192128 0.423224,-1.743674 0.222684,-0.530902 0.614006,-0.974054 0.921008,-1.461081 0.481547,-0.445914 0.930501,-0.929831 1.444639,-1.337739 1.856138,-1.472632 4.037531,-2.6209008 6.187864,-3.5863148 0.901514,-0.404745 1.810661,-0.798179 2.745454,-1.118658 0.883566,-0.302917 1.800247,-0.498905 2.700369,-0.748358 2.287007,-0.162646 3.124536,-0.371198 5.442797,0.09836 2.544516,0.515384 3.775076,1.186157 5.999028,2.583693 3.80821,2.3931048 3.6598,2.5452548 7.08073,5.6570788 1.1414,1.26256 2.360581,2.458919 3.424171,3.787678 3.32196,4.150176 6.66427,9.491569 5.08697,15.049702 -0.25456,0.897017 -0.79323,1.687756 -1.18985,2.531635 -0.46014,0.4586 -0.84799,1.003548 -1.38039,1.375802 -2.56613,1.794189 -5.726041,2.560546 -8.755621,3.071571 -1.09974,0.185501 -2.2026,0.37047 -3.31457,0.456222 -1.05421,0.0813 -2.11447,0.02931 -3.171712,0.04398 -1.1372,-0.0031 -2.27544,0.03936 -3.411606,-0.0093 -1.968994,-0.08425 -4.411159,-0.386239 -6.345286,-0.766735 -1.01721,-0.200072 -2.036669,-0.409348 -3.025262,-0.721506 -1.861466,-0.587776 -3.636796,-1.543703 -5.378091,-2.400231 -0.723706,-0.523482 -1.482788,-1.001254 -2.171121,-1.570451 -0.671342,-0.555147 -1.266979,-1.195964 -1.89915,-1.795338 -2.005731,-1.901676 -3.981531,-4.101306 -6.548817,-5.263571 -0.94388,-0.427314 -1.977231,-0.620149 -2.965848,-0.930223 -1.097897,-0.02022 -2.206058,-0.211839 -3.29369,-0.06069 -1.196006,0.166209 -2.396051,0.472379 -3.481111,1.00219 -3.932584,1.920194 -7.126564,5.329533 -9.081248,9.209301 -0.598947,1.188827 -0.938563,2.491443 -1.407845,3.737165 -0.148157,1.116315 -0.415744,2.223206 -0.444468,3.348943 -0.05601,2.19521 0.74534,5.050237 2.644682,6.380312 0.22046,0.15438 0.488983,0.225029 0.733474,0.337541 0.05523,0.02415 0.3968,-0.75697 0.341566,-0.781122 z" />
    <path
       style="opacity:0.63;fill:#f9a8d4;fill-opacity:1;stroke-width:238.879;stroke-dasharray:none"
       id="path22800"
       d="m 101.3548,12.649165 c 0.31209,-0.05558 0.62774,-0.09398 0.93627,-0.166744 1.01852,-0.240202 2.0169,-0.558922 3.02409,-0.842886 0.78236,-0.220577 3.33642,-0.951201 4.0789,-1.141802 0.753,-0.193299 1.51256,-0.360054 2.26884,-0.5400818 1.55949,-0.187139 4.24932,-0.553134 5.79855,-0.556446 1.69192,-0.0036 5.24435,0.503375 6.69302,0.7593878 1.3319,0.235381 2.66655,0.476813 3.97069,0.835436 1.40155,0.385412 2.75488,0.928538 4.13232,1.392808 3.82725,1.412911 7.564,3.182573 10.90214,5.552122 0.94162,0.668404 1.82917,1.412473 2.69621,2.175148 2.28322,2.008405 2.39973,2.356161 4.34128,4.736739 2.0551,2.754127 4.15885,5.482719 6.01591,8.378026 0.53459,0.833457 1.06573,1.671598 1.52996,2.546196 1.0687,2.013399 1.36499,3.05323 2.1356,5.172859 0.35152,1.487261 0.95622,3.82956 1.12577,5.373237 0.16624,1.513518 0.15405,4.02909 -0.0574,5.531062 -0.40101,2.849367 -0.88881,3.65078 -1.9287,6.439181 -1.78772,3.671412 -3.544,7.401447 -6.15922,10.579421 -0.85239,1.035801 -1.79649,1.996044 -2.76685,2.922249 -0.91595,0.874275 -1.84841,1.743817 -2.88439,2.471874 -1.04419,0.733829 -2.21843,1.262512 -3.32764,1.893768 -3.28624,1.312986 -3.5184,1.62995 -7.03417,2.145743 -2.98338,0.437689 -6.69313,-0.02463 -9.57823,-0.803211 -1.1285,-0.304543 -2.21299,-0.753481 -3.31949,-1.130222 -2.3647,-1.101204 -4.04295,-1.786071 -6.24316,-3.186143 -2.62425,-1.66992 -5.22533,-3.877073 -7.16766,-6.320272 -0.50179,-0.631186 -0.89516,-1.341433 -1.34275,-2.012149 -0.14946,-0.78104 -0.42285,-1.54832 -0.44837,-2.343124 -0.0796,-2.480548 1.05645,-5.95132 2.28935,-8.080732 0.9832,-1.698155 2.45905,-3.294671 3.71941,-4.775509 1.7363,-1.581414 3.27046,-3.045344 5.13718,-4.477851 0.90659,-0.695706 1.85257,-1.339347 2.8022,-1.975031 2.0467,-1.370061 3.02364,-1.986762 5.26192,-2.929988 0.53788,-0.226667 1.10831,-0.36663 1.66246,-0.549946 0.69549,-0.122924 1.3805,-0.348264 2.08646,-0.368767 3.61553,-0.105009 6.91077,2.722471 9.51721,4.872785 2.30978,2.078946 4.6844,4.179531 6.27695,6.892155 0.33877,0.577044 0.65372,1.174739 0.87842,1.805023 0.21633,0.606801 0.29086,1.25516 0.43629,1.882739 0.0108,0.631721 0.11755,1.269117 0.0324,1.895158 -0.096,0.705564 -0.32303,1.390921 -0.5704,2.058641 -0.82237,2.219819 -2.17899,4.313923 -3.98771,5.859608 -0.62065,0.5304 -1.33814,0.935692 -2.00721,1.403539 -0.74643,0.358243 -1.46632,0.778057 -2.23929,1.074733 -1.84326,0.707468 -2.60748,0.812415 -4.45871,0.968323 -1.95915,0.164998 -3.21365,0.261174 -5.15479,0.0323 -0.72631,-0.08563 -1.43667,-0.274623 -2.155,-0.411936 -1.52473,-0.47816 -3.03403,-1.035959 -3.90422,-2.474629 -0.4499,-0.743802 -0.70893,-1.795625 -0.72685,-2.652617 -0.0114,-0.546426 0.10281,-1.088244 0.15422,-1.632368 0.82824,-3.162694 1.98901,-5.705582 5.07005,-7.216966 0.26775,-0.131336 0.57262,-0.16685 0.85894,-0.250276 0.44483,-0.07661 0.8842,-0.198531 1.3345,-0.229827 1.5803,-0.109829 3.25154,0.543112 4.48009,1.516607 0.28941,0.229334 0.52928,0.515053 0.79392,0.772578 0.98171,1.319175 1.58382,3.013721 0.85754,4.609772 -0.11654,0.2561 -0.306,0.472269 -0.459,0.708403 -0.44607,0.388806 -0.63427,0.684679 -1.26568,0.735983 -0.1158,0.0094 -0.20421,-0.116021 -0.31642,-0.146137 -1.90992,-0.512639 -0.1542,0.207158 -2.31117,-0.832716 -0.12309,-0.0838 -1.30827,1.657014 -1.18518,1.740819 v 0 c 0.57586,0.315756 1.11038,0.722839 1.72759,0.947269 1.46148,0.531418 3.28199,0.211789 4.47705,-0.77243 0.31756,-0.261525 0.54976,-0.612139 0.82464,-0.918209 0.49841,-1.0029 0.72537,-1.243021 0.85794,-2.379449 0.15722,-1.347782 -0.14674,-2.738747 -0.80024,-3.922393 -0.23135,-0.419027 -0.54318,-0.788279 -0.81476,-1.182419 -0.87199,-0.857133 -1.11603,-1.202066 -2.18326,-1.828889 -1.32036,-0.775498 -2.92156,-1.288534 -4.45963,-1.327385 -0.58706,-0.01483 -1.17133,0.0861 -1.757,0.129144 -1.81515,0.658747 -2.68733,0.781122 -4.15724,1.986955 -1.77862,1.459089 -2.98616,3.498273 -3.6185,5.693251 -0.20843,0.72348 -0.28483,1.478624 -0.42723,2.217937 -0.003,1.745313 -0.14541,2.264422 0.38115,3.915842 0.59374,1.862088 1.79454,3.391886 3.4558,4.424767 0.63013,0.391777 1.33303,0.6521 1.99955,0.978149 2.25946,0.642915 2.78434,0.92781 5.21373,1.034047 3.27375,0.143159 6.59398,-0.534978 9.57595,-1.890482 0.87538,-0.397914 1.68594,-0.925245 2.5289,-1.387869 1.90736,-1.527711 2.64673,-1.913834 4.10734,-3.895082 1.63423,-2.216763 2.67909,-4.84606 2.86748,-7.602211 0.0534,-0.781563 -0.06,-1.565626 -0.09,-2.348441 -0.52467,-2.100453 -0.48798,-2.523933 -1.53285,-4.439504 -1.61125,-2.953965 -4.1274,-5.260416 -6.65109,-7.419416 -0.62892,-0.535688 -1.2361,-1.098004 -1.88676,-1.60706 -2.00471,-1.568422 -4.25834,-3.013635 -6.75447,-3.657016 -2.20981,-0.569583 -2.84888,-0.366378 -5.07824,-0.246724 -1.15512,0.340667 -2.3356,0.604885 -3.46537,1.022002 -4.09964,1.513611 -8.37528,4.585646 -11.52179,7.578583 -0.87546,0.832739 -1.66569,1.750716 -2.49855,2.626076 -0.70421,0.862303 -1.46485,1.681445 -2.11262,2.586913 -1.12751,1.576056 -2.52127,3.984604 -3.15169,5.840798 -0.74702,2.19954 -1.09337,4.437353 -0.81434,6.758971 0.12426,1.033832 0.52474,2.015354 0.7871,3.02303 0.45053,0.839802 0.82227,1.726911 1.35161,2.519407 1.96584,2.943153 4.7308,5.229414 7.6549,7.164172 1.02013,0.674976 2.06486,1.317081 3.14634,1.888627 1.13325,0.598912 2.32565,1.078524 3.48847,1.617787 2.76773,0.96688 4.42136,1.681808 7.33766,2.149298 4.27463,0.685231 8.71085,0.322481 12.82316,-1.035622 1.31677,-0.434869 2.55846,-1.070631 3.83769,-1.605944 3.08323,-1.958099 4.15479,-2.414956 6.78146,-4.96167 2.99556,-2.904375 5.79303,-6.861842 7.58741,-10.627727 0.64362,-1.350753 1.10591,-2.780655 1.65885,-4.170983 0.82728,-3.24699 1.16131,-3.984849 1.46293,-7.193352 0.20768,-2.209384 0.14655,-3.825039 -0.0879,-6.022864 -0.10119,-0.948495 -0.21698,-1.897974 -0.41013,-2.832091 -0.20639,-0.998181 -0.52431,-1.970012 -0.78647,-2.955018 -0.32437,-0.928173 -0.60593,-1.872433 -0.97312,-2.784513 -2.09783,-5.210852 -5.32322,-9.875347 -8.90205,-14.168055 -0.99029,-1.133384 -3.47474,-4.029156 -4.58159,-5.091748 -4.05683,-3.894623 -8.91292,-6.788289 -14.18466,-8.7131218 -3.38876,-0.988163 -5.23867,-1.666067 -8.70723,-2.155727 -3.84224,-0.542412 -7.80792,-0.452084 -11.62244,0.263462 -0.93753,0.175865 -1.85359,0.451421 -2.78037,0.677131 -3.34339,0.976629 -6.71332,2.0601908 -9.6925,3.9095788 -0.0357,0.01909 0.23435,0.523267 0.27,0.504175 z" />
    <path
       style="opacity:0.63;fill:#f9a8d4;fill-opacity:1;stroke-width:238.879;stroke-dasharray:none"
       id="path22810"
       d="m 159.1387,68.933336 c 0.38774,-0.168517 0.7783,-0.330705 1.16323,-0.505552 0.53325,-0.242209 1.04739,-0.527605 1.59101,-0.745497 1.86998,-0.749512 3.23115,-1.116559 5.25626,-1.518921 1.09625,-0.217807 2.19379,-0.481635 3.31024,-0.534022 1.20514,-0.05655 2.40891,0.139438 3.61336,0.209158 2.05638,0.701836 4.10075,1.221937 5.83728,2.660841 1.90056,1.57481 3.36211,4.179975 4.13311,6.468539 1.10755,3.287554 0.84075,4.494974 0.8495,7.882086 -0.2898,1.27203 -0.46848,2.5746 -0.8694,3.81609 -0.77055,2.386031 -1.95843,4.565871 -3.52473,6.521321 -1.43802,1.79531 -3.44538,3.54636 -5.29597,4.9044 -0.86219,0.6327 -1.79149,1.16848 -2.68724,1.75272 -2.25997,1.249761 -4.63718,2.274671 -7.17072,2.817681 -2.361,0.50605 -4.78933,0.68388 -7.18794,0.90089 -2.35231,0.0462 -4.69065,-0.20006 -6.96266,-0.81841 -1.74047,-0.4737 -3.3908,-1.20008 -5.04058,-1.91508 -2.90962,-1.385421 -5.9759,-1.952321 -9.19131,-1.630011 -0.65186,0.0653 -1.29308,0.21142 -1.93963,0.31713 -3.40014,0.545271 -6.48427,1.989411 -9.43663,3.689261 -0.43973,0.28135 -0.88822,0.54941 -1.31916,0.84404 -0.84386,0.57693 -1.63729,1.22524 -2.47915,1.8051 -0.21383,0.14727 -2.9496,1.93694 -3.10238,2.02871 -0.64722,0.38874 -1.31747,0.73779 -1.9762,1.10668 -2.07549,1.1731 -4.20697,2.26726 -6.46762,3.04319 -0.83424,0.28635 -1.68691,0.51639 -2.53574,0.7561 -0.87149,0.24612 -1.73986,0.50843 -2.62468,0.70123 -0.76737,0.1672 -1.55047,0.2516 -2.32571,0.37742 -2.60966,0.43711 -4.420011,0.7944 -7.087981,1.00876 -1.46896,0.11802 -2.9438,0.14563 -4.41615,0.20857 -1.569892,0.0671 -3.139432,0.15178 -4.710475,0.18154 -3.167585,0.06 -6.714089,-0.0274 -9.882121,-0.0806 -4.723895,-0.29681 -9.340488,-0.48899 -13.888216,-1.95315 -1.395376,-0.44926 -2.803378,-0.92326 -4.076485,-1.64996 -3.270634,-1.86691 -3.640009,-2.96604 -5.814183,-5.86709 -0.349911,-1.38441 -0.92261,-2.73095 -1.049727,-4.15322 -0.321238,-3.594251 0.5484,-6.869041 1.911242,-10.168911 1.252751,-3.03331 3.969409,-7.614921 5.938608,-10.28158 0.990401,-1.341184 2.161693,-2.538854 3.242538,-3.808281 2.448959,-1.982236 3.374526,-3.131315 6.301021,-4.138641 0.654268,-0.225207 1.367396,-0.252016 2.059272,-0.261618 2.074325,-0.02878 3.310202,0.200832 5.225305,0.959989 0.777037,0.308021 1.49738,0.74331 2.246069,1.114967 2.356838,1.61067 2.133037,1.387079 4.348418,3.182665 1.387437,1.124531 2.195684,1.793892 3.37784,3.111529 0.43238,0.481929 0.863535,0.971229 1.218102,1.512979 0.33038,0.50477 0.55073,1.07354 0.82609,1.61031 0.40838,1.34646 0.67385,1.85839 0.67726,3.27479 0.005,1.865731 -0.64102,3.775341 -1.40574,5.451441 -0.279563,0.61274 -0.629479,1.19087 -0.944216,1.78631 -1.069633,1.62607 -2.368307,3.09145 -4.005666,4.16982 -0.612677,0.40351 -1.26737,0.74174 -1.925261,1.066351 -0.6837,0.33734 -1.378166,0.65818 -2.095155,0.91735 -0.542573,0.19614 -1.11514,0.29645 -1.672709,0.44467 -3.459195,0.78847 -6.714013,1.05673 -10.176239,0.0851 -0.729104,-0.20462 -1.457465,-0.4416 -2.130535,-0.78865 -0.620263,-0.3198 -1.145597,-0.79725 -1.718396,-1.195881 -1.208982,-1.20352 -2.251443,-2.52557 -2.090742,-4.33976 0.09267,-1.04615 0.649655,-2.28729 1.210612,-3.14543 0.361551,-0.5531 0.821965,-1.03486 1.232949,-1.55228 1.652962,-1.69284 3.413417,-3.381061 5.577545,-4.405061 0.494151,-0.23382 1.120376,-0.29028 1.636392,-0.37912 0.318989,0.0427 0.645481,0.0471 0.956966,0.1281 1.77949,0.4625 3.264656,2.050881 4.360402,3.442491 0.373933,0.942 0.238537,0.84735 -0.512333,1.20889 -0.07975,0.069 0.895881,1.19689 0.975635,1.12791 v 0 c 0.297272,-0.15575 0.645155,-0.23967 0.891811,-0.46725 0.961023,-0.88665 0.722163,-1.90915 0.364711,-2.98145 -0.21971,-0.351221 -0.404889,-0.726561 -0.659126,-1.053661 -1.136082,-1.46168 -2.987221,-2.75059 -4.780455,-3.24518 -0.452995,-0.12494 -0.92692,-0.15517 -1.39038,-0.23275 -0.463127,0.0249 -0.935534,-0.0208 -1.389374,0.0747 -2.556391,0.53832 -4.96907,2.07777 -6.830231,3.86587 -0.567047,0.544791 -1.062353,1.159641 -1.593528,1.739461 -0.998233,1.52431 -1.664904,2.27955 -2.163303,4.05372 -0.608195,2.16502 -0.36936,4.4642 0.817965,6.39622 0.427495,0.695621 1.027372,1.269281 1.541056,1.903921 0.712449,0.5279 1.371054,1.13755 2.137346,1.58371 3.296772,1.9195 7.377018,2.26332 11.086886,1.74692 0.957986,-0.13334 1.894192,-0.39257 2.841289,-0.58885 2.370852,-0.85117 3.460955,-1.09757 5.529093,-2.30319 1.961618,-1.14351 3.800144,-2.686291 5.227981,-4.457091 0.47711,-0.59172 0.87085,-1.24607 1.30628,-1.8691 0.34311,-0.68772 0.733392,-1.35388 1.029342,-2.06319 1.09994,-2.63623 1.61315,-5.65181 1.03985,-8.480701 -0.13949,-0.68827 -0.39703,-1.34724 -0.59554,-2.02086 -0.32728,-0.6533 -0.60796,-1.33211 -0.98184,-1.959899 -0.821922,-1.380104 -1.733782,-2.40904 -2.838053,-3.573929 -1.945285,-2.052062 -4.109508,-3.852069 -6.56888,-5.265038 -0.847814,-0.476737 -1.65882,-1.025854 -2.543448,-1.430211 -1.849251,-0.845278 -4.354138,-1.656942 -6.415731,-1.589063 -2.879729,0.09481 -5.982343,0.961605 -8.486912,2.401583 -1.442978,0.829626 -2.698574,1.949247 -4.047859,2.923872 -1.31122,1.375421 -2.749649,2.639925 -3.933662,4.12626 -4.118306,5.169865 -7.039866,11.390646 -7.632917,18.035576 -0.173805,1.94744 -0.13609,3.936381 0.202347,5.862051 0.317356,1.80573 1.163099,3.47746 1.744649,5.21619 2.81451,3.79524 2.936387,4.74406 7.132627,7.21543 3.944486,2.3231 9.61581,3.36627 14.117396,3.88236 1.675298,0.19207 3.362688,0.25767 5.044032,0.38651 1.679652,0.0516 3.358517,0.15029 5.038958,0.15494 2.59331,0.007 7.394991,-0.18195 10.013373,-0.44176 4.02408,-0.39928 8.01692,-1.16257 11.965911,-2.01195 1.41303,-0.38572 5.00123,-1.33271 6.63457,-1.8787 3.25141,-1.08687 6.39647,-2.52786 9.28745,-4.3732 1.39908,-0.98265 2.13489,-1.47597 3.45633,-2.48666 0.46554,-0.35608 0.91246,-0.73606 1.37783,-1.09235 1.16747,-0.8938 2.38307,-1.72454 3.57303,-2.58752 0.36553,-0.20926 0.72057,-0.43801 1.0966,-0.62777 2.10674,-1.06315 4.44001,-1.6181 6.71208,-2.19265 2.3268,-0.36119 4.6873,-0.73841 7.03382,-0.26318 1.02088,0.20676 2.03931,0.66365 2.99825,1.0455 1.03778,0.54843 2.13246,1.14832 3.20519,1.62024 3.05333,1.34319 6.2755,2.12945 9.62981,2.0526 0.90704,-0.0466 1.81832,-0.0407 2.72113,-0.13987 2.70994,-0.29767 3.70979,-0.56623 6.21039,-1.19576 1.5803,-0.39785 3.60054,-0.90945 5.11158,-1.50085 0.99426,-0.38915 1.94537,-0.88064 2.91806,-1.32095 2.66505,-1.60796 3.82395,-2.12261 6.15207,-4.324271 3.02976,-2.86518 5.59511,-6.64028 6.84229,-10.644701 0.45307,-1.45472 0.60659,-2.9863 0.90988,-4.47946 -0.0188,-3.978136 0.31437,-5.420083 -1.10161,-9.266381 -1.58559,-4.307014 -4.79405,-8.184862 -9.21435,-9.778475 -1.59288,-0.574268 -3.31516,-0.691299 -4.97273,-1.03695 -1.33611,0.07249 -2.68376,0.02777 -4.00831,0.217458 -3.42,0.489762 -7.31026,2.12798 -10.02707,4.308086 -0.33793,0.271167 -0.62601,0.599181 -0.93901,0.89877 -0.0532,0.05902 0.78138,0.811423 0.83458,0.75241 z" />
  </g>
</svg>
