<?xml version="1.0" encoding="UTF-8" standalone="no"?>
<!-- Created with Inkscape (http://www.inkscape.org/) -->

<svg
   width="500"
   height="210"
   viewBox="0 0 132.29174 55.562745"
   version="1.1"
   id="svg5"
   inkscape:version="1.2.2 (732a01da63, 2022-12-09)"
   sodipodi:docname="eyel.svg"
   xmlns:inkscape="http://www.inkscape.org/namespaces/inkscape"
   xmlns:sodipodi="http://sodipodi.sourceforge.net/DTD/sodipodi-0.dtd"
   xmlns="http://www.w3.org/2000/svg"
   xmlns:svg="http://www.w3.org/2000/svg">
  <sodipodi:namedview
     id="namedview7"
     pagecolor="#505050"
     bordercolor="#eeeeee"
     borderopacity="1"
     inkscape:showpageshadow="0"
     inkscape:pageopacity="0"
     inkscape:pagecheckerboard="0"
     inkscape:deskcolor="#505050"
     inkscape:document-units="mm"
     showgrid="false"
     inkscape:zoom="0.91100744"
     inkscape:cx="225.57445"
     inkscape:cy="253.01659"
     inkscape:window-width="1368"
     inkscape:window-height="842"
     inkscape:window-x="-6"
     inkscape:window-y="-6"
     inkscape:window-maximized="1"
     inkscape:current-layer="layer1"
     showguides="false" />
  <defs
     id="defs2" />
  <g
     inkscape:label="Layer 1"
     inkscape:groupmode="layer"
     id="layer1">
    <path
       style="opacity:0.76;fill:#000000;stroke-width:468.741"
       id="path568"
       d="m 120.52438,35.080323 c -2.18822,-1.332751 -4.00447,-3.195195 -5.91157,-4.884465 -5.09989,-4.517379 -0.3422,-0.184711 -5.4711,-4.903877 -2.85552,-2.360837 -3.27419,-2.81872 -6.40673,-4.937861 -1.16824,-0.790307 -2.32974,-1.600723 -3.573332,-2.266185 -2.15029,-1.150644 -6.373963,-2.834529 -8.703021,-3.512804 -1.289728,-0.375597 -2.626106,-0.56696 -3.939159,-0.850442 -1.477484,-0.245393 -2.940664,-0.602941 -4.432448,-0.73618 -4.470001,-0.399245 -8.926161,0.414894 -13.23679,1.519936 -1.437026,0.368385 -2.864739,0.778685 -4.271052,1.250945 -1.452835,0.487879 -2.866707,1.084898 -4.300061,1.627346 -10.354667,4.331142 2.143228,-0.950015 -8.844116,3.875567 -2.449052,1.07561 -6.856508,2.900838 -9.374103,3.80742 -3.804293,1.369915 -4.845693,1.564817 -8.685313,2.592266 -3.33803,0.619106 -6.89155,1.219009 -10.21807,0.120356 -1.16527,-0.384855 -2.24107,-1.000752 -3.3616,-1.501129 -0.1254,-0.09745 1.25284,-1.87089 1.37824,-1.773434 v 0 c 0.59513,0.308653 1.14034,0.743268 1.78537,0.925957 0.76908,0.217829 1.58511,0.246767 2.3844,0.255043 2.88233,0.02985 3.72293,-0.341133 6.62461,-0.9768 1.33472,-0.403939 2.68437,-0.761534 4.00418,-1.21182 1.43322,-0.488974 2.83674,-1.061143 4.25028,-1.604375 7.347523,-2.823689 1.939204,-0.752777 9.274592,-3.778589 1.575525,-0.649899 3.168221,-1.257535 4.745524,-1.903106 1.460162,-0.597622 2.911081,-1.217583 4.366623,-1.826373 2.905016,-1.036953 5.954678,-2.195365 8.942834,-2.988117 6.29171,-1.6691801 12.485111,-2.1429951 18.93094,-1.119434 4.602723,1.216925 6.29875,1.42589 10.468044,3.36164 5.329788,2.474553 9.996348,6.109991 14.289538,10.07164 0.90113,0.872609 1.83038,1.717087 2.7034,2.617832 2.532,2.612424 4.83464,5.458502 7.08769,8.31033 0.031,0.03591 -0.47678,0.47462 -0.5078,0.438713 z" />
    <path
       style="opacity:0.76;fill:#000000;stroke-width:468.741"
       id="path582"
       d="m 99.120249,16.54126 c 2.666761,0.175583 4.832831,1.888961 6.301501,4.049287 0.54394,0.80011 0.93981,1.691439 1.40971,2.537158 0.93507,2.844652 1.52025,3.849016 1.46126,6.955417 -0.0795,4.186126 -1.60651,8.354925 -4.3599,11.527525 -0.90984,1.048361 -2.06574,1.854772 -3.09861,2.782157 -1.408653,0.707126 -2.741195,1.592403 -4.225955,2.121377 -1.500338,0.534524 -3.081562,0.851177 -4.662403,1.045271 -5.978054,0.73397 -12.032083,-0.538261 -17.646838,-2.523353 -1.863629,-0.658884 -3.620211,-1.58841 -5.430316,-2.382618 -1.611945,-0.936574 -3.285865,-1.773801 -4.835832,-2.809724 -3.51338,-2.34818 -7.228197,-5.518205 -8.569692,-9.712727 -0.392428,-1.227024 -0.37701,-2.548768 -0.565515,-3.82315 -0.0118,-0.172553 2.42847,-0.339434 2.44027,-0.16688 v 0 c 0.178927,1.011076 0.154467,2.080273 0.536779,3.033231 0.403233,1.005099 1.062778,1.904796 1.772465,2.722819 3.054072,3.520284 7.412363,5.554297 11.447999,7.661801 6.218619,2.587339 12.733906,5.518655 19.651266,5.140799 3.445986,-0.188235 4.879475,-0.974485 8.039049,-2.133674 0.905973,-0.772152 1.919223,-1.433791 2.717913,-2.316454 2.38606,-2.636927 3.96367,-6.483358 4.24783,-10.01858 0.19533,-2.430095 -0.29562,-4.011316 -0.77642,-6.335329 -0.35336,-0.787614 -0.64708,-1.604788 -1.06006,-2.36284 -1.16974,-2.147155 -2.66778,-3.608369 -5.009409,-4.302112 -0.04875,-0.01519 0.166161,-0.704596 0.214908,-0.689401 z" />
    <path
       style="opacity:0.76;fill:#000000;stroke-width:468.741"
       id="path584"
       d="m 20.985925,12.864497 c 1.92788,0.866859 -0.075,-0.07252 2.25013,1.176795 0.66933,0.35964 1.35626,0.685623 2.02919,1.038463 1.46471,0.767995 3.60238,1.97408 5.10229,2.628625 0.98266,0.428818 2.00292,0.765707 3.00438,1.148559 0.81572,0.24167 1.63143,0.48334 2.44715,0.725011 0.17993,0.007 0.0817,2.551464 -0.0983,2.544516 v 0 c -1.29434,-0.382156 -2.58869,-0.764315 -3.88303,-1.146471 -1.04041,-0.451781 -2.10518,-0.851146 -3.12121,-1.355344 -2.80562,-1.392261 -5.46637,-3.273364 -7.68401,-5.492078 -0.22993,-0.230034 -0.42774,-0.490069 -0.64161,-0.735105 -0.0377,-0.04207 0.5573,-0.575043 0.59498,-0.532971 z" />
    <path
       style="opacity:0.76;fill:#000000;stroke-width:468.741"
       id="path586"
       d="m 30.801245,9.3944809 c 0.36504,0.150418 0.73494,0.289576 1.09513,0.451257 0.56502,0.2536141 1.11977,0.5294981 1.67966,0.7942451 0.67582,0.33737 1.33998,0.699217 2.02747,1.012113 1.16853,0.531818 4.06621,1.691355 5.235952,2.096897 0.924073,0.320371 1.867713,0.581248 2.801567,0.871869 3.685649,0.621752 1.975086,0.328215 5.132351,0.876747 0.134816,-0.02363 0.469093,1.88296 0.334274,1.906595 v 0 c -4.673454,0.04589 -2.417249,0.280265 -6.775619,-0.631999 -0.969888,-0.336582 -1.956535,-0.628285 -2.909665,-1.009748 -2.90428,-1.162363 -6.0444,-2.932142 -8.45994,-4.95013 -0.31486,-0.26304 -0.59135,-0.56887 -0.88703,-0.8533051 -0.0399,-0.05133 0.68593,-0.615868 0.72585,-0.564541 z" />
    <path
       style="opacity:0.76;fill:#000000;stroke-width:468.741"
       id="path590"
       d="m 42.892791,7.1887419 c 0.205121,0.06075 0.416009,0.104638 0.615368,0.182243 0.294994,0.114831 0.570026,0.276833 0.864216,0.39371 0.280228,0.111326 2.783721,0.987785 2.899251,1.02067 1.319663,0.375616 3.485589,0.782632 4.778653,1.044107 4.243927,0.6568201 2.130838,0.2665681 6.339107,1.1716201 0.158948,-0.0013 0.178999,2.246426 0.02005,2.247844 v 0 c -4.337259,-0.45961 -2.171364,-0.100494 -6.495486,-1.090504 -0.900615,-0.255185 -1.811724,-0.475879 -2.701846,-0.765556 -1.862436,-0.606102 -3.587982,-1.376053 -5.205896,-2.4749861 -0.283422,-0.192509 -0.567859,-0.386123 -0.827617,-0.609534 -0.18924,-0.162761 -0.342733,-0.362966 -0.514098,-0.544452 -0.04067,-0.01614 0.187624,-0.591304 0.228295,-0.575162 z" />
    <path
       style="opacity:0.76;fill:#000000;stroke-width:468.741"
       id="path660"
       d="m 104.00723,31.430769 c -0.28428,5.29e-4 -0.56977,0.02775 -0.85284,0.0016 -2.61809,-0.242271 -5.616498,-1.4898 -7.725571,-3.018692 -0.703842,-0.510223 -1.311206,-1.141765 -1.966809,-1.712648 -0.501166,-0.68285 -1.096423,-1.305759 -1.503498,-2.048553 -1.284777,-2.344337 -1.542333,-5.109358 -0.550182,-7.614822 0.290295,-0.733083 0.815382,-1.349774 1.223076,-2.024663 0.03811,-0.09244 1.345443,0.446461 1.307335,0.538904 v 0 c -0.696351,1.446556 -1.224486,2.249508 -1.40739,3.910883 -0.173601,1.576855 0.07506,2.903132 0.83779,4.294999 0.359058,0.655222 0.896628,1.195417 1.344941,1.793124 0.590703,0.52479 1.142216,1.097322 1.772105,1.574369 0.643501,0.487357 1.341805,0.899313 2.036635,1.310192 0.655034,0.387345 1.334342,0.732386 2.009908,1.082681 1.1531,0.5979 2.32023,1.184838 3.58766,1.500605 0.0291,0.008 -0.084,0.420069 -0.11316,0.412065 z" />
    <path
       style="opacity:0.76;fill:#000000;stroke-width:468.741"
       id="path670"
       d="M 101.27159,11.968972 C 99.275961,10.401403 96.849473,9.6316009 94.446696,8.9264359 90.762252,7.8451259 90.53852,7.8898669 86.663795,7.1055809 85.236246,6.9246699 83.8179,6.6426849 82.381149,6.5628439 c -1.53176,-0.08512 -3.069627,-0.02191 -4.602112,0.04902 -2.841197,0.131466 -5.126927,0.467815 -7.898834,1.246817 -2.076887,0.583673 -5.637517,2.027227 -7.708051,2.8366451 -0.135723,0.09797 -1.52128,-1.8214761 -1.385554,-1.9194511 v 0 c 1.165143,-0.638892 2.279343,-1.381064 3.495427,-1.916679 1.420492,-0.625641 2.89901,-1.120547 4.388876,-1.55589 4.793954,-1.400802 9.733965,-1.82345 14.701083,-1.335577 1.490332,0.146381 2.958209,0.468053 4.437314,0.702082 1.388375,0.3712 2.796839,0.674095 4.165126,1.113603 3.23568,1.039331 6.940574,2.594406 9.254086,5.2150031 0.18564,0.210286 0.32306,0.458653 0.48459,0.68798 0.02,0.03122 -0.42153,0.313799 -0.44151,0.282578 z" />
    <path
       style="opacity:0.76;fill:#000000;stroke-width:468.741"
       id="path696"
       d="m 99.706872,51.240158 c -0.262448,0.08942 -0.518771,0.199384 -0.787341,0.268269 -1.026978,0.263408 -1.852502,0.343863 -2.921336,0.471699 -1.450504,0.173487 -3.309126,0.382841 -4.740238,0.461123 -0.958342,0.05242 -1.918814,0.05314 -2.878222,0.07971 -5.183892,0.05225 -10.312207,-0.848347 -15.272414,-2.313662 -0.9392,-0.277453 -1.861371,-0.609589 -2.792056,-0.914384 -2.710317,-1.096685 -5.486148,-2.130089 -7.93006,-3.773334 -0.73031,-0.491048 -1.375428,-1.098235 -2.063141,-1.647352 -0.100938,-0.07407 0.946531,-1.501558 1.047472,-1.42749 v 0 c 3.187721,1.754783 6.294144,3.726196 9.792134,4.823375 2.12498,0.656434 3.382989,1.0854 5.559999,1.592842 3.910145,0.911424 7.922429,1.486199 11.934079,1.629725 2.48426,0.05867 4.968941,0.144584 7.453617,0.182973 1.046077,0.01617 1.811977,-0.01058 2.834113,0.04422 0.252418,0.01355 0.50333,0.04742 0.754994,0.07113 0.0319,-5.29e-4 0.0403,0.450559 0.0084,0.451156 z" />
  </g>
</svg>
