<?xml version="1.0" encoding="UTF-8" standalone="no"?>
<!-- Created with Inkscape (http://www.inkscape.org/) -->

<svg
   width="1920"
   height="1080"
   viewBox="0 0 507.99998 285.75"
   version="1.1"
   id="svg5"
   inkscape:version="1.2.2 (732a01da63, 2022-12-09)"
   sodipodi:docname="flowers.svg"
   xmlns:inkscape="http://www.inkscape.org/namespaces/inkscape"
   xmlns:sodipodi="http://sodipodi.sourceforge.net/DTD/sodipodi-0.dtd"
   xmlns="http://www.w3.org/2000/svg"
   xmlns:svg="http://www.w3.org/2000/svg">
  <sodipodi:namedview
     id="namedview7"
     pagecolor="#505050"
     bordercolor="#eeeeee"
     borderopacity="1"
     inkscape:showpageshadow="0"
     inkscape:pageopacity="0"
     inkscape:pagecheckerboard="0"
     inkscape:deskcolor="#505050"
     inkscape:document-units="mm"
     showgrid="false"
     inkscape:zoom="0.44785584"
     inkscape:cx="1270.4981"
     inkscape:cy="588.35897"
     inkscape:window-width="1368"
     inkscape:window-height="842"
     inkscape:window-x="-6"
     inkscape:window-y="-6"
     inkscape:window-maximized="1"
     inkscape:current-layer="layer1"
     showguides="false" />
  <defs
     id="defs2">
    <filter
       inkscape:collect="always"
       style="color-interpolation-filters:sRGB"
       id="filter14754"
       x="-1.7971362"
       y="-9.3522493"
       width="4.5942723"
       height="19.704499">
      <feGaussianBlur
         inkscape:collect="always"
         stdDeviation="1.1155947"
         id="feGaussianBlur14756" />
    </filter>
  </defs>
  <g
     inkscape:label="Layer 1"
     inkscape:groupmode="layer"
     id="layer1">
    <path
       style="opacity:0.27;fill:#ff5599;stroke-width:468.741"
       d="M 204.80812,102.63939 C 167.33345,95.100646 174.64085,60.109175 189.50184,35.722362 194.96589,26.755898 203.73587,15.833874 206.177,5.5148137 c 0.44071,-1.863085 1.07362,-7.5733594 0.9644,-5.66197081 -1.68621,29.50816111 41.10763,20.48052511 54.13198,43.86472211 7.04855,12.655137 6.36979,27.43853 4.26212,41.313724 -0.97285,6.404377 -3.66395,25.474701 -4.04434,19.008031 -1.66389,-28.285524 25.84299,-52.190236 52.60755,-47.380108 22.99348,4.132392 20.50193,25.690962 34.59469,36.553934 7.11169,5.481817 25.24559,-4.342776 28.40374,-1.71104 0.93956,0.78296 -16.56022,19.503634 -13.31524,25.229984 1.8931,3.34069 7.12584,2.22801 9.17755,5.84863 9.15091,16.14831 -1.382,38.54583 -15.83515,47.2868 -24.70431,14.94063 -54.04657,5.35466 -80.4513,6.78192 -7.82381,0.4229 15.71485,-1.88407 23.48828,-0.90219 17.87094,2.25734 32.96907,8.26606 43.55447,23.73673 8.36398,12.22403 -3.05689,29.77991 -1.05775,39.2916 1.95947,9.32295 13.04889,17.85324 7.37314,20.71908 -5.68845,2.87225 -21.04976,-7.7689 -42.21672,-5.81753 -11.71169,4.41801 -45.96292,3.57638 -55.09639,-8.05742 -15.89434,-20.46892 -15.50364,-32.62875 -15.92848,-32.41634 -11.60462,5.80219 -2.20564,38.38358 -20.96836,46.9757 -27.96286,12.80517 -36.60056,2.52769 -61.66068,-6.96858 -12.64647,-4.79226 -28.93127,-0.39896 -28.77706,-0.96441 18.41639,-16.06993 23.90372,-25.58983 22.71054,-30.45643 -2.77047,-11.29987 -2.91387,-19.11634 8.95978,-35.06066 12.70842,-17.06526 28.15486,-15.05711 28.15486,-15.05711 -8.14886,-3.22339 -25.31495,11.49645 -48.62546,-1.55549 -10.9319,-6.12095 -18.63067,-18.33742 -15.80405,-29.02538 2.82886,-10.69642 -12.09248,-12.60055 -20.28393,-24.07893 11.77285,-7.46112 23.20873,-2.45381 35.71465,-17.172567 8.03011,-9.450977 33.21686,-21.453656 54.28754,-1.18217"
       id="path2074"
       sodipodi:nodetypes="csscsssssssssssssscccsscssssscsc" />
    <path
       style="opacity:0.27;fill:#d40055;stroke-width:271.539"
       d="m 218.08841,122.88212 c -21.70889,-4.36715 -17.47575,-24.637529 -8.86685,-38.764689 3.1653,-5.194236 8.24571,-11.521309 9.65984,-17.499088 0.2553,-1.079272 0.62192,-4.387202 0.55867,-3.279951 -0.97681,17.093928 23.81342,11.864266 31.35836,25.410628 4.08319,7.331039 3.69,15.89499 2.46903,23.93282 -0.56357,3.71002 -2.1225,14.75737 -2.34286,11.01126 -0.96388,-16.38566 14.97072,-30.233549 30.47529,-27.447064 13.32,2.393875 11.87666,14.882644 20.04052,21.175504 4.11977,3.17559 14.62463,-2.51575 16.45415,-0.99118 0.54428,0.45355 -9.59326,11.29835 -7.71345,14.6156 1.09666,1.93523 4.12796,1.29066 5.31651,3.38808 5.30106,9.35463 -0.8006,22.3294 -9.17322,27.393 -14.3111,8.65504 -31.30892,3.10193 -46.60504,3.92872 -4.53228,0.24499 9.10353,-1.09143 13.60663,-0.52263 10.35256,1.30767 19.09884,4.78849 25.2309,13.75057 4.8452,7.08133 -1.77085,17.25136 -0.61275,22.76142 1.13511,5.40074 7.55916,10.34228 4.27122,12.00246 -3.2953,1.66388 -12.19402,-4.50048 -24.45594,-3.37007 -6.78451,2.55933 -26.62607,2.07178 -31.91707,-4.66763 -9.20748,-11.85753 -8.98116,-18.90165 -9.22727,-18.77861 -6.72251,3.36118 -1.27771,22.23542 -12.14687,27.21278 -16.19874,7.41797 -21.20251,1.46428 -35.71971,-4.03686 -7.32604,-2.77614 -16.75973,-0.23112 -16.6704,-0.55867 10.66853,-9.30924 13.8473,-14.82406 13.1561,-17.64327 -1.60492,-6.54595 -1.68799,-11.07399 5.19034,-20.31045 7.36193,-9.88582 16.30997,-8.72251 16.30997,-8.72251 -4.72058,-1.86729 -14.66481,6.65985 -28.16847,-0.90108 -6.33281,-3.54584 -10.79265,-10.62278 -9.1552,-16.81425 1.63872,-6.1964 -7.00512,-7.29944 -11.75038,-13.94881 6.81995,-4.32219 13.44469,-1.42149 20.6893,-9.94798 4.65182,-5.47491 19.24237,-12.42799 31.4485,-0.68483"
       id="path2074-0-9"
       sodipodi:nodetypes="csscsssssssssssssscccsscssssscsc" />
    <path
       style="opacity:0.27;fill:#e9afc6;stroke-width:180.366"
       d="m 223.79311,133.92271 c -14.41983,-2.90082 -11.60803,-16.36514 -5.88969,-25.7489 2.10251,-3.4502 5.4771,-7.65287 6.41642,-11.623519 0.16958,-0.7169 0.4131,-2.914142 0.37109,-2.17867 -0.64884,11.354399 15.81773,7.880679 20.82935,16.878649 2.71221,4.86954 2.45104,10.55803 1.64002,15.89704 -0.37435,2.46433 -1.40985,9.80238 -1.55622,7.31408 -0.64024,-10.88395 9.94409,-20.08221 20.24279,-18.23133 8.84762,1.5901 7.88891,9.88559 13.31163,14.06553 2.7365,2.10935 9.71421,-1.67105 10.92944,-0.65837 0.36153,0.30126 -6.37219,7.50477 -5.12355,9.7082 0.72844,1.28545 2.74194,0.85731 3.53141,2.25049 3.52116,6.21368 -0.53178,14.83199 -6.09318,18.19541 -9.50594,5.74899 -20.7965,2.06041 -30.95674,2.6096 -3.01051,0.16274 6.0469,-0.72496 9.03802,-0.34714 6.87654,0.86859 12.68613,3.18068 16.75926,9.13361 3.21836,4.70367 -1.17625,11.45897 -0.407,15.11896 0.75398,3.58737 5.02106,6.86971 2.83709,7.97246 -2.18885,1.10521 -8.0997,-2.98938 -16.24451,-2.23852 -4.50652,1.7 -17.68599,1.37615 -21.20046,-3.1004 -6.11594,-7.8762 -5.96562,-12.55516 -6.12909,-12.47343 -4.46533,2.23261 -0.8487,14.76956 -8.06839,18.0757 -10.75978,4.92729 -14.08347,0.97263 -23.72631,-2.68142 -4.86622,-1.84401 -11.13242,-0.15352 -11.07308,-0.37109 7.08642,-6.18353 9.19787,-9.84668 8.73875,-11.71929 -1.06605,-4.34806 -1.12123,-7.35575 3.44761,-13.49094 4.89006,-6.56652 10.83367,-5.7938 10.83367,-5.7938 -3.13558,-1.24032 -9.7409,4.4237 -18.71051,-0.59853 -4.20648,-2.35528 -7.16887,-7.05604 -6.08122,-11.16863 1.08851,-4.11587 -4.65305,-4.84856 -7.80502,-9.26531 4.53005,-2.87095 8.93045,-0.9442 13.74258,-6.6078 3.0899,-3.63663 12.78147,-8.25512 20.88922,-0.45489"
       id="path2074-0"
       sodipodi:nodetypes="csscsssssssssssssscccsscssssscsc" />
    <path
       style="opacity:0.23;fill:#ff5599;fill-opacity:1;stroke:none;stroke-width:468.741;stroke-dasharray:none;stroke-opacity:1;filter:url(#filter14754)"
       d="m 100.68843,37.230286 0.0408,0.286287 c 0.48278,-0.0941 0.9652,-0.189089 1.44901,-0.279569 -0.49653,-0.0029 -0.9933,-0.0052 -1.48983,-0.0067 z"
       id="path15224" />
  </g>
</svg>
