<?xml version="1.0" encoding="UTF-8" standalone="no"?>
<!-- Created with Inkscape (http://www.inkscape.org/) -->

<svg
   width="400"
   height="150"
   viewBox="0 0 105.83319 39.687497"
   version="1.1"
   id="svg5"
   inkscape:version="1.2.2 (732a01da63, 2022-12-09)"
   sodipodi:docname="garden.svg"
   xmlns:inkscape="http://www.inkscape.org/namespaces/inkscape"
   xmlns:sodipodi="http://sodipodi.sourceforge.net/DTD/sodipodi-0.dtd"
   xmlns="http://www.w3.org/2000/svg"
   xmlns:svg="http://www.w3.org/2000/svg">
  <sodipodi:namedview
     id="namedview7"
     pagecolor="#505050"
     bordercolor="#eeeeee"
     borderopacity="1"
     inkscape:showpageshadow="0"
     inkscape:pageopacity="0"
     inkscape:pagecheckerboard="0"
     inkscape:deskcolor="#505050"
     inkscape:document-units="mm"
     showgrid="false"
     inkscape:zoom="0.96459612"
     inkscape:cx="452.521"
     inkscape:cy="302.19902"
     inkscape:window-width="1368"
     inkscape:window-height="842"
     inkscape:window-x="-6"
     inkscape:window-y="-6"
     inkscape:window-maximized="1"
     inkscape:current-layer="layer1"
     showguides="false" />
  <defs
     id="defs2" />
  <g
     inkscape:label="Layer 1"
     inkscape:groupmode="layer"
     id="layer1">
    <path
       style="opacity:0.76;fill:#000000;stroke-width:468.741"
       id="path320"
       d="m 3.3166575,25.143477 c 2.248396,-1.062839 4.5697477,-2.055349 6.9816705,-2.690405 2.35498,-0.620064 4.445532,-0.92456 6.850996,-1.34053 3.953662,-0.561192 7.951397,-0.658598 11.937241,-0.531765 2.126591,0.06767 4.378328,0.206412 6.499698,0.493919 0.936972,0.126987 1.865916,0.307454 2.798871,0.46118 3.137511,0.578307 5.935742,2.08789 8.725122,3.554333 2.735416,1.438071 2.04288,1.07556 4.709218,2.398966 2.096272,1.076264 4.170331,2.194478 6.257194,3.28872 0.0851,0.07289 1.115947,-1.130564 1.030849,-1.203457 v 0 c -0.604824,-0.390983 -1.193977,-0.807352 -1.814476,-1.172953 -0.66993,-0.394724 -3.671802,-1.964296 -4.349665,-2.321124 -0.733575,-0.414311 -1.455703,-0.849585 -2.200727,-1.242935 -2.327746,-1.228974 -2.619957,-1.276028 -4.999246,-2.333612 -2.154492,-0.957665 -4.295677,-1.951082 -6.537447,-2.696408 -0.940112,-0.25255 -1.86604,-0.565537 -2.820339,-0.757648 -6.639276,-1.336558 -13.496026,-1.220803 -20.14374,-0.0356 -1.213596,0.286073 -2.442456,0.51376 -3.64079,0.858215 -3.4076408,0.979514 -6.9888149,2.507827 -9.6460978,4.913056 -0.025318,0.02558 0.3363503,0.383625 0.3616683,0.35805 z" />
    <path
       style="opacity:0.76;fill:#000000;stroke-width:468.741"
       id="path322"
       d="m 40.847704,20.32954 c 1.864217,-0.695196 3.622336,-1.644465 5.485651,-2.346262 1.479015,-0.557056 2.486501,-0.830908 3.976412,-1.27467 2.378202,-0.731739 4.83884,-1.129193 7.286654,-1.542018 0.769614,-0.129794 1.535617,-0.286538 2.310693,-0.378251 1.746388,-0.206647 2.881865,-0.17971 4.632616,-0.206594 2.689754,0.100589 5.34145,0.580943 7.979473,1.079415 0.882234,0.166704 1.767297,0.321337 2.642719,0.520742 1.538049,0.350341 3.595698,0.957419 5.115031,1.389772 3.919767,1.255712 7.930385,2.323306 11.730637,3.924334 0.771723,0.325123 1.526709,0.688621 2.290064,1.032931 2.772923,1.388692 5.481849,2.899399 8.216646,4.360619 0.0757,0.0607 0.93418,-1.010021 0.85846,-1.070724 v 0 c -0.47131,-0.368774 -0.92733,-0.757981 -1.41395,-1.106321 -2.094286,-1.499169 -4.362762,-2.732508 -6.728201,-3.747381 -1.718828,-0.715491 -2.906493,-1.227751 -4.639307,-1.880502 -3.138257,-1.182177 -6.344025,-2.174147 -9.534686,-3.201823 -5.316275,-1.583563 -10.619755,-2.953578 -16.218251,-2.890708 -0.794448,0.0044 -1.589537,-0.01881 -2.383348,0.01336 -4.161589,0.168589 -8.270557,0.92116 -12.255359,2.120317 -0.876618,0.301615 -1.764247,0.572945 -2.62985,0.904846 -2.517849,0.965433 -4.917834,2.289741 -7.052947,3.935809 -0.02566,0.02339 0.305168,0.386512 0.330843,0.363117 z" />
    <path
       style="opacity:0.76;fill:#000000;stroke-width:98.5827"
       id="path418"
       d="m 21.535629,18.596208 c -0.301694,-0.254264 -0.6189,-0.495784 -0.840172,-0.893642 -0.07386,-0.132734 -0.127716,-0.284962 -0.191574,-0.427443 -0.215905,-0.672613 -0.313944,-1.39993 -0.225475,-2.132379 0.03956,-0.327472 0.120902,-0.632214 0.194644,-0.946129 0.195048,-0.777428 0.264084,-1.596609 0.188066,-2.415481 -0.02073,-0.222727 -0.06321,-0.440438 -0.0947,-0.660662 -0.0034,-0.02319 -0.23815,0.05235 -0.234329,0.07554 v 0 c 0.05783,0.431082 0.125934,0.845047 0.134216,1.286369 0.0034,0.194015 -0.01154,0.388088 -0.02622,0.581082 -0.04337,0.570497 -0.05626,0.547823 -0.167042,1.078461 -0.05559,0.251003 -0.168621,0.734171 -0.201929,0.995024 -0.07374,0.577867 -0.04853,1.171819 0.08383,1.730606 0.04584,0.193407 0.11643,0.373543 0.174651,0.560326 0.07587,0.150126 0.141927,0.310941 0.227627,0.45038 0.24585,0.400004 0.586355,0.65281 0.943827,0.796393 0.0045,0.0034 0.03866,-0.07497 0.03474,-0.07841 z" />
    <path
       style="opacity:0.76;fill:#000000;stroke-width:98.5827"
       id="path420"
       d="m 20.044213,11.868074 c 0.02914,0.543806 0.05133,1.088404 0.0011,1.631509 -0.04685,0.506415 -0.08495,0.641135 -0.178809,1.135725 -0.20119,0.901552 -0.51426,1.766424 -0.602717,2.712049 -0.01412,0.151182 -0.01479,0.304237 -0.02208,0.456349 0.02757,0.558604 -0.009,0.295283 0.100976,0.792444 0.0022,0.01148 0.11699,-0.01929 0.115433,-0.03077 v 0 c -0.03284,-0.47807 -0.01984,-0.228949 -0.03676,-0.747556 0.02802,-0.40392 0.02208,-0.489792 0.101312,-0.892942 0.149211,-0.759025 0.409574,-1.468559 0.553317,-2.230454 0.03541,-0.197666 0.07834,-0.393013 0.106131,-0.59301 0.104001,-0.745765 0.09784,-1.530024 -0.08002,-2.252565 -0.0011,-0.0057 -0.05884,0.01343 -0.05783,0.01917 z" />
    <path
       style="opacity:0.76;fill:#000000;stroke-width:98.5827"
       id="path426"
       d="m 20.836845,11.41456 c 0.281847,0.08404 0.5721,0.164098 0.861556,0.163581 0.0121,0.0034 0.02443,0.01561 0.03631,0.01033 0.06915,-0.0279 0.05122,-0.08736 0.09918,-0.136936 0.06007,-0.06211 0.09851,-0.07944 0.170874,-0.126902 0.20342,-0.114573 0.414763,-0.198459 0.623518,-0.291506 0.009,-3.21e-4 0.0056,-0.182914 -0.0034,-0.182604 v 0 c -0.242589,0.0791 -0.483015,0.177473 -0.701844,0.348333 -0.07677,0.07164 -0.11754,0.09597 -0.173575,0.191065 -0.0121,0.02055 -0.02006,0.04535 -0.02858,0.06911 -0.0022,0.0046 -0.0056,0.01561 -0.0011,0.01561 0.01199,-2.75e-4 0.03586,3.22e-4 0.03418,-0.0163 -0.0022,-0.01642 -0.0232,0.0069 -0.03474,0.01033 -0.287641,-0.05912 -0.579686,-0.09609 -0.869916,-0.112162 -0.0034,-0.0011 -0.01524,0.05591 -0.01233,0.05717 z" />
    <path
       style="opacity:0.76;fill:#000000;stroke-width:98.5827"
       id="path430"
       d="m 19.965136,11.628344 c -0.371773,-0.02732 -0.747188,-0.04317 -1.1184,0.008 -0.105795,0.01469 -0.21066,0.03949 -0.315984,0.05924 -0.0427,0.02124 -0.335316,0.06314 -0.355926,0.188046 -0.0158,0.0954 0.02903,0.109177 0.08192,0.09517 0.01423,-0.0046 0.02342,-0.02376 0.03519,-0.03559 -0.0034,-0.03249 0.0045,-0.07209 -0.01009,-0.09758 -0.04393,-0.07474 -0.209393,-0.119475 -0.252193,-0.13037 -0.219995,-0.05602 -0.439049,-0.05166 -0.661274,-0.04179 -0.349908,0.05051 -0.701205,0.06096 -1.051269,0.108947 -0.06623,0.01033 -0.132916,0.02675 -0.199879,0.01584 -0.01289,-0.0023 0.0269,0.0023 0.03866,-0.0046 0.04214,-0.02721 0.08047,-0.0644 0.12014,-0.09793 0.14252,-0.120404 0.27055,-0.235206 0.411714,-0.360088 0.0078,-0.01148 -0.102544,-0.176474 -0.11095,-0.16551 v 0 c -0.123816,0.11688 -0.457607,0.396951 -0.516781,0.601792 -0.04214,0.145661 0.02746,0.203831 0.109717,0.217745 0.06657,0.01148 0.134104,-0.0011 0.201156,-0.0023 0.321375,-0.04787 0.639678,-0.143158 0.964807,-0.113883 0.215983,0.0011 0.432437,-0.0011 0.648341,0.008 0.05323,0.0023 0.106355,0.008 0.159477,0.01194 0.02365,0.0023 0.04741,0.01251 0.07083,0.0069 0.01009,-0.0023 0.01603,-0.01906 0.02398,-0.0287 -0.01681,0.02112 -0.0034,-0.0011 -0.0078,0.0326 -0.009,0.07462 -0.03351,0.07347 0.03609,0.07152 0.07598,-0.0023 0.276523,-0.03283 0.330508,-0.04041 0.06029,-0.008 0.482543,-0.06521 0.506605,-0.06796 0.28067,-0.03214 0.563291,-0.03949 0.842134,-0.0985 0.0067,0.0023 0.02712,-0.139117 0.01995,-0.141092 z" />
    <path
       style="opacity:0.76;fill:#000000;stroke-width:98.5827"
       id="path432"
       d="m 17.413955,10.816292 c 0.352093,-0.173971 0.656567,-0.476222 0.968494,-0.753744 -0.02903,0.0046 -0.06198,-0.0069 -0.08708,0.01401 -0.0399,0.03329 -0.06601,0.09173 -0.09717,0.139932 -0.08932,0.138337 -0.248976,0.391337 -0.201537,0.605259 0.01479,0.06705 0.06108,0.111473 0.09156,0.167267 0.0622,0.03237 0.121104,0.08116 0.186441,0.09712 0.441414,0.108029 0.945475,-0.08013 1.347249,-0.330939 0.105459,0.195657 0.05133,-0.109292 0.08764,-0.09735 0.0078,0.0023 -0.0078,0.02698 -0.0011,0.03329 0.03026,0.02916 0.06578,0.0473 0.100863,0.0628 0.163041,0.07221 0.275751,0.08174 0.451153,0.116547 0.303544,0.03352 0.608847,0.07072 0.913702,0.06957 0.103554,-3.9e-4 0.207029,-0.01033 0.310537,-0.01527 0.009,-0.0034 -0.02746,-0.185405 -0.03665,-0.181777 v 0 c -0.382341,0.0092 -0.762821,-0.038 -1.145028,-0.05005 -0.146364,-0.0057 -0.308744,-0.0069 -0.456173,-0.03169 -0.03295,-0.0057 -0.06579,-0.01401 -0.0975,-0.02721 -0.02791,-0.01148 -0.0678,-0.05717 -0.104001,-0.04512 -0.02768,0.0092 -0.05413,0.02411 -0.08125,0.03616 -0.230249,0.101944 -0.463032,0.180182 -0.701126,0.239179 -0.09806,0.02422 -0.41956,0.09586 -0.54082,0.09333 -0.05536,-0.0011 -0.109494,-0.02422 -0.164218,-0.03628 -0.02331,-0.02916 -0.06085,-0.04558 -0.06982,-0.08748 -0.01009,-0.04925 0.0056,-0.104125 0.0186,-0.152044 0.04057,-0.144846 0.119994,-0.261347 0.182193,-0.386113 0.02858,-0.05717 0.06948,-0.108259 0.0808,-0.176118 0.009,-0.05223 -0.0167,-0.104585 -0.0251,-0.1569687 -0.128053,0.02089 -0.05436,-0.0057 -0.216006,0.1285547 -0.254625,0.210696 -0.509149,0.42238 -0.756343,0.649768 -0.0034,0.0046 0.03788,0.07944 0.04169,0.07531 z" />
    <path
       style="opacity:0.76;fill:#000000;stroke-width:98.5827"
       id="path434"
       d="m 18.896406,10.083155 c 0.468557,-0.2013277 0.951896,-0.3477007 1.437264,-0.4441347 0.01367,-6.77e-4 0.05133,0.01033 0.04113,-0.0023 -0.06724,-0.08357 -0.194701,0.05488 -0.230205,0.07864 -0.129621,0.08679 -0.353113,0.241842 -0.471449,0.3552087 -0.05962,0.05717 -0.111062,0.129703 -0.16657,0.194543 -0.0056,0.06727 -0.039,0.141494 -0.01703,0.201903 0.07856,0.216091 0.320141,0.221671 0.446143,0.25843 0.01121,0.0057 0.06758,-0.208618 0.05671,-0.21422 v 0 c -0.09235,-0.0023 -0.184793,-1.95e-4 -0.277072,-0.0057 -0.04147,-0.0023 -0.08932,0.01355 -0.123951,-0.01848 -0.01681,-0.0155 0.01009,-0.05442 0.01524,-0.08162 0.35643,-0.329458 -0.03384,0.02537 0.402861,-0.348711 0.04505,-0.03857 0.330833,-0.2805527 0.37871,-0.3734047 0.02432,-0.04718 0.04539,-0.122804 0.02275,-0.171549 -0.02219,-0.04776 -0.07957,-0.02422 -0.119366,-0.03628 -0.492171,0.06888 -0.990695,0.203429 -1.426976,0.5440237 -0.0034,0.0034 0.02869,0.06727 0.03194,0.06406 z" />
    <path
       style="opacity:0.76;fill:#000000;stroke-width:98.5827"
       id="path442"
       d="m 20.801734,9.1192433 c 0.170179,-0.07267 0.337725,-0.157164 0.505607,-0.239489 0.0975,-0.04787 0.239002,-0.153731 0.348697,-0.113769 -0.174864,0.197322 -0.356419,0.382486 -0.537155,0.569109 -0.06354,0.06567 -0.132838,0.121839 -0.190543,0.197356 -0.0427,0.05591 -0.07206,0.128957 -0.108036,0.19343 0.0045,0.05488 -0.01401,0.12332 0.01222,0.164442 0.08316,0.1301047 0.268444,0.08312 0.359793,0.05625 0.289602,-0.08495 0.544216,-0.286729 0.795232,-0.494751 0.165192,-0.13922 0.305673,-0.324453 0.461855,-0.480733 0.05749,-0.05752 0.08069,-0.0915 0.144628,-0.0675 0.07811,0.111129 0.125026,0.268281 0.11225,0.425789 -0.0045,0.05109 -0.01603,0.100452 -0.02398,0.150644 -0.03104,0.250854 -0.181914,0.437648 -0.225554,0.6802357 -0.0056,0.02893 -0.0034,0.05958 -0.0045,0.08932 0.02835,0.08576 0.0078,0.05281 0.05985,0.101944 0.0022,0.0023 0.01961,-0.03008 0.01793,-0.0318 v 0 c -0.03441,-0.0287 -0.02219,-0.008 -0.03441,-0.06509 0.05816,-0.2690957 0.222932,-0.4793777 0.253045,-0.7667387 0.02566,-0.263747 0.02432,-0.47287 -0.129206,-0.657942 -0.01916,-0.0092 -0.03721,-0.02732 -0.05749,-0.02801 -0.187046,-0.0069 -0.502671,0.404528 -0.668166,0.509342 -0.227571,0.175268 -0.450065,0.349469 -0.697137,0.467015 -0.06085,0.02893 -0.123547,0.04994 -0.185869,0.07198 -0.03003,0.01033 -0.06097,0.03605 -0.09123,0.02617 -0.01278,-0.0046 0.0022,-0.03639 0.0034,-0.05453 0.176456,-0.191226 0.365956,-0.355382 0.532695,-0.56439 0.07408,-0.09287 0.226966,-0.290323 0.260554,-0.445478 0.01121,-0.05097 -0.009,-0.105847 -0.01311,-0.158748 -0.02791,-0.01998 -0.05256,-0.05591 -0.08372,-0.06004 -0.07834,-0.01033 -0.267614,0.08266 -0.326104,0.111358 -0.175257,0.0861 -0.34826,0.186622 -0.505697,0.325774 -0.0045,0.0011 0.01009,0.09035 0.01434,0.08886 z" />
    <path
       style="opacity:0.76;fill:#000000;stroke-width:98.5827"
       id="path444"
       d="m 22.616844,10.333113 c -0.253302,0.02319 -0.506459,0.0419 -0.75882,0.08163 -0.03015,0.01194 -0.11308,0.0287 -0.121709,0.09506 -0.02869,0.220052 0.424804,0.246514 0.49885,0.25579 0.4243,0.0155 0.830344,-0.1607 1.227388,-0.348504 0.235439,-0.09598 0.466002,-0.255928 0.715158,-0.269406 0.05514,-0.0023 0.110278,0.0046 0.165428,0.0069 0.287943,0.0504 0.446199,0.222854 0.637492,0.50568 0.0034,0.0057 0.05469,-0.0535 0.05178,-0.05866 v 0 c -0.19163,-0.324235 -0.363154,-0.510249 -0.67321,-0.562691 -0.0585,-2.75e-4 -0.117035,-0.0057 -0.175424,-6.77e-4 -0.251117,0.01917 -0.487811,0.150287 -0.729021,0.235941 -0.390376,0.154926 -0.781235,0.329252 -1.192008,0.322594 -0.16192,-0.0057 -0.196931,-1.38e-4 -0.349,-0.02606 -0.03003,-0.0057 -0.05917,-0.0194 -0.08943,-0.02181 -0.009,-6.77e-4 -0.01726,0.0092 -0.02611,0.01251 -0.0034,6.77e-4 -0.01121,6.43e-4 -0.0078,-1.26e-4 0.01984,-0.0057 0.04001,-0.01033 0.06007,-0.01515 0.257192,-0.03674 0.520637,-0.02675 0.768952,-0.144146 0.0034,-2.06e-4 0.0022,-0.06945 -0.0022,-0.06922 z" />
    <path
       style="opacity:0.76;fill:#000000;stroke-width:155.958"
       id="path418-0"
       d="m 35.633272,19.094604 c -0.51169,-0.37521 -1.04968,-0.73159 -1.42498,-1.31868 -0.12522,-0.19588 -0.21661,-0.4205 -0.32492,-0.63075 -0.36617,-0.99252 -0.53245,-2.06578 -0.38241,-3.1466 0.0671,-0.48322 0.20506,-0.9329 0.33013,-1.39612 0.3308,-1.1472 0.4479,-2.356 0.31896,-3.5643397 -0.0351,-0.32867 -0.10714,-0.64993 -0.16071,-0.9749 -0.006,-0.0342 -0.4039,0.0772 -0.39742,0.11139 v 0 c 0.0981,0.63611 0.21358,1.24697 0.22763,1.8981997 0.006,0.28629 -0.0196,0.57267 -0.0445,0.85746 -0.0736,0.84183 -0.0954,0.80837 -0.28331,1.5914 -0.0942,0.37039 -0.28599,1.08335 -0.34248,1.46827 -0.12513,0.85272 -0.0823,1.72918 0.14211,2.55374 0.0777,0.28539 0.19747,0.55121 0.2962,0.82682 0.12869,0.22153 0.24072,0.45884 0.38607,0.66459 0.41698,0.59027 0.99448,0.96331 1.60077,1.17519 0.007,0.005 0.0656,-0.11061 0.0589,-0.11567 z" />
    <path
       style="opacity:0.76;fill:#000000;stroke-width:155.958"
       id="path420-8"
       d="m 33.103752,9.1664043 c 0.0494,0.80245 0.087,1.6060597 0.002,2.4074897 -0.0794,0.74727 -0.14404,0.94608 -0.30326,1.6759 -0.34124,1.33036 -0.87222,2.60658 -1.02225,4.00197 -0.024,0.22308 -0.025,0.44893 -0.0375,0.67339 0.0468,0.82429 -0.0158,0.43574 0.17133,1.16936 0.003,0.0168 0.19841,-0.0285 0.19577,-0.0454 v 0 c -0.0556,-0.70545 -0.0336,-0.33785 -0.0624,-1.10311 0.0476,-0.59604 0.0374,-0.72276 0.17186,-1.31766 0.25308,-1.12003 0.69466,-2.16703 0.93846,-3.29131 0.06,-0.29168 0.13276,-0.57993 0.18006,-0.87505 0.17635,-1.10047 0.16595,-2.25774 -0.13574,-3.3239497 -0.002,-0.008 -0.0998,0.0199 -0.0981,0.0283 z" />
    <path
       style="opacity:0.76;fill:#000000;stroke-width:155.958"
       id="path426-3"
       d="m 34.448102,8.4971843 c 0.47803,0.12399 0.97031,0.24214 1.46123,0.24138 0.0205,0.005 0.0414,0.0231 0.0616,0.016 0.1173,-0.0411 0.0869,-0.12898 0.16819,-0.20208 0.10183,-0.0916 0.16708,-0.11718 0.28981,-0.18725 0.34501,-0.169 0.70346,-0.29286 1.05752,-0.43015 0.0157,-4.8e-4 0.0103,-0.26991 -0.005,-0.26946 v 0 c -0.41144,0.1167 -0.81921,0.26189 -1.19037,0.514 -0.13022,0.10579 -0.19935,0.1416 -0.29439,0.28194 -0.0205,0.0303 -0.0341,0.0669 -0.0484,0.10206 -0.003,0.007 -0.009,0.0231 -0.002,0.023 0.0204,-4e-4 0.0608,4.8e-4 0.0579,-0.024 -0.003,-0.0242 -0.0393,0.0105 -0.0589,0.0158 -0.48785,-0.0873 -0.98316,-0.14176 -1.47541,-0.16548 -0.005,-0.002 -0.0259,0.0825 -0.021,0.0843 z" />
    <path
       style="opacity:0.76;fill:#000000;stroke-width:155.958"
       id="path430-6"
       d="m 32.969642,8.8126443 c -0.63054,-0.0404 -1.26726,-0.0637 -1.89686,0.0124 -0.17935,0.0217 -0.35728,0.0583 -0.53592,0.0874 -0.0725,0.0314 -0.56872,0.0932 -0.60367,0.27749 -0.0267,0.14075 0.0492,0.16114 0.13891,0.14049 0.0241,-0.006 0.0397,-0.035 0.0596,-0.0525 -0.006,-0.048 0.008,-0.10646 -0.0176,-0.14397 -0.0744,-0.11031 -0.35514,-0.1763 -0.42772,-0.19238 -0.37313,-0.0827 -0.74466,-0.0763 -1.12155,-0.0616 -0.59346,0.0745 -1.18928,0.09 -1.78301,0.16074 -0.11233,0.0145 -0.22542,0.0394 -0.339,0.0233 -0.0218,-0.003 0.0456,0.004 0.0655,-0.007 0.0714,-0.0401 0.13649,-0.095 0.20377,-0.14442 0.24171,-0.17767 0.45887,-0.34708 0.69829,-0.53136 0.0142,-0.0162 -0.17396,-0.2604 -0.18816,-0.24423 v 0 c -0.21001,0.17248 -0.77613,0.58576 -0.87649,0.88802 -0.0714,0.21495 0.0466,0.30078 0.18615,0.32132 0.1129,0.0166 0.22744,-0.002 0.34116,-0.004 0.54506,-0.0706 1.08492,-0.21125 1.63635,-0.16801 0.36632,0.002 0.73344,-0.002 1.09962,0.0113 0.0903,0.003 0.18036,0.0111 0.27049,0.0177 0.0401,0.003 0.0805,0.0185 0.12011,0.0107 0.0176,-0.003 0.0271,-0.0282 0.0407,-0.0423 -0.0285,0.0311 -0.006,-0.002 -0.0136,0.0481 -0.0159,0.11006 -0.0569,0.1084 0.0611,0.10551 0.12891,-0.003 0.469,-0.0485 0.56056,-0.0596 0.10234,-0.012 0.81842,-0.0963 0.85923,-0.10037 0.47603,-0.0475 0.95536,-0.0583 1.4283,-0.14535 0.0121,0.003 0.046,-0.20528 0.0339,-0.20819 z" />
    <path
       style="opacity:0.76;fill:#000000;stroke-width:155.958"
       id="path432-5"
       d="m 28.642722,7.6143643 c 0.59717,-0.25671 1.11357,-0.70272 1.64261,-1.11224 -0.0492,0.007 -0.10509,-0.0103 -0.14759,0.0206 -0.0677,0.0492 -0.11193,0.13529 -0.16477,0.20649 -0.1515,0.20413 -0.42228,0.57746 -0.34182,0.89313 0.0252,0.099 0.10356,0.16454 0.15535,0.24682 0.10541,0.0478 0.20541,0.1197 0.31622,0.1433 0.74865,0.15947 1.60357,-0.11822 2.28499,-0.48834 0.17891,0.28871 0.087,-0.16119 0.14867,-0.14373 0.0131,0.004 -0.0132,0.0398 -0.002,0.0491 0.0514,0.0431 0.11153,0.0697 0.17103,0.0927 0.27653,0.1066 0.46769,0.12069 0.76518,0.17198 0.51483,0.0495 1.03262,0.10431 1.54967,0.10273 0.17567,-5.9e-4 0.35113,-0.015 0.5267,-0.0226 0.0156,-0.005 -0.0466,-0.27359 -0.0622,-0.26825 v 0 c -0.64846,0.0139 -1.29378,-0.0561 -1.94202,-0.0738 -0.24824,-0.009 -0.52365,-0.0105 -0.7737,-0.0468 -0.0558,-0.008 -0.11151,-0.0207 -0.16544,-0.0401 -0.0473,-0.017 -0.11499,-0.0844 -0.17647,-0.0666 -0.0469,0.0136 -0.0918,0.0356 -0.13774,0.0534 -0.39052,0.15034 -0.78533,0.26587 -1.18915,0.35293 -0.16632,0.0358 -0.71159,0.14153 -0.91725,0.13776 -0.094,-0.002 -0.18568,-0.0357 -0.27852,-0.0535 -0.0395,-0.043 -0.10319,-0.0673 -0.11836,-0.12902 -0.0179,-0.0727 0.009,-0.1537 0.0315,-0.22435 0.0688,-0.21374 0.20351,-0.38566 0.309,-0.56976 0.0484,-0.0844 0.11783,-0.15968 0.13714,-0.25988 0.0148,-0.077 -0.0283,-0.15442 -0.0425,-0.23163 -0.21718,0.0309 -0.0921,-0.008 -0.36636,0.1897 -0.43184,0.3109 -0.86354,0.62327 -1.28279,0.95881 -0.006,0.006 0.0643,0.11728 0.0707,0.1112 z" />
    <path
       style="opacity:0.76;fill:#000000;stroke-width:155.958"
       id="path434-7"
       d="m 31.157032,6.5325243 c 0.79468,-0.29709 1.61445,-0.51307 2.43765,-0.65538 0.0232,-0.001 0.087,0.0148 0.0697,-0.004 -0.11395,-0.12336 -0.33021,0.081 -0.39042,0.11606 -0.21985,0.12809 -0.5989,0.35688 -0.7996,0.52417 -0.10123,0.0844 -0.18834,0.19138 -0.28251,0.28707 -0.01,0.0993 -0.0661,0.20878 -0.0289,0.29792 0.13333,0.31888 0.54297,0.32712 0.75668,0.38135 0.0184,0.008 0.11453,-0.30784 0.0961,-0.3161 v 0 c -0.15664,-0.003 -0.31341,-2.9e-4 -0.46992,-0.009 -0.0704,-0.004 -0.1514,0.0199 -0.21024,-0.0272 -0.0285,-0.0228 0.0172,-0.0803 0.0259,-0.12047 0.60451,-0.48616 -0.0575,0.0374 0.68326,-0.51457 0.0764,-0.0569 0.56111,-0.41399 0.64232,-0.551 0.0413,-0.0696 0.0769,-0.18121 0.0385,-0.25315 -0.0376,-0.0704 -0.13497,-0.0357 -0.20245,-0.0535 -0.83474,0.10164 -1.68026,0.30017 -2.42022,0.80276 -0.005,0.005 0.0487,0.0993 0.0542,0.0946 z" />
    <path
       style="opacity:0.76;fill:#000000;stroke-width:155.958"
       id="path442-6"
       d="m 34.388542,5.1101543 c 0.28863,-0.1072 0.5728,-0.23191 0.85753,-0.3534 0.16538,-0.0706 0.40537,-0.22685 0.59141,-0.16793 -0.29657,0.29118 -0.60449,0.56441 -0.91104,0.83979 -0.10784,0.0969 -0.2253,0.17979 -0.32316,0.29123 -0.0725,0.0825 -0.12217,0.19029 -0.18326,0.28543 0.007,0.0809 -0.0237,0.18198 0.0208,0.24265 0.14097,0.19199 0.45528,0.12267 0.61023,0.0831 0.49117,-0.12538 0.92301,-0.42311 1.34875,-0.73007 0.28016,-0.20543 0.51843,-0.47877 0.78331,-0.70938 0.0975,-0.0849 0.13677,-0.13502 0.24531,-0.0997 0.13241,0.16406 0.21205,0.39589 0.19037,0.6283 -0.007,0.0754 -0.0271,0.1482 -0.0406,0.2223 -0.0527,0.37017 -0.30853,0.64581 -0.38255,1.00378 -0.009,0.0427 -0.005,0.0879 -0.008,0.13181 0.0481,0.12649 0.0127,0.078 0.1015,0.15041 0.003,0.003 0.0332,-0.0443 0.0305,-0.0469 v 0 c -0.0584,-0.0424 -0.0377,-0.0116 -0.0583,-0.0961 0.0987,-0.39708 0.37809,-0.70738 0.42917,-1.13142 0.0435,-0.38918 0.0413,-0.69777 -0.21913,-0.97086 -0.0325,-0.0138 -0.0632,-0.0403 -0.0976,-0.0414 -0.31724,-0.01 -0.85254,0.59693 -1.13324,0.7516 -0.38596,0.25864 -0.76332,0.51569 -1.18238,0.68915 -0.10322,0.0427 -0.20954,0.0736 -0.31524,0.10615 -0.051,0.0157 -0.10338,0.0531 -0.15467,0.0387 -0.0216,-0.006 0.004,-0.0537 0.006,-0.0805 0.29927,-0.28217 0.62067,-0.52441 0.90348,-0.83283 0.12571,-0.13709 0.38494,-0.42841 0.4419,-0.65736 0.0187,-0.0752 -0.0148,-0.15616 -0.0222,-0.23425 -0.0473,-0.0295 -0.0891,-0.0825 -0.14206,-0.0886 -0.13283,-0.0154 -0.45389,0.12201 -0.55309,0.1644 -0.29724,0.12703 -0.59067,0.27537 -0.85768,0.48071 -0.008,0.002 0.0166,0.13325 0.0243,0.13116 z" />
    <path
       style="opacity:0.76;fill:#000000;stroke-width:155.958"
       id="path444-2"
       d="m 37.467062,6.9013743 c -0.42962,0.0342 -0.85898,0.0618 -1.28699,0.12043 -0.0512,0.0176 -0.19179,0.0424 -0.20644,0.14031 -0.0486,0.32472 0.7205,0.36377 0.84608,0.37745 0.71963,0.0229 1.4083,-0.23713 2.08171,-0.51425 0.39931,-0.14161 0.79036,-0.37766 1.21294,-0.39754 0.0935,-0.004 0.18704,0.007 0.28057,0.0109 0.48836,0.0743 0.75678,0.32885 1.08122,0.7462 0.005,0.008 0.0928,-0.079 0.0878,-0.0866 v 0 c -0.32502,-0.47846 -0.61594,-0.75294 -1.1418,-0.83033 -0.0992,-4e-4 -0.1985,-0.008 -0.29753,-0.001 -0.4259,0.0283 -0.82734,0.22178 -1.23646,0.34817 -0.66209,0.2286 -1.325,0.48585 -2.0217,0.47602 -0.27461,-0.008 -0.33399,-2e-4 -0.59192,-0.0384 -0.051,-0.008 -0.10044,-0.0286 -0.15168,-0.0322 -0.0156,-10e-4 -0.0292,0.0137 -0.0443,0.0184 -0.005,10e-4 -0.0189,9.5e-4 -0.0142,-2e-4 0.0337,-0.009 0.0679,-0.0148 0.10181,-0.0223 0.4362,-0.0543 0.88302,-0.0394 1.30417,-0.21271 0.006,-3e-4 0.003,-0.1025 -0.003,-0.10222 z" />
    <path
       style="opacity:0.76;fill:#000000;stroke-width:155.958"
       id="path418-4"
       d="m 17.086756,19.672366 c -0.51169,-0.37521 -1.04968,-0.73159 -1.42498,-1.31868 -0.12522,-0.19588 -0.21661,-0.4205 -0.32492,-0.63075 -0.36617,-0.99252 -0.53245,-2.06578 -0.38241,-3.1466 0.0671,-0.48322 0.20506,-0.9329 0.33013,-1.39612 0.3308,-1.1472 0.4479,-2.356 0.31896,-3.5643397 -0.0351,-0.32867 -0.10714,-0.64993 -0.16071,-0.9749 -0.006,-0.0342 -0.4039,0.0772 -0.39742,0.11139 v 0 c 0.0981,0.63611 0.21358,1.24697 0.22763,1.8981997 0.006,0.28629 -0.0196,0.57267 -0.0445,0.85746 -0.0736,0.84183 -0.0954,0.80837 -0.28331,1.5914 -0.0942,0.37039 -0.28599,1.08335 -0.34248,1.46827 -0.12513,0.85272 -0.0823,1.72918 0.14211,2.55374 0.0777,0.28539 0.19747,0.55121 0.2962,0.82682 0.12869,0.22153 0.24072,0.45884 0.38607,0.66459 0.41698,0.59027 0.99448,0.96331 1.60077,1.17519 0.007,0.005 0.0656,-0.11061 0.0589,-0.11567 z" />
    <path
       style="opacity:0.76;fill:#000000;stroke-width:155.958"
       id="path420-1"
       d="m 14.557236,9.7441663 c 0.0494,0.8024497 0.087,1.6060597 0.002,2.4074897 -0.0794,0.74727 -0.14404,0.94608 -0.30326,1.6759 -0.34124,1.33036 -0.87222,2.60658 -1.02225,4.00197 -0.024,0.22308 -0.025,0.44893 -0.0375,0.67339 0.0468,0.82429 -0.0158,0.43574 0.17133,1.16936 0.003,0.0168 0.19841,-0.0285 0.19577,-0.0454 v 0 c -0.0556,-0.70545 -0.0336,-0.33785 -0.0624,-1.10311 0.0476,-0.59604 0.0374,-0.72276 0.17186,-1.31766 0.25308,-1.12003 0.69466,-2.16703 0.93846,-3.29131 0.06,-0.29168 0.13276,-0.57993 0.18006,-0.87505 0.17635,-1.10047 0.16595,-2.25774 -0.13574,-3.3239497 -0.002,-0.008 -0.0998,0.0199 -0.0981,0.0283 z" />
    <path
       style="opacity:0.76;fill:#000000;stroke-width:155.958"
       id="path426-0"
       d="m 15.901586,9.0749463 c 0.47803,0.12399 0.97031,0.24214 1.46123,0.24138 0.0205,0.005 0.0414,0.0231 0.0616,0.016 0.1173,-0.0411 0.0869,-0.12898 0.16819,-0.20208 0.10183,-0.0916 0.16708,-0.11718 0.28981,-0.18725 0.34501,-0.169 0.70346,-0.29286 1.05752,-0.43015 0.0157,-4.8e-4 0.0103,-0.26991 -0.005,-0.26946 v 0 c -0.41144,0.1167 -0.81921,0.26189 -1.19037,0.514 -0.13022,0.10579 -0.19935,0.1416 -0.29439,0.28194 -0.0205,0.0303 -0.0341,0.0669 -0.0484,0.10206 -0.003,0.007 -0.009,0.0231 -0.002,0.023 0.0204,-4e-4 0.0608,4.8e-4 0.0579,-0.024 -0.003,-0.0242 -0.0393,0.0105 -0.0589,0.0158 -0.48785,-0.0873 -0.98316,-0.14176 -1.47541,-0.16548 -0.005,-0.002 -0.0259,0.0825 -0.021,0.0843 z" />
    <path
       style="opacity:0.76;fill:#000000;stroke-width:155.958"
       id="path430-1"
       d="m 14.423126,9.3904063 c -0.63054,-0.0404 -1.26726,-0.0637 -1.89686,0.0124 -0.17935,0.0217 -0.35728,0.0583 -0.53592,0.0874 -0.0725,0.0314 -0.56872,0.0932 -0.60367,0.27749 -0.0267,0.14075 0.0492,0.16114 0.13891,0.14049 0.0241,-0.006 0.0397,-0.035 0.0596,-0.0525 -0.006,-0.048 0.008,-0.10646 -0.0176,-0.14397 -0.0744,-0.11031 -0.35514,-0.1763 -0.42772,-0.19238 -0.37313,-0.0827 -0.74466,-0.0763 -1.12155,-0.0616 -0.5934605,0.0745 -1.1892805,0.09 -1.7830105,0.16074 -0.11233,0.0145 -0.22542,0.0394 -0.339,0.0233 -0.0218,-0.003 0.0456,0.004 0.0655,-0.007 0.0714,-0.0401 0.13649,-0.095 0.20377,-0.14442 0.24171,-0.17767 0.45887,-0.34708 0.69829,-0.53136 0.0142,-0.0162 -0.17396,-0.2604 -0.18816,-0.24423 v 0 c -0.21001,0.17248 -0.77613,0.58576 -0.87649,0.88802 -0.0714,0.21495 0.0466,0.30078 0.18615,0.32132 0.1129,0.0166 0.22744,-0.002 0.34116,-0.004 0.54506,-0.0706 1.08492,-0.21125 1.63635,-0.16801 0.3663205,0.002 0.7334405,-0.002 1.0996205,0.0113 0.0903,0.003 0.18036,0.0111 0.27049,0.0177 0.0401,0.003 0.0805,0.0185 0.12011,0.0107 0.0176,-0.003 0.0271,-0.0282 0.0407,-0.0423 -0.0285,0.0311 -0.006,-0.002 -0.0136,0.0481 -0.0159,0.11006 -0.0569,0.1084 0.0611,0.10551 0.12891,-0.003 0.469,-0.0485 0.56056,-0.0596 0.10234,-0.012 0.81842,-0.0963 0.85923,-0.10037 0.47603,-0.0475 0.95536,-0.0583 1.4283,-0.14535 0.0121,0.003 0.046,-0.20528 0.0339,-0.20819 z" />
    <path
       style="opacity:0.76;fill:#000000;stroke-width:155.958"
       id="path432-0"
       d="m 10.096206,8.1921263 c 0.59717,-0.25671 1.11357,-0.70272 1.64261,-1.11224 -0.0492,0.007 -0.10509,-0.0103 -0.14759,0.0206 -0.0677,0.0492 -0.11193,0.13529 -0.16477,0.20649 -0.1515,0.20413 -0.42228,0.57746 -0.34182,0.89313 0.0252,0.099 0.10356,0.16454 0.15535,0.24682 0.10541,0.0478 0.20541,0.1197 0.31622,0.1433 0.74865,0.15947 1.60357,-0.11822 2.28499,-0.48834 0.17891,0.28871 0.087,-0.16119 0.14867,-0.14373 0.0131,0.004 -0.0132,0.0398 -0.002,0.0491 0.0514,0.0431 0.11153,0.0697 0.17103,0.0927 0.27653,0.1066 0.46769,0.12069 0.76518,0.17198 0.51483,0.0495 1.03262,0.10431 1.54967,0.10273 0.17567,-5.9e-4 0.35113,-0.015 0.5267,-0.0226 0.0156,-0.005 -0.0466,-0.27359 -0.0622,-0.26825 v 0 c -0.64846,0.0139 -1.29378,-0.0561 -1.94202,-0.0738 -0.24824,-0.009 -0.52365,-0.0105 -0.7737,-0.0468 -0.0558,-0.008 -0.11151,-0.0207 -0.16544,-0.0401 -0.0473,-0.017 -0.11499,-0.0844 -0.17647,-0.0666 -0.0469,0.0136 -0.0918,0.0356 -0.13774,0.0534 -0.39052,0.15034 -0.78533,0.26587 -1.18915,0.35293 -0.16632,0.0358 -0.71159,0.14153 -0.91725,0.13776 -0.094,-0.002 -0.18568,-0.0357 -0.27852,-0.0535 -0.0395,-0.043 -0.10319,-0.0673 -0.11836,-0.12902 -0.0179,-0.0727 0.009,-0.1537 0.0315,-0.22435 0.0688,-0.21374 0.20351,-0.38566 0.309,-0.56976 0.0484,-0.0844 0.11783,-0.15968 0.13714,-0.25988 0.0148,-0.077 -0.0283,-0.15442 -0.0425,-0.23163 -0.21718,0.0309 -0.0921,-0.008 -0.36636,0.1897 -0.43184,0.3109 -0.86354,0.62327 -1.28279,0.95881 -0.006,0.006 0.0643,0.11728 0.0707,0.1112 z" />
    <path
       style="opacity:0.76;fill:#000000;stroke-width:155.958"
       id="path434-77"
       d="m 12.610516,7.1102863 c 0.79468,-0.29709 1.61445,-0.51307 2.43765,-0.65538 0.0232,-0.001 0.087,0.0148 0.0697,-0.004 -0.11395,-0.12336 -0.33021,0.081 -0.39042,0.11606 -0.21985,0.12809 -0.5989,0.35688 -0.7996,0.52417 -0.10123,0.0844 -0.18834,0.19138 -0.28251,0.28707 -0.01,0.0993 -0.0661,0.20878 -0.0289,0.29792 0.13333,0.31888 0.54297,0.32712 0.75668,0.38135 0.0184,0.008 0.11453,-0.30784 0.0961,-0.3161 v 0 c -0.15664,-0.003 -0.31341,-2.9e-4 -0.46992,-0.009 -0.0704,-0.004 -0.1514,0.0199 -0.21024,-0.0272 -0.0285,-0.0228 0.0172,-0.0803 0.0259,-0.12047 0.60451,-0.48616 -0.0575,0.0374 0.68326,-0.51457 0.0764,-0.0569 0.56111,-0.41399 0.64232,-0.551 0.0413,-0.0696 0.0769,-0.18121 0.0385,-0.25315 -0.0376,-0.0704 -0.13497,-0.0357 -0.20245,-0.0535 -0.83474,0.10164 -1.68026,0.30017 -2.42022,0.80276 -0.005,0.005 0.0487,0.0993 0.0542,0.0946 z" />
    <path
       style="opacity:0.76;fill:#000000;stroke-width:155.958"
       id="path442-5"
       d="m 15.842026,5.6879163 c 0.28863,-0.1072 0.5728,-0.23191 0.85753,-0.3534 0.16538,-0.0706 0.40537,-0.22685 0.59141,-0.16793 -0.29657,0.29118 -0.60449,0.56441 -0.91104,0.83979 -0.10784,0.0969 -0.2253,0.17979 -0.32316,0.29123 -0.0725,0.0825 -0.12217,0.19029 -0.18326,0.28543 0.007,0.0809 -0.0237,0.18198 0.0208,0.24265 0.14097,0.19199 0.45528,0.12267 0.61023,0.0831 0.49117,-0.12538 0.92301,-0.42311 1.34875,-0.73007 0.28016,-0.20543 0.51843,-0.47877 0.78331,-0.70938 0.0975,-0.0849 0.13677,-0.13502 0.24531,-0.0997 0.13241,0.16406 0.21205,0.39589 0.19037,0.6283 -0.007,0.0754 -0.0271,0.1482 -0.0406,0.2223 -0.0527,0.37017 -0.30853,0.64581 -0.38255,1.00378 -0.009,0.0427 -0.005,0.0879 -0.008,0.13181 0.0481,0.12649 0.0127,0.078 0.1015,0.15041 0.003,0.003 0.0332,-0.0443 0.0305,-0.0469 v 0 c -0.0584,-0.0424 -0.0377,-0.0116 -0.0583,-0.0961 0.0987,-0.39708 0.37809,-0.70738 0.42917,-1.13142 0.0435,-0.38918 0.0413,-0.69777 -0.21913,-0.97086 -0.0325,-0.0138 -0.0632,-0.0403 -0.0976,-0.0414 -0.31724,-0.01 -0.85254,0.59693 -1.13324,0.7516 -0.38596,0.25864 -0.76332,0.51569 -1.18238,0.68915 -0.10322,0.0427 -0.20954,0.0736 -0.31524,0.10615 -0.051,0.0157 -0.10338,0.0531 -0.15467,0.0387 -0.0216,-0.006 0.004,-0.0537 0.006,-0.0805 0.29927,-0.28217 0.62067,-0.52441 0.90348,-0.83283 0.12571,-0.13709 0.38494,-0.42841 0.4419,-0.65736 0.0187,-0.0752 -0.0148,-0.15616 -0.0222,-0.23425 -0.0473,-0.0295 -0.0891,-0.0825 -0.14206,-0.0886 -0.13283,-0.0154 -0.45389,0.12201 -0.55309,0.1644 -0.29724,0.12703 -0.59067,0.27537 -0.85768,0.48071 -0.008,0.002 0.0166,0.13325 0.0243,0.13116 z" />
    <path
       style="opacity:0.76;fill:#000000;stroke-width:155.958"
       id="path444-4"
       d="m 18.920546,7.4791363 c -0.42962,0.0342 -0.85898,0.0618 -1.28699,0.12043 -0.0512,0.0176 -0.19179,0.0424 -0.20644,0.14031 -0.0486,0.32472 0.7205,0.36377 0.84608,0.37745 0.71963,0.0229 1.4083,-0.23713 2.08171,-0.51425 0.39931,-0.14161 0.79036,-0.37766 1.21294,-0.39754 0.0935,-0.004 0.18704,0.007 0.28057,0.0109 0.48836,0.0743 0.75678,0.32885 1.08122,0.7462 0.005,0.008 0.0928,-0.079 0.0878,-0.0866 v 0 c -0.32502,-0.47846 -0.61594,-0.75294 -1.1418,-0.83033 -0.0992,-4e-4 -0.1985,-0.008 -0.29753,-0.001 -0.4259,0.0283 -0.82734,0.22178 -1.23646,0.34817 -0.66209,0.2286 -1.325,0.48585 -2.0217,0.47602 -0.27461,-0.008 -0.33399,-2e-4 -0.59192,-0.0384 -0.051,-0.008 -0.10044,-0.0286 -0.15168,-0.0322 -0.0156,-10e-4 -0.0292,0.0137 -0.0443,0.0184 -0.005,10e-4 -0.0189,9.5e-4 -0.0142,-2e-4 0.0337,-0.009 0.0679,-0.0148 0.10181,-0.0223 0.4362,-0.0543 0.88302,-0.0394 1.30417,-0.21271 0.006,-3e-4 0.003,-0.1025 -0.003,-0.10222 z" />
  </g>
</svg>
