<?xml version="1.0" encoding="UTF-8" standalone="no"?>
<!-- Created with Inkscape (http://www.inkscape.org/) -->

<svg
   width="360"
   height="530"
   viewBox="0 0 95.249926 140.22833"
   version="1.1"
   id="svg5"
   inkscape:version="1.2.2 (732a01da63, 2022-12-09)"
   sodipodi:docname="heart.svg"
   xmlns:inkscape="http://www.inkscape.org/namespaces/inkscape"
   xmlns:sodipodi="http://sodipodi.sourceforge.net/DTD/sodipodi-0.dtd"
   xmlns="http://www.w3.org/2000/svg"
   xmlns:svg="http://www.w3.org/2000/svg">
  <sodipodi:namedview
     id="namedview7"
     pagecolor="#505050"
     bordercolor="#eeeeee"
     borderopacity="1"
     inkscape:showpageshadow="0"
     inkscape:pageopacity="0"
     inkscape:pagecheckerboard="0"
     inkscape:deskcolor="#505050"
     inkscape:document-units="mm"
     showgrid="false"
     inkscape:zoom="0.68"
     inkscape:cx="355.14706"
     inkscape:cy="340.44118"
     inkscape:window-width="1368"
     inkscape:window-height="842"
     inkscape:window-x="-6"
     inkscape:window-y="-6"
     inkscape:window-maximized="1"
     inkscape:current-layer="layer1"
     showguides="true" />
  <defs
     id="defs2" />
  <g
     inkscape:label="Layer 1"
     inkscape:groupmode="layer"
     id="layer1">
    <path
       style="opacity:0.63;fill:#000000;stroke-width:202.995"
       id="path4100"
       d="m 13.821472,48.787741 c -0.39054,-0.08437 -0.96868,-0.196347 -1.31185,-0.344372 -1.65567,-0.714144 -3.20624,-1.955767 -4.24445,-3.423923 -0.6572,-0.929362 -1.128,-1.977406 -1.69201,-2.966109 C 6.109577,40.757042 5.466241,39.51157 5.182405,38.164449 4.562837,35.223906 4.571096,31.070414 5.431067,28.19675 c 1.133185,-3.786641 3.663805,-7.556537 6.590215,-10.167191 1.90431,-1.69883 4.18608,-2.919974 6.27913,-4.37996 6.02004,-3.04216 8.16022,-4.5590384 14.79367,-6.1589215 2.35936,-0.5690399 4.78694,-0.8541408 7.2073,-1.0335873 5.41095,-0.4011684 10.72844,-0.2652874 16.02941,1.0108594 2.53588,0.610479 4.93618,1.687449 7.40425,2.531174 5.222,2.9772164 8.54262,4.4566604 12.96055,8.5473354 3.15355,2.919953 6.38413,7.190433 8.25349,11.089104 2.22778,4.646182 2.39728,7.165278 3.33271,12.073296 0.005,1.814094 0.23535,3.641527 0.0157,5.442278 -0.45807,3.755189 -2.12089,8.063964 -3.67999,11.451556 -0.80867,1.757076 -1.66605,3.50171 -2.70105,5.135731 -2.61459,4.127744 -4.48922,5.732165 -7.8589,9.258565 -6.82034,6.527516 -14.73686,11.698313 -22.3624,17.200117 -6.69641,4.83143 -6.02295,4.400441 -12.28219,9.308719 -8.30001,6.544045 -16.24241,13.602405 -22.94407,21.812265 -5.13699,6.29307 -6.16445,8.35977 -10.536099,15.23048 -0.157099,0.29778 4.054059,2.51952 4.211149,2.22174 v 0 c 1.61174,-2.54911 3.12545,-5.16289 4.83518,-7.64732 1.68408,-2.44715 3.50014,-4.8025 5.33842,-7.13604 3.44151,-4.36868 7.09342,-8.64988 11.08548,-12.53313 3.88041,-3.77464 6.55505,-5.68719 10.80049,-9.01242 1.98622,-1.42259 3.98676,-2.825405 5.95867,-4.267785 4.30002,-3.145286 8.5783,-6.409944 12.794,-9.667329 2.47586,-1.91305 8.54057,-6.620237 11.0008,-8.740494 1.68791,-1.454654 3.28557,-3.010884 4.92834,-4.516315 3.91059,-4.281236 5.02717,-5.122006 8.126,-10.011415 3.49131,-5.508677 5.82655,-11.415839 6.57704,-17.924955 0.22767,-1.974543 0.11707,-3.973523 0.17559,-5.960285 -0.89344,-6.107038 -0.66882,-7.45508 -3.35079,-13.299585 -3.23337,-7.046104 -8.55741,-13.113511 -14.95442,-17.465604 -2.40855,-1.6386094 -5.07913,-2.8542914 -7.61869,-4.2814367 -6.98607,-2.4584646 -8.9298,-3.6415801 -16.38804,-4.2731734 -9.13526,-0.7736134 -18.42419,0.9746716 -26.77069,4.7334293 -2.59595,1.1690564 -4.98985,2.7429844 -7.48477,4.1144768 -2.1209,1.77732 -4.45104,3.331289 -6.36268,5.331958 -5.983089,6.261729 -8.58115897,14.483488 -6.132414,22.894812 0.421141,1.446599 1.231141,2.750325 1.84671,4.12549 0.75332,1.024436 1.408019,2.129298 2.259964,3.073309 1.3549,1.501318 3.30001,2.751351 5.28531,3.226818 0.62979,0.150827 0.98961,0.091 1.58618,0.04943 0.0563,0.01004 0.19808,-0.784976 0.14187,-0.795006 z" />
  </g>
</svg>
