<?xml version="1.0" encoding="UTF-8" standalone="no"?>
<!-- Created with Inkscape (http://www.inkscape.org/) -->

<svg
   width="360"
   height="540"
   viewBox="0 0 95.249926 142.87422"
   version="1.1"
   id="svg5"
   inkscape:version="1.2.2 (732a01da63, 2022-12-09)"
   sodipodi:docname="heartL.svg"
   xmlns:inkscape="http://www.inkscape.org/namespaces/inkscape"
   xmlns:sodipodi="http://sodipodi.sourceforge.net/DTD/sodipodi-0.dtd"
   xmlns="http://www.w3.org/2000/svg"
   xmlns:svg="http://www.w3.org/2000/svg">
  <sodipodi:namedview
     id="namedview7"
     pagecolor="#505050"
     bordercolor="#eeeeee"
     borderopacity="1"
     inkscape:showpageshadow="0"
     inkscape:pageopacity="0"
     inkscape:pagecheckerboard="0"
     inkscape:deskcolor="#505050"
     inkscape:document-units="mm"
     showgrid="false"
     inkscape:zoom="0.68"
     inkscape:cx="388.97059"
     inkscape:cy="338.97059"
     inkscape:window-width="1368"
     inkscape:window-height="842"
     inkscape:window-x="-6"
     inkscape:window-y="-6"
     inkscape:window-maximized="1"
     inkscape:current-layer="layer1"
     showguides="true" />
  <defs
     id="defs2" />
  <g
     inkscape:label="Layer 1"
     inkscape:groupmode="layer"
     id="layer1">
    <path
       style="opacity:0.63;fill:#000000;stroke-width:202.995"
       id="path4100-8"
       d="m 79.900055,49.234859 c 0.390537,-0.08437 0.968669,-0.196341 1.311843,-0.344368 1.655665,-0.714141 3.206237,-1.955767 4.244448,-3.423926 0.657202,-0.929363 1.128007,-1.9774 1.692007,-2.966104 0.46359,-1.296298 1.106929,-2.54177 1.390762,-3.888891 0.619569,-2.940543 0.611309,-7.094036 -0.248661,-9.967699 C 87.157265,24.85723 84.626651,21.087334 81.700235,18.476679 79.795933,16.777851 77.514152,15.556707 75.421108,14.096721 69.401069,11.05456 67.260879,9.5376824 60.627431,7.937799 58.268075,7.3687602 55.840504,7.0836583 53.420141,6.9042128 48.009183,6.5030444 42.69169,6.6389243 37.390721,7.9150711 c -2.535873,0.6104794 -4.93617,1.6874491 -7.404246,2.5311739 -5.222006,2.977216 -8.542619,4.456659 -12.960553,8.547336 -3.153549,2.919952 -6.384127,7.190433 -8.2534889,11.089103 -2.2277801,4.646183 -2.3972749,7.165277 -3.3327137,12.073297 -0.00528,1.814094 -0.2353465,3.641525 -0.015674,5.442274 0.4580698,3.75519 2.1208966,8.063967 3.6799914,11.451558 0.8086705,1.757079 1.6660452,3.501717 2.7010532,5.135727 2.614581,4.127744 4.489224,5.732166 7.858902,9.258565 6.820339,6.527527 14.736863,11.698324 22.362398,17.200117 6.696413,4.831441 6.02295,4.400441 12.282199,9.308721 8.300004,6.544047 16.242408,13.602417 22.944063,21.812277 5.136989,6.29307 6.16445,8.35978 10.536102,15.23049 0.157096,0.29776 -4.054062,2.5195 -4.211158,2.22174 v 0 c -1.61173,-2.54912 -3.125443,-5.1629 -4.835174,-7.64733 -1.684078,-2.44715 -3.500145,-4.8025 -5.338423,-7.13604 -3.441508,-4.36869 -7.093415,-8.64989 -11.085474,-12.53312 -3.880412,-3.77465 -6.555054,-5.68721 -10.800492,-9.01243 C 49.531811,101.46594 47.53127,100.06312 45.55936,98.620743 41.259329,95.475456 36.981051,92.210798 32.765363,88.953412 30.289492,87.040353 24.224792,82.333166 21.764561,80.212919 20.07665,78.758254 18.478992,77.202035 16.836215,75.696593 12.925625,71.415367 11.80905,70.574598 8.7102221,65.685178 5.2189131,60.176507 2.883666,54.269345 2.1331735,47.760226 1.9055079,45.785684 2.0161118,43.786703 1.9575809,41.799941 2.8510288,35.692906 2.6264008,34.344863 5.3083709,28.500358 8.5417475,21.454253 13.865783,15.386848 20.262804,11.034755 22.671345,9.3961464 25.341929,8.1804641 27.881491,6.7533189 34.867558,4.2948532 36.811293,3.1117388 44.269525,2.4801445 53.40479,1.706531 62.693723,3.454816 71.040218,7.2135738 c 2.595948,1.1690574 4.989846,2.7429851 7.48477,4.1144782 2.120896,1.777318 4.451043,3.331288 6.362689,5.331957 5.983081,6.261728 8.581152,14.483488 6.132413,22.894811 -0.421142,1.446598 -1.231147,2.750327 -1.846716,4.125487 -0.75332,1.02444 -1.408016,2.129306 -2.25996,3.07331 -1.3549,1.501321 -3.300016,2.751356 -5.285322,3.22682 -0.629777,0.150825 -0.989604,0.091 -1.586173,0.04943 -0.05626,0.01004 -0.198074,-0.784974 -0.141861,-0.795002 z" />
  </g>
</svg>
