<?xml version="1.0" encoding="UTF-8" standalone="no"?>
<!-- Created with Inkscape (http://www.inkscape.org/) -->

<svg
   width="1920"
   height="1080"
   viewBox="0 0 507.99998 285.75"
   version="1.1"
   id="svg5"
   inkscape:version="1.2.2 (732a01da63, 2022-12-09)"
   sodipodi:docname="land.svg"
   xmlns:inkscape="http://www.inkscape.org/namespaces/inkscape"
   xmlns:sodipodi="http://sodipodi.sourceforge.net/DTD/sodipodi-0.dtd"
   xmlns="http://www.w3.org/2000/svg"
   xmlns:svg="http://www.w3.org/2000/svg">
  <sodipodi:namedview
     id="namedview7"
     pagecolor="#505050"
     bordercolor="#eeeeee"
     borderopacity="1"
     inkscape:showpageshadow="0"
     inkscape:pageopacity="0"
     inkscape:pagecheckerboard="0"
     inkscape:deskcolor="#505050"
     inkscape:document-units="mm"
     showgrid="false"
     inkscape:zoom="0.90028971"
     inkscape:cx="1522.2878"
     inkscape:cy="783.63664"
     inkscape:window-width="1368"
     inkscape:window-height="842"
     inkscape:window-x="-6"
     inkscape:window-y="-6"
     inkscape:window-maximized="1"
     inkscape:current-layer="layer1"
     showguides="false" />
  <defs
     id="defs2">
    <filter
       inkscape:collect="always"
       style="color-interpolation-filters:sRGB"
       id="filter14754"
       x="-1.7971362"
       y="-9.3522493"
       width="4.5942723"
       height="19.704499">
      <feGaussianBlur
         inkscape:collect="always"
         stdDeviation="1.1155947"
         id="feGaussianBlur14756" />
    </filter>
  </defs>
  <g
     inkscape:label="Layer 1"
     inkscape:groupmode="layer"
     id="layer1">
    <path
       style="opacity:0.23;fill:#ff5599;fill-opacity:1;stroke:none;stroke-width:468.741;stroke-dasharray:none;stroke-opacity:1;filter:url(#filter14754)"
       d="m 100.68843,37.230286 0.0408,0.286287 c 0.48278,-0.0941 0.9652,-0.189089 1.44901,-0.279569 -0.49653,-0.0029 -0.9933,-0.0052 -1.48983,-0.0067 z"
       id="path15224" />
    <path
       style="opacity:0.75;fill:#020303;fill-opacity:1;stroke-width:468.741;stroke-dasharray:none"
       d="m 508.32954,199.23143 c -0.40746,-0.59047 -1.7453,-1.52675 -4.4972,-2.95813 l -16.87745,-8.77897 c -8.73403,-4.68243 -17.14844,-11.00672 -26.5405,-12.72532 -3.13586,-0.56809 -9.60693,-1.92427 -12.58723,-2.53905 -6.34136,-0.76004 -8.89056,-1.25771 -15.3162,-1.25048 -4.57914,0.005 -12.4387,0.56619 -16.88117,1.36173 -7.4427,1.33278 -10.44922,2.63886 -17.49528,5.03223 -2.48015,1.1102 -4.99708,2.14178 -7.44046,3.33084 -9.20535,4.47974 -17.73186,10.29737 -25.05113,17.46431 -1.81642,1.94901 -3.06229,3.2219 -4.39645,4.77715 0.18726,-0.20955 0.37833,-0.41584 0.57167,-0.61993 l 2.97528,2.62574 c 1.03263,-1.03405 1.81924,-1.71355 4.22907,-3.90853 1.35713,-1.14029 2.67019,-2.33502 4.07129,-3.42077 6.0224,-4.6669 13.64059,-9.53948 20.79422,-12.17005 2.45581,-0.90307 4.99993,-1.54595 7.49971,-2.31893 9.35393,-2.55174 7.31487,-2.23932 17.05664,-3.88783 5.75273,-0.97345 9.94255,-1.62894 15.75379,-1.75349 6.27014,-0.13439 8.01978,0.31582 14.19081,1.09775 21.43473,2.87816 31.83182,12.1984 50.74141,20.51206 0.24261,-0.0658 10.65441,2.23847 9.19918,0.12967 z"
       id="path3155" />
    <path
       style="opacity:0.75;fill:#020303;fill-opacity:1;stroke-width:468.741;stroke-dasharray:none"
       id="path3887"
       d="m 305.37699,208.39521 c 2.538,-1.17359 5.26099,-1.89357 7.8421,-2.94966 1.25283,-0.51261 7.17413,-3.30559 8.19327,-3.76226 1.52716,-0.68432 3.07133,-1.33 4.60699,-1.995 5.89159,-2.34945 12.12542,-4.3365 18.55533,-3.9597 3.85958,0.22617 4.3577,0.62615 7.98417,1.76967 6.06272,2.4082 10.56989,7.24786 15.72839,11.03724 3.88153,2.85134 5.03713,3.28547 9.29778,5.59467 1.77818,0.70688 3.49612,1.58972 5.33451,2.12065 9.5263,2.75125 21.61714,2.25216 31.27952,0.63298 2.89324,-0.48484 5.73038,-1.25942 8.59557,-1.88912 0.46068,-0.0854 1.668,6.42957 1.20732,6.51494 v 0 c -3.07756,0.73045 -6.11262,1.67154 -9.23266,2.19136 -8.73873,1.45593 -17.8961,1.28964 -26.53889,-0.71147 -5.51203,-1.27623 -7.58341,-2.46761 -12.55602,-4.69424 -5.0839,-2.93672 -5.10396,-2.71219 -9.67586,-6.2646 -4.78975,-3.72168 -8.87418,-8.399 -14.31094,-11.23487 -2.78157,-0.882 -3.9938,-1.48439 -6.9705,-1.54178 -5.8327,-0.11243 -11.92335,2.76396 -17.41862,4.35547 -4.45587,1.59998 -8.88412,3.07296 -13.46404,4.27867 -2.57558,0.67806 -3.75661,1.04349 -6.34291,1.32302 -0.66155,0.0715 -1.32997,0.047 -1.99497,0.0705 -0.0627,0.009 -0.18222,-0.87799 -0.11958,-0.88644 z" />
    <path
       style="opacity:0.75;fill:#020303;fill-opacity:1;stroke-width:468.741;stroke-dasharray:none"
       id="path3939"
       d="m 478.37245,182.15355 c 2.23916,-1.46553 4.12224,-3.38285 6.27822,-4.97193 0.70498,-0.5196 1.37707,-1.09675 2.14651,-1.51503 0.75833,-0.41225 1.60344,-0.63956 2.40516,-0.95933 2.87854,-0.37696 5.89306,-0.16017 8.65446,0.80263 1.16859,0.40744 2.2786,0.96926 3.3923,1.50901 1.64156,0.79556 7.13342,3.72995 8.62982,4.524 4.67721,2.346 8.82343,5.53328 12.90491,8.76742 1.61467,1.27946 3.14482,2.66829 4.81261,3.87771 1.64908,1.19585 3.41665,2.21912 5.12498,3.32868 0.26292,0.13467 2.16705,-3.58392 1.90411,-3.71856 v 0 c -7.05431,-5.93398 -2.27878,-2.08505 -9.61871,-7.59064 -1.46827,-1.10133 -2.87969,-2.27946 -4.37912,-3.33798 -4.05935,-2.86573 -4.99039,-3.21891 -9.29696,-5.57629 -1.58191,-0.71798 -3.13633,-1.49987 -4.74569,-2.15396 -2.77568,-1.12813 -5.43634,-1.9474 -8.32968,-2.66187 -2.54303,-0.628 -4.12608,-1.01266 -6.77952,-0.7646 -1.09647,0.10252 -2.15423,0.45864 -3.23135,0.68796 -0.91524,0.41406 -1.87207,0.74636 -2.74573,1.24215 -3.18785,1.80908 -5.52903,4.7506 -7.73802,7.59441 -0.0647,0.0432 0.5469,0.95948 0.6117,0.91622 z" />
    <path
       style="opacity:0.75;fill:#020303;fill-opacity:1;stroke-width:333.606;stroke-dasharray:none"
       id="path5216-3"
       d="m 427.78403,256.01056 c 0.18912,0.20125 0.43929,0.35908 0.56735,0.60376 1.23553,2.36071 -1.27226,4.30188 -3.11629,5.21523 -0.72003,0.35663 -1.50163,0.5724 -2.25244,0.8586 -1.89858,0.38821 -2.19857,0.55989 -4.03306,0.55913 -0.36862,-1.5e-4 -0.788,0.0886 -1.1007,-0.10657 -0.14141,-0.0883 0.11248,-0.31465 0.18668,-0.46392 0.1666,-0.33515 0.19226,-0.8363 0.53471,-0.98732 0.41337,-0.1823 0.89741,0.10525 1.34612,0.15788 1.46405,0.28455 6.84196,0.99053 4.61931,3.76011 -0.33412,0.41634 -0.94581,0.49531 -1.41871,0.74296 -0.72154,0.14744 -1.43388,0.35082 -2.16462,0.44232 -3.03055,0.37948 -6.12534,0.0996 -9.15669,-0.0829 -3.68555,-0.22184 -2.67736,-0.15716 -6.14456,-0.44291 -2.15918,-0.17724 -4.26325,-0.0258 -6.36737,0.46482 -2.31304,0.53939 -1.80158,0.55106 -4.23027,1.1592 -0.93135,0.23321 -1.87329,0.42188 -2.80994,0.63282 -2.98023,0.45559 -5.99049,0.37643 -8.99111,0.31214 -0.67513,-0.0145 -1.35134,-0.002 -2.02538,-0.0431 -0.21246,-0.0129 -0.82299,-0.0337 -0.62756,-0.11805 0.27209,-0.11743 0.5927,0.004 0.88905,0.005 1.41016,0.61078 2.90723,0.99982 3.735,2.50456 1.04468,1.89905 0.38005,3.72797 -0.97135,5.276 -2.35288,2.69524 -5.8464,4.11678 -8.88642,5.73567 -8.15144,3.28392 -4.03339,1.91925 -12.34307,4.12734 -0.30416,0.16952 -2.70164,-4.13193 -2.39748,-4.30146 v 0 c 7.63408,-3.26685 3.68925,-1.78014 11.84756,-4.42536 1.8341,-0.55381 3.6754,-1.08429 5.5023,-1.66142 1.19436,-0.37731 2.40287,-0.72287 3.56033,-1.20155 0.48281,-0.19967 1.04839,-0.38526 1.33419,-0.82263 0.76742,-1.17443 -2.10792,-3.78076 -2.65871,-4.40732 -0.21985,-0.6034 -0.68298,-1.16843 -0.65953,-1.81021 0.0542,-1.48423 1.90806,-1.79911 2.88343,-1.98255 2.73274,-0.51396 5.86518,-0.12104 8.63264,-0.39092 0.91558,-0.0578 1.83586,-0.0643 2.74676,-0.17347 1.62445,-0.19461 2.81323,-0.58588 4.39158,-0.94821 2.23917,-0.51404 4.50126,-0.9748 6.80533,-1.0527 0.96243,-0.0134 1.92515,-0.0671 2.88731,-0.0401 4.76259,0.13327 9.46173,1.11102 14.229,1.1943 0.73408,0.0805 1.2861,-0.13136 1.36787,0.87809 0.01,0.12063 -0.2296,-0.0767 -0.34512,-0.11283 -1.41443,-0.4421 -2.86327,-0.75375 -4.25105,-1.28146 -0.42293,-0.17201 -0.93152,-0.20828 -1.26877,-0.51603 -0.41921,-0.38252 -0.76889,-0.89757 -0.88838,-1.45235 -0.22054,-1.02402 2.46005,-1.33654 2.83065,-1.42112 0.64282,-0.14669 1.28575,-0.29292 1.92862,-0.43938 1.88301,-0.50362 1.95729,-0.46929 3.692,-1.12627 0.96756,-0.36645 1.79423,-0.68489 1.48669,-1.85861 -0.0678,-0.0781 1.03626,-1.03743 1.1041,-0.95936 z" />
    <path
       style="opacity:0.75;fill:#020303;fill-opacity:1;stroke-width:333.606;stroke-dasharray:none"
       id="path5216-3-0"
       d="m 439.0088,261.91834 c 0.18912,0.20125 0.43929,0.35908 0.56735,0.60376 1.23553,2.36071 -1.27226,4.30188 -3.11629,5.21523 -0.72003,0.35663 -1.50163,0.5724 -2.25244,0.8586 -1.89858,0.38821 -2.19857,0.55989 -4.03306,0.55913 -0.36862,-1.5e-4 -0.788,0.0886 -1.1007,-0.10657 -0.14141,-0.0883 0.11248,-0.31465 0.18668,-0.46392 0.1666,-0.33515 0.19226,-0.8363 0.53471,-0.98732 0.41337,-0.1823 0.89741,0.10525 1.34612,0.15788 1.46405,0.28455 6.84196,0.99053 4.61931,3.76011 -0.33412,0.41634 -0.94581,0.49531 -1.41871,0.74296 -0.72154,0.14744 -1.43388,0.35082 -2.16462,0.44232 -3.03055,0.37948 -6.12534,0.0996 -9.15669,-0.0829 -3.68555,-0.22184 -2.67736,-0.15716 -6.14456,-0.44291 -2.15918,-0.17724 -4.26325,-0.0258 -6.36737,0.46482 -2.31304,0.53939 -1.80158,0.55106 -4.23027,1.1592 -0.93135,0.23321 -1.87329,0.42188 -2.80994,0.63282 -2.98023,0.45559 -5.99049,0.37643 -8.99111,0.31214 -0.67513,-0.0145 -1.35134,-0.002 -2.02538,-0.0431 -0.21246,-0.0129 -0.82299,-0.0337 -0.62756,-0.11805 0.27209,-0.11743 0.5927,0.004 0.88905,0.005 1.41016,0.61078 2.90723,0.99982 3.735,2.50456 1.04468,1.89905 0.38005,3.72797 -0.97135,5.276 -2.35288,2.69524 -5.8464,4.11678 -8.88642,5.73567 -8.15144,3.28392 -4.03339,1.91925 -12.34307,4.12734 -0.30416,0.16952 -2.70164,-4.13193 -2.39748,-4.30146 v 0 c 7.63408,-3.26685 3.68925,-1.78014 11.84756,-4.42536 1.8341,-0.55381 3.6754,-1.08429 5.5023,-1.66142 1.19436,-0.37731 2.40287,-0.72287 3.56033,-1.20155 0.48281,-0.19967 1.04839,-0.38526 1.33419,-0.82263 0.76742,-1.17443 -2.10792,-3.78076 -2.65871,-4.40732 -0.21985,-0.6034 -0.68298,-1.16843 -0.65953,-1.81021 0.0542,-1.48423 1.90806,-1.79911 2.88343,-1.98255 2.73274,-0.51396 5.86518,-0.12104 8.63264,-0.39092 0.91558,-0.0578 1.83586,-0.0643 2.74676,-0.17347 1.62445,-0.19461 2.81323,-0.58588 4.39158,-0.94821 2.23917,-0.51404 4.50126,-0.9748 6.80533,-1.0527 0.96243,-0.0134 1.92515,-0.0671 2.88731,-0.0401 4.76259,0.13327 9.46173,1.11102 14.229,1.1943 0.73408,0.0805 1.2861,-0.13136 1.36787,0.87809 0.01,0.12063 -0.2296,-0.0767 -0.34512,-0.11283 -1.41443,-0.4421 -2.86327,-0.75375 -4.25105,-1.28146 -0.42293,-0.17201 -0.93152,-0.20828 -1.26877,-0.51603 -0.41921,-0.38252 -0.76889,-0.89757 -0.88838,-1.45235 -0.22054,-1.02402 2.46005,-1.33654 2.83065,-1.42112 0.64282,-0.14669 1.28575,-0.29292 1.92862,-0.43938 1.88301,-0.50362 1.95729,-0.46929 3.692,-1.12627 0.96756,-0.36645 1.79423,-0.68489 1.48669,-1.85861 -0.0678,-0.0781 1.03626,-1.03743 1.1041,-0.95936 z" />
  </g>
</svg>
