<?xml version="1.0" encoding="UTF-8" standalone="no"?>
<!-- Created with Inkscape (http://www.inkscape.org/) -->

<svg
   width="400"
   height="450"
   viewBox="0 0 105.83319 119.06197"
   version="1.1"
   id="svg5"
   inkscape:version="1.2.2 (732a01da63, 2022-12-09)"
   sodipodi:docname="moonlookin.svg"
   xmlns:inkscape="http://www.inkscape.org/namespaces/inkscape"
   xmlns:sodipodi="http://sodipodi.sourceforge.net/DTD/sodipodi-0.dtd"
   xmlns="http://www.w3.org/2000/svg"
   xmlns:svg="http://www.w3.org/2000/svg">
  <sodipodi:namedview
     id="namedview7"
     pagecolor="#505050"
     bordercolor="#eeeeee"
     borderopacity="1"
     inkscape:showpageshadow="0"
     inkscape:pageopacity="0"
     inkscape:pagecheckerboard="0"
     inkscape:deskcolor="#505050"
     inkscape:document-units="mm"
     showgrid="false"
     inkscape:zoom="0.83972969"
     inkscape:cx="438.83169"
     inkscape:cy="338.7995"
     inkscape:window-width="1368"
     inkscape:window-height="842"
     inkscape:window-x="-6"
     inkscape:window-y="-6"
     inkscape:window-maximized="1"
     inkscape:current-layer="layer1"
     showguides="false" />
  <defs
     id="defs2" />
  <g
     inkscape:label="Layer 1"
     inkscape:groupmode="layer"
     id="layer1">
    <path
       style="opacity:1;fill:#000000;fill-opacity:1;stroke-width:178.131"
       id="path16662"
       d="m 71.626275,13.55629 c -0.12002,-0.181763 -0.266726,-0.348493 -0.360077,-0.545291 -0.798316,-1.682992 -1.379471,-4.1894338 -0.616416,-5.970286 0.211989,-0.4947546 0.615422,-0.8832602 0.923129,-1.324892 0.398447,-0.2225399 0.763577,-0.5197257 1.19533,-0.6676187 1.139204,-0.390224 2.013131,-0.3763537 3.117496,0.1430427 0.509621,0.2396776 1.002017,0.5574702 1.379505,0.9753946 1.041052,1.1525816 0.981935,1.9821479 1.258676,3.437836 -0.08247,2.4368664 -1.042787,4.6183074 -2.018774,6.8047174 -0.321059,0.719206 -0.686906,1.418327 -0.993476,2.143821 -0.269211,0.637058 -0.488486,1.294083 -0.73273,1.941122 -0.01541,0.06647 0.924545,0.284631 0.93996,0.218166 v 0 c 1.025637,-2.129619 2.173248,-4.226427 2.949257,-6.466073 0.279085,-0.805489 0.55874,-1.618639 0.703644,-2.458704 0.140928,-0.817011 0.09914,-1.655185 0.148695,-2.4827806 C 79.09766,7.5598726 79.155859,6.7416841 77.83681,5.4030033 76.507519,4.0539312 74.248089,3.463906 72.471098,4.2217939 71.832072,4.4943408 71.326772,5.0098773 70.754613,5.4039198 70.426126,5.9382638 69.991045,6.4202794 69.76915,7.006957 c -0.781098,2.0651191 -0.141475,4.607401 1.109982,6.345166 0.139614,0.193875 0.341031,0.334686 0.51155,0.50203 0.02106,0.01665 0.25666,-0.281206 0.235593,-0.297863 z" />
    <path
       style="opacity:1;fill:#000000;fill-opacity:1;stroke-width:270.621"
       id="path16664"
       d="m 70.391402,20.716601 c -0.81378,2.223066 -1.69045,4.420914 -2.77309,6.52732 -1.87839,3.158716 -4.23242,6.01031 -5.81365,9.34787 -0.41524,0.87645 -0.74866,1.78938 -1.12298,2.68407 -1.66265,4.68199 -2.10893,9.65504 -1.36155,14.56431 0.13748,0.90306 0.35652,1.7918 0.53478,2.6877 0.97223,3.03077 0.33502,1.62553 1.86463,4.236722 0.0269,0.0527 0.77218,-0.32826 0.74525,-0.38096 v 0 c -1.0046,-2.652382 -0.55007,-1.261842 -1.3374,-4.180092 -0.41072,-2.25898 -0.62323,-3.0244 -0.74268,-5.3447 -0.19752,-3.83682 0.37484,-7.63395 1.63539,-11.2612 1.03987,-2.58159 0.95217,-2.56783 2.24238,-4.985 1.29864,-2.432943 2.97295,-4.638554 4.17099,-7.127674 0.98416,-2.158529 1.87967,-4.367889 2.21066,-6.735074 0.002,-0.01786 -0.25038,-0.05116 -0.25273,-0.03329 z" />
    <path
       style="opacity:1;fill:#000000;fill-opacity:1;stroke-width:201.978"
       id="path16672"
       d="m 77.660742,26.894822 c 0.76887,2.307416 1.12007,4.714521 1.79859,7.046412 0.21668,0.744642 0.47082,1.47876 0.70624,2.218136 1.11939,3.295387 3.1119,5.838936 5.75745,8.159676 1.2059,1.057842 3.06393,2.388993 4.35865,3.345365 2.89427,2.195538 5.88268,4.476261 7.64201,7.67096 0.24747,0.449365 0.41907,0.933607 0.62861,1.400414 0.45166,1.090342 0.49126,2.214113 0.49162,3.364833 0.005,0.04922 0.72965,-0.01441 0.72497,-0.06363 v 0 c 0.0374,-0.364774 0.11097,-0.727792 0.11212,-1.094321 0.004,-1.098255 -0.17352,-1.544856 -0.42961,-2.629362 -0.58619,-1.414798 -0.66487,-1.805731 -1.56942,-3.118555 -1.77334,-2.573732 -4.30229,-4.538795 -6.78576,-6.444695 -3.43378,-2.529815 -7.05727,-5.034949 -9.0253,-8.871701 -0.34459,-0.671802 -0.56624,-1.39555 -0.84936,-2.093321 -0.24963,-0.719163 -0.51702,-1.432869 -0.74888,-2.157495 -0.74127,-2.31657 -1.2046,-4.791911 -2.54779,-6.881364 -0.011,-0.01794 -0.27509,0.130719 -0.26414,0.14865 z" />
    <path
       style="opacity:1;fill:#000000;fill-opacity:1;stroke-width:270.621"
       id="path16674"
       d="m 72.444062,39.479071 c 0.10166,0.40237 0.19599,0.80666 0.30497,1.2071 0.47652,1.75094 0.71968,2.24593 1.01412,4.2004 0.63526,4.21678 0.73613,8.51947 0.91264,12.77096 0.009,5.629602 0.0413,11.280132 -0.57163,16.885122 -0.24528,2.24285 -0.37203,2.70624 -0.76939,4.78033 -0.42309,2.15059 -1.45431,4.11803 -1.99246,6.23375 -0.12677,0.49836 -0.19439,1.00992 -0.29158,1.51488 -0.006,0.0562 0.78776,0.14636 0.79414,0.0902 v 0 c 0.9437,-2.56213 1.80106,-5.15598 2.71907,-7.72761 0.19777,-0.71077 0.42257,-1.41458 0.5933,-2.13233 1.54853,-6.51023 1.73288,-13.27859 1.53053,-19.935542 -0.1128,-1.61257 -0.1728,-3.2297 -0.33839,-4.8377 -0.46863,-4.55076 -1.38653,-9.12816 -3.48779,-13.2276 -0.0126,-0.0295 -0.43012,0.14851 -0.41753,0.17803 z" />
    <path
       style="opacity:1;fill:#000000;fill-opacity:1;stroke-width:270.621"
       id="path16682"
       d="m 79.343692,58.503081 c 1.77977,3.374662 3.70602,6.677632 5.3767,10.110012 0.56991,1.17087 1.08796,2.36628 1.63194,3.54942 2.21779,4.62167 3.77145,9.52213 5.88834,14.18575 1.1351,2.50068 1.53683,3.14278 2.80007,5.4543 0.37447,0.60869 0.74895,1.21739 1.12343,1.82609 0.0435,0.0707 1.04301,-0.54459 0.9995,-0.61527 v 0 c -0.29498,-0.64407 -0.58996,-1.28815 -0.88494,-1.93222 -0.79454,-1.72238 -1.7573,-3.77655 -2.48627,-5.50586 -2.00241,-4.75022 -3.61075,-9.66513 -5.87872,-14.30293 -2.39415,-4.52476 -4.78381,-9.16455 -8.21347,-13.011612 -0.0172,-0.0252 -0.37371,0.21711 -0.35658,0.24232 z" />
    <path
       style="opacity:1;fill:#000000;fill-opacity:1;stroke-width:270.621"
       id="path17446"
       d="m 64.503532,91.887162 c 3.21271,1.636036 6.46517,3.195051 9.68538,4.81831 3.13842,1.543088 6.34127,3.166443 9.82782,3.734658 0.0619,0.0207 0.13653,0.0191 0.18558,0.0621 0.0346,0.0303 0.0185,0.0909 0.037,0.13308 0.053,0.12069 0.0957,0.24975 0.17666,0.35376 0.15731,0.20211 0.33871,0.38616 0.53096,0.55537 0.61258,0.53912 1.20211,0.89314 1.88461,1.34582 0.86841,0.50754 1.04975,0.64471 1.91648,1.04431 0.28307,0.13051 0.82792,0.35742 0.84085,0.27537 0.0783,-0.49667 -0.84161,-0.84701 -1.00748,-0.9508 -4.25677,-2.44932 -8.9961,-4.004885 -13.81856,-4.880243 -1.01169,-0.183642 -2.0353,-0.294214 -3.05294,-0.441319 -2.27845,-0.303837 -4.57054,-0.319114 -6.85639,-0.12428 -1.02943,0.08774 -1.98881,0.18383 -2.94012,0.585816 0.05,0.215391 -0.0113,0.494801 0.14991,0.646171 0.3713,0.34872 2.72806,1.173285 2.9229,1.243265 2.41063,0.86585 4.8546,1.6013 7.31378,2.31386 0.76121,0.20594 2.57542,0.70807 3.46921,0.9154 0.15423,0.0358 0.43807,0.23274 0.46865,0.0774 0.0366,-0.18593 -0.22965,-0.32775 -0.40546,-0.39848 -0.51264,-0.20624 -1.06891,-0.28093 -1.60602,-0.41074 -0.80002,-0.19337 -1.60342,-0.3725 -2.40513,-0.55875 -4.43063,-0.97396 -8.81314,-2.20134 -13.29928,-2.911075 -2.54446,-0.40256 -3.04974,-0.37997 -5.49663,-0.53024 -1.52961,0.011 -4.431317,-0.145094 -5.791234,0.8201 -0.31006,0.22007 -0.647802,0.544445 -0.668702,0.924095 -0.05746,1.04371 1.608048,2.15948 2.094982,2.59491 2.288104,1.60765 4.796204,2.86708 7.389804,3.90009 0.76315,0.30396 2.54877,0.9544 3.50841,1.09921 0.15105,0.0228 0.30147,-0.0496 0.4522,-0.0743 -0.1724,-0.23718 -0.27861,-0.54109 -0.5172,-0.71155 -0.70194,-0.5015 -3.26694,-1.48209 -3.86717,-1.69391 -1.71895,-0.6066 -3.37823,-1.08761 -5.171521,-1.41506 -0.685146,-0.1251 -1.382158,-0.17305 -2.073235,-0.25958 0.04631,-0.21419 -1.89782,-0.0491 -1.867448,0.60446 0.04279,0.92078 1.669836,2.02553 2.096328,2.3768 1.269289,1.04543 2.968616,2.34809 4.261996,3.35149 0.16151,0.11902 2.85843,2.09677 3.28028,2.43777 0.1623,0.1312 0.60684,0.30304 0.44752,0.43784 -0.18108,0.15322 -0.43693,-0.18793 -0.66474,-0.25404 -0.59718,-0.17332 -1.20467,-0.30888 -1.807,-0.46332 -0.86965,-0.25652 -1.73929,-0.51304 -2.60894,-0.76956 -3.368482,-1.03164 -6.756679,-2.03223 -10.219673,-2.70188 -1.829973,-0.35387 -3.743352,-0.65778 -5.619351,-0.61367 -0.671546,0.0158 -1.334234,0.1572 -2.001351,0.2358 -1.205228,0.35638 -2.228807,0.77768 -2.594834,2.0676 -0.05583,0.19676 -0.02474,0.40834 -0.04196,0.61213 -0.01019,0.12067 0.02973,0.26223 -0.04025,0.36105 -0.03563,0.0503 -0.117819,-0.0364 -0.176728,-0.0546 -1.407685,-0.29852 -2.970386,-1.04683 -4.415768,-0.49009 -0.171524,0.0661 -0.305771,0.20408 -0.458658,0.30612 -0.686018,0.0162 0.02405,0.5919 -0.17871,0.74963 -0.08972,0.0698 -0.227139,-0.0106 -0.340412,-0.0201 -0.315769,-0.0264 -0.631909,-0.0503 -0.946572,-0.0876 -1.043515,-0.12389 -2.083713,-0.2745 -3.126776,-0.40213 -1.88859,-0.25908 -3.784047,-0.46723 -5.667883,-0.76102 -1.483168,-0.2313 -2.367515,-0.44353 -3.881001,-0.57892 -0.683225,-0.0611 -1.370302,-0.0664 -2.0554502,-0.0996 -2.553728,-0.0538 -4.937539,0.80278 -7.287353,1.69086 -0.06299,0.0118 0.103208,0.90251 0.166195,0.89076 v 0 c 2.267603,-0.79904 4.534232,-1.7214 6.985644,-1.64605 1.8881802,0.0616 2.1185582,0.0196 3.9946392,0.27939 0.62821,0.087 1.248954,0.22166 1.875208,0.32176 1.897351,0.30327 3.805548,0.53239 5.723256,0.65939 1.259632,0.0927 1.980462,0.18253 3.221403,0.14115 0.298664,-0.01 1.784321,0.0228 1.680642,-0.70642 0.105344,-0.0601 0.199056,-0.14823 0.316031,-0.18019 1.48072,-0.4046 2.992735,0.44848 4.480419,0.31427 0.160073,-0.10857 0.35974,-0.17441 0.480224,-0.32573 0.234113,-0.29403 0.01897,-1.00224 0.306093,-1.33718 0.573933,-0.66953 1.097458,-0.64905 1.94659,-0.89119 0.620913,-0.022 1.242119,-0.0951 1.862741,-0.066 1.806609,0.0847 3.657135,0.46531 5.410296,0.85712 3.439481,0.76869 6.821264,1.7804 10.269019,2.51532 0.91421,0.17944 1.82056,0.40511 2.74265,0.53832 0.36047,0.0521 2.56283,0.50925 3.04846,-0.34642 0.14127,-0.24891 -0.12329,-0.57894 -0.29896,-0.80489 -0.58331,-0.75027 -2.54574,-2.22196 -3.14022,-2.69519 -2.31457,-1.65211 -2.12423,-1.55651 -4.471894,-3.07672 -0.538482,-0.34869 -1.084327,-0.68592 -1.629529,-1.02401 -0.249994,-0.15503 -0.578522,-0.22068 -0.755967,-0.45529 -0.299344,-0.39579 3.493247,-0.40472 1.48762,-0.057 2.38372,0.50821 4.73324,1.09485 7.07713,1.76605 0.77936,0.22318 1.55372,0.46349 2.33162,0.69173 0.56422,0.16555 1.11511,0.3905 1.69469,0.48965 0.27509,0.0471 0.55689,-0.0379 0.83534,-0.0568 -0.66297,-0.49336 -0.17737,-0.16535 -1.57009,-0.77823 -0.66578,-0.29297 -1.33374,-0.58105 -1.99721,-0.87921 -2.48824,-1.11818 -4.97242,-2.25726 -7.352293,-3.59514 -0.130037,-0.0844 -2.001731,-1.06753 -2.152189,-1.72706 -0.03908,-0.17133 0.154471,-0.34729 0.312166,-0.42484 0.394231,-0.19389 0.83691,-0.27817 1.269791,-0.353175 1.683211,-0.29163 2.462915,-0.18909 4.218975,-0.16269 2.4733,0.317485 2.73901,0.317285 5.331,0.808405 4.46863,0.84669 8.86879,2.04563 13.37868,2.67547 0.83158,0.10812 1.65965,0.24797 2.49473,0.32436 0.034,0.003 2.19444,0.42526 2.43614,-0.38756 0.0563,-0.18922 -0.24145,-0.32807 -0.41457,-0.42293 -0.59874,-0.32809 -2.95618,-1.09532 -3.37045,-1.23721 -2.44836,-0.74428 -4.90288,-1.45231 -7.37799,-2.103115 -0.60635,-0.15944 -1.21362,-0.31551 -1.82278,-0.46384 -0.37665,-0.0917 -0.74749,-0.23209 -1.13439,-0.256229 -0.13894,-0.0087 -0.25678,0.107609 -0.38518,0.161409 3.14866,-0.383127 6.31261,-0.236778 9.44575,0.2459 0.98946,0.17065 1.98364,0.31591 2.96838,0.51195 4.76071,0.947725 9.43226,2.295905 13.95597,4.056055 0.2151,0.082 0.98645,0.54682 1.36665,0.27889 0.0577,-0.0407 -0.099,-0.10193 -0.15638,-0.14308 -0.17055,-0.12219 -0.34957,-0.23211 -0.52592,-0.34576 -0.89701,-0.57812 -0.84507,-0.53652 -1.8289,-1.13257 -0.79698,-0.47513 -1.7748,-0.92276 -2.45919,-1.56865 -0.28706,-0.27091 -0.12722,-0.28535 -0.3485,-0.55986 -0.0593,-0.0736 -0.14322,-0.12322 -0.21482,-0.18482 -0.95132,-0.443865 -1.93441,-0.813575 -2.89943,-1.226625 -2.21565,-0.94836 -4.39546,-1.976069 -6.54254,-3.071109 -3.27927,-1.561159 -6.61322,-3.072605 -10.09902,-4.113413 -0.0185,-0.0091 -0.1476,0.252023 -0.12914,0.261156 z" />
  </g>
</svg>
