<?xml version="1.0" encoding="UTF-8" standalone="no"?>
<!-- Created with Inkscape (http://www.inkscape.org/) -->

<svg
   width="400"
   height="150"
   viewBox="0 0 105.83319 39.687497"
   version="1.1"
   id="svg5"
   inkscape:version="1.2.2 (732a01da63, 2022-12-09)"
   sodipodi:docname="question.svg"
   xmlns:inkscape="http://www.inkscape.org/namespaces/inkscape"
   xmlns:sodipodi="http://sodipodi.sourceforge.net/DTD/sodipodi-0.dtd"
   xmlns="http://www.w3.org/2000/svg"
   xmlns:svg="http://www.w3.org/2000/svg">
  <sodipodi:namedview
     id="namedview7"
     pagecolor="#505050"
     bordercolor="#eeeeee"
     borderopacity="1"
     inkscape:showpageshadow="0"
     inkscape:pageopacity="0"
     inkscape:pagecheckerboard="0"
     inkscape:deskcolor="#505050"
     inkscape:document-units="mm"
     showgrid="false"
     inkscape:zoom="1.9077568"
     inkscape:cx="199.44891"
     inkscape:cy="97.758794"
     inkscape:window-width="1368"
     inkscape:window-height="842"
     inkscape:window-x="-6"
     inkscape:window-y="-6"
     inkscape:window-maximized="1"
     inkscape:current-layer="layer1"
     showguides="false" />
  <defs
     id="defs2">
    <filter
       inkscape:collect="always"
       style="color-interpolation-filters:sRGB"
       id="filter1096"
       x="-0.0099431756"
       y="-0.028854109"
       width="1.0198864"
       height="1.0577082">
      <feGaussianBlur
         inkscape:collect="always"
         stdDeviation="0.4095042"
         id="feGaussianBlur1098" />
    </filter>
  </defs>
  <g
     inkscape:label="Layer 1"
     inkscape:groupmode="layer"
     id="layer1">
    <path
       style="opacity:0.27;mix-blend-mode:normal;fill:#ff5599;fill-opacity:1;stroke-width:468.741;filter:url(#filter1096)"
       id="path1094"
       d="m 10.930086,35.729888 c 0.805864,-0.242253 1.455313,-0.413777 2.247518,-0.798634 0.512368,-0.248912 0.991625,-0.561226 1.478743,-0.856509 0.541172,-0.328049 1.028763,-0.752824 1.605576,-1.013151 0.890945,-0.402103 1.850434,-0.63097 2.770247,-0.961749 0.946691,-0.340445 1.885954,-0.701202 2.828932,-1.051804 0.776008,-0.418526 1.972922,-2.062575 2.328022,-1.255572 0.423751,0.963028 -1.337998,1.667753 -1.714317,2.650286 -0.225017,0.587499 0.784021,-0.989991 1.243144,-1.4201 0.346012,-0.324147 0.688359,-0.753253 1.15656,-0.827966 0.459491,-0.07332 0.889855,0.273603 1.327526,0.431567 0.635502,0.229367 1.26057,0.486674 1.890858,0.730014 0.776766,0.113432 1.597617,0.05851 2.330304,0.340299 1.061423,0.408223 1.903751,1.275723 2.96097,1.69472 2.835376,1.123712 4.373332,0.897967 7.360689,1.14242 3.021198,0.247224 4.890206,0.502952 7.916545,0.867937 4.052551,-0.09061 4.248628,-0.32693 8.312078,0.54991 4.540717,0.979829 5.330771,2.067459 10.130992,1.658858 0.82617,-0.07032 9.256307,-2.29271 10.030727,-2.493542 4.59039,-1.955411 5.066783,-1.71269 8.814558,-5.062894 1.565302,-1.399251 7.157137,-0.287834 11.500959,-5.143199 2.533563,-2.831924 4.303963,-7.444143 5.408943,-12.520743 C 101.38038,8.4450314 100.98883,6.0420256 99.429106,4.7755981 96.214516,3.4130838 85.271086,5.3328225 88.787284,3.637356 91.249294,3.840691 80.711821,5.8548056 79.87356,5.879269 76.988525,5.9904414 77.013801,6.2353555 74.155671,7.2298469 l -3.247474,1.2319846 c -1.134327,0.2358779 -2.307918,0.3292549 -3.402983,0.7076336 -9.82414,3.3945439 2.651344,-0.148468 -6.63368,3.6109789 -2.446936,0.990749 -3.053877,0.343735 -5.358569,-0.416447 C 51.875071,11.462421 52.816173,11.805899 49.11311,10.401647 47.8451,9.9208005 46.637028,9.2677036 45.330955,8.9026985 39.84886,7.3706331 41.685299,8.4821637 35.857245,8.4082142 34.242221,8.3877223 32.639965,8.1183508 31.031328,7.9734189 24.566634,8.9351549 27.035334,8.302863 20.771771,10.303661 c -1.966198,0.628072 -6.594044,1.987351 -8.281168,3.429637 -6.0298546,5.154797 -5.5966606,5.102593 -8.1105721,10.240535 -0.1193485,1.161215 -0.40416,2.317224 -0.3580457,3.483646 0.038818,0.981853 0.4203173,1.91992 0.6097936,2.884096 0.1184746,0.602877 0.1460666,1.225253 0.3139069,1.81629 0.3755488,1.322462 1.0104637,1.924108 1.9214247,2.855515 -0.05067,0.287298 4.0123106,1.003803 4.0629756,0.716508 z"
       sodipodi:nodetypes="csssscssssscssscsscssccccccsscssscsscssscc"
       transform="matrix(1.0487795,0,0,1,-2.228328,-0.83212908)" />
  </g>
</svg>
