<?xml version="1.0" encoding="UTF-8" standalone="no"?>
<!-- Created with Inkscape (http://www.inkscape.org/) -->

<svg
   width="1920"
   height="1080"
   viewBox="0 0 507.99998 285.75"
   version="1.1"
   id="svg5"
   inkscape:version="1.2.2 (732a01da63, 2022-12-09)"
   sodipodi:docname="roottree.svg"
   xmlns:inkscape="http://www.inkscape.org/namespaces/inkscape"
   xmlns:sodipodi="http://sodipodi.sourceforge.net/DTD/sodipodi-0.dtd"
   xmlns="http://www.w3.org/2000/svg"
   xmlns:svg="http://www.w3.org/2000/svg">
  <sodipodi:namedview
     id="namedview7"
     pagecolor="#505050"
     bordercolor="#eeeeee"
     borderopacity="1"
     inkscape:showpageshadow="0"
     inkscape:pageopacity="0"
     inkscape:pagecheckerboard="0"
     inkscape:deskcolor="#505050"
     inkscape:document-units="mm"
     showgrid="false"
     inkscape:zoom="0.44785584"
     inkscape:cx="99.362331"
     inkscape:cy="418.66151"
     inkscape:window-width="1368"
     inkscape:window-height="842"
     inkscape:window-x="-6"
     inkscape:window-y="-6"
     inkscape:window-maximized="1"
     inkscape:current-layer="layer1"
     showguides="false" />
  <defs
     id="defs2">
    <filter
       inkscape:collect="always"
       style="color-interpolation-filters:sRGB"
       id="filter14750"
       x="-0.011088504"
       y="-0.034087016"
       width="1.022177"
       height="1.068174">
      <feGaussianBlur
         inkscape:collect="always"
         stdDeviation="0.93740947"
         id="feGaussianBlur14752" />
    </filter>
    <filter
       inkscape:collect="always"
       style="color-interpolation-filters:sRGB"
       id="filter14754"
       x="-1.7971362"
       y="-9.3522493"
       width="4.5942723"
       height="19.704499">
      <feGaussianBlur
         inkscape:collect="always"
         stdDeviation="1.1155947"
         id="feGaussianBlur14756" />
    </filter>
    <filter
       inkscape:collect="always"
       style="color-interpolation-filters:sRGB"
       id="filter14758"
       x="-0.014202289"
       y="-0.022060659"
       width="1.0284046"
       height="1.0441213">
      <feGaussianBlur
         inkscape:collect="always"
         stdDeviation="0.58552672"
         id="feGaussianBlur14760" />
    </filter>
  </defs>
  <g
     inkscape:label="Layer 1"
     inkscape:groupmode="layer"
     id="layer1">
    <path
       style="opacity:0.23;fill:#ff5599;fill-opacity:1;stroke:none;stroke-width:468.741;stroke-dasharray:none;stroke-opacity:1;filter:url(#filter14750)"
       d="m 121.25616,39.001754 c -15.20698,1.43779 -19.14936,3.243826 -25.919589,8.460768 -1.91422,1.56244 -4.495379,5.161412 -6.508918,6.59361 -1.50729,0.957438 -2.687923,2.305391 -3.956864,3.538802 -1.427933,1.265827 -2.960291,2.397642 -4.386813,3.665409 -1.668964,1.52781 -3.573093,2.755659 -5.480802,3.957898 -1.718863,1.165233 -3.451442,2.309354 -5.18573,3.451469 -1.779234,1.177471 -3.743244,2.02946 -5.525244,3.199288 -1.582206,1.174724 -3.11489,2.418238 -4.615222,3.695899 -1.220875,0.984945 -2.18106,2.205578 -3.179651,3.400309 -0.995003,1.254513 -1.886565,2.573336 -2.746603,3.920691 -0.851856,1.041477 -1.180434,2.297046 -1.639176,3.531567 -0.697185,1.753881 -1.560697,3.434417 -2.407605,5.119068 -0.993478,1.758989 -1.966327,3.530689 -3.01687,5.256526 -1.258134,2.092814 -2.982218,3.842592 -4.647262,5.609472 -0.0806,0.0838 -0.162385,0.16622 -0.243396,0.2496 5.946315,1.26778 12.573083,2.04279 17.313155,2.21795 4.502056,0.16638 9.067674,0.31105 13.50822,-0.44906 8.452761,-1.44691 2.852254,-7.023743 11.180196,-9.070251 6.201054,-1.323489 18.256244,-6.411026 42.869734,-13.786239 22.71888,8.927372 52.31939,7.100661 62.89332,4.233334 25.01879,3.669766 33.87294,3.317244 42.18916,0.322977 20.30445,-7.310722 11.23804,-13.717128 8.88731,-13.519588 -16.12495,1.355019 -22.0435,-14.494627 -44.63397,-3.449918 -7.15099,-15.079705 -28.65003,-10.363597 -41.26725,-20.356897 -8.50065,-4.042646 -13.70889,-7.208176 -23.17998,-8.865609 -3.68612,-0.645057 -7.06412,-0.925515 -10.30015,-0.927075 z"
       id="path14109-6"
       sodipodi:nodetypes="ccccccccccccccccssccccsccsc" />
    <path
       style="opacity:0.23;fill:#ff5599;fill-opacity:1;stroke:none;stroke-width:468.741;stroke-dasharray:none;stroke-opacity:1;filter:url(#filter14754)"
       d="m 100.68843,37.230286 0.0408,0.286287 c 0.48278,-0.0941 0.9652,-0.189089 1.44901,-0.279569 -0.49653,-0.0029 -0.9933,-0.0052 -1.48983,-0.0067 z"
       id="path15224" />
    <path
       style="opacity:0.23;fill:#ff5599;fill-opacity:1;stroke:none;stroke-width:468.741;stroke-dasharray:none;stroke-opacity:1;filter:url(#filter14754)"
       d="m 130.3631,-14.5526 c -1.69616,0.0097 -3.39306,0.06887 -5.08134,0.131258 -7.2808,0.269063 -19.02342,1.945985 -25.892478,4.6658651 -0.862916,0.3416816 -1.654145,0.6771285 -2.415873,1.0113078 l 1.293978,2.5884725 c -1.193005,0.5869113 -2.357832,1.2376446 -3.519165,1.8867065 -1.113606,0.5351529 -2.11376,1.1909151 -3.035474,2.0060791 -0.927604,0.7674553 -1.766657,1.62993393 -2.562634,2.53059492 -0.872091,1.25825798 -1.90219,2.39241488 -2.963127,3.49177648 -0.719455,0.6608799 -1.367539,1.3612899 -1.933215,2.153357 -0.4336,0.5601649 -0.707936,1.2068578 -0.991671,1.8494995 -0.300924,0.7439361 -0.439121,1.5354817 -0.679028,2.3016681 -0.319661,0.964008 -0.558059,1.947782 -0.873849,2.914551 -0.276826,1.012146 -0.591957,2.01461 -0.866613,3.027722 -0.233409,1.020881 -0.46617,2.042016 -0.760161,3.047359 -0.27619,0.812042 -0.557833,1.619858 -0.826306,2.43396 -0.320415,0.732301 -0.573694,1.478872 -0.817004,2.23914 -0.274748,0.856455 -0.520803,1.719379 -0.750859,2.588989 -0.281308,0.847073 -0.520242,1.701747 -0.674377,2.580721 -0.209176,0.861697 -0.352843,1.731158 -0.438733,2.612761 -5.330211,7.903288 -7.93482,12.663791 -2.852664,17.061018 12.613438,-1.05523 15.105359,-4.042123 32.641993,-17.831928 6.80651,1.409075 9.2595,2.929831 17.26051,3.969681 6.71968,0.353851 6.55136,-0.234924 13.08499,2.026233 2.30924,0.799177 5.5172,0.758793 6.74481,2.871659 0.93719,1.613019 -3.6927,-0.531179 -5.5392,-0.79685 2.96708,1.271981 5.87965,2.679428 8.90127,3.815787 3.5666,1.34132 7.13534,2.745724 10.84636,3.610633 15.50417,3.613461 25.32079,6.865268 40.06526,4.28501 9.47117,-1.657447 14.67925,-4.822923 23.17998,-8.865609 12.6173,-9.99338 34.11618,-5.277069 41.26725,-20.356897 22.59063,11.044805 28.50894,-4.804945 44.63397,-3.449919 2.3507,0.197539 11.41729,-6.209319 -8.88732,-13.5201048 -8.31619,-2.994294 -17.17012,-3.34682195 -42.18915,0.3229777 -10.57402,-2.8673533 -40.17428,-4.69410201 -62.89332,4.2333333 -24.61376,-7.3752631 -36.66862,-12.4622275 -42.86974,-13.7857218 -8.328,-2.0465249 -2.72736,-7.6238584 -11.18019,-9.0707644 -2.77537,-0.475068 -5.59994,-0.596466 -8.42688,-0.580326 z"
       id="path14109"
       sodipodi:nodetypes="sssccccccccccccccccccccsscsssccsscccsss" />
    <path
       style="opacity:0.23;fill:#ff5599;fill-opacity:1;stroke:none;stroke-width:468.741;stroke-dasharray:none;stroke-opacity:1;filter:url(#filter14758)"
       id="path14057"
       d="M 60.603148,10.544185 C 60.153017,8.7321177 60.250024,8.4785371 59.148858,6.8504643 58.746503,6.2555807 58.136908,5.8123907 57.769714,5.1951839 57.246398,4.3155647 57.170917,3.1726685 56.500635,2.3991638 55.940237,1.7524671 54.937249,1.6690608 54.260416,1.145461 53.46941,0.53353816 52.845742,-0.26848847 52.138405,-0.9754632 51.098788,-1.7788264 50.02431,-2.5389968 49.019552,-3.3855527 c -1.406247,-1.1848296 -2.62682,-2.5925925 -4.109556,-3.6801822 -1.668894,-1.2241368 -3.480382,-2.2496459 -5.305465,-3.2257561 -1.957562,-1.046963 -3.969964,-1.99859 -6.026377,-2.834857 -3.377557,-1.373527 -9.062525,-3.012069 -12.54869,-4.069986 -2.093895,-0.600598 -4.182341,-1.220528 -6.281684,-1.801793 -5.5857395,-1.546579 -6.0966303,-2.029167 -11.8350173,-1.862155 -7.4094662,0.215647 -2.75555891,1.634668 -8.4061349,-0.910957 -2.6986614,-2.281871 -34.9692028,35.882964 -32.2705408,38.164836 v 0 c 14.122579,10.249026 -0.403484,-1.105959 10.717451,9.888769 1.728937,1.709315 3.58553,3.32794 5.648488,4.614482 3.299721,2.057834 10.595298,4.63895 14.1850128,6.007457 5.349053,1.68755 9.4288336,3.185504 14.9841599,4.101531 4.2507113,0.700908 10.5943033,0.998064 14.9074483,0.722887 2.446835,-0.156107 4.864443,-0.618601 7.296665,-0.927899 2.108504,-0.124854 4.217006,-0.249709 6.325508,-0.374563 1.995416,-0.263091 3.99262,-0.512958 5.986248,-0.789273 1.505931,-0.208722 3.079485,-0.156932 4.512124,-0.665792 1.664335,-0.591159 3.105987,-1.684055 4.627727,-2.580598 2.823448,-1.663454 4.762352,-3.209959 6.68437,-5.881158 1.411756,0.176202 3.903615,-19.789053 2.491859,-19.965255 z" />
    <path
       style="opacity:0.75;fill:#020303;fill-opacity:1;stroke-width:468.741;stroke-dasharray:none"
       id="path3141"
       d="m 66.133544,256.12995 c 3.217987,3.22144 7.636679,5.14042 11.996071,6.27435 1.205905,0.31367 2.438757,0.51267 3.658137,0.769 3.767823,0.89124 8.281307,0.22426 11.840895,1.85772 1.629966,0.74798 1.945468,1.25516 3.185872,2.46299 1.73995,2.26733 3.278171,4.67731 4.966421,6.98228 0.62031,0.8469 1.19106,1.73715 1.89838,2.51285 0.63158,0.69266 1.39944,1.24751 2.09917,1.87127 0.0922,0.1356 2.00999,-1.16774 1.91783,-1.30334 v 0 c -0.35843,-0.86161 -0.62425,-1.76789 -1.07529,-2.58482 -0.51419,-0.93136 -1.17797,-1.77271 -1.80499,-2.63215 -1.76073,-2.41338 -3.73673,-4.65405 -5.753275,-6.8538 -1.564521,-1.59412 -1.964997,-2.26804 -4.052445,-3.27463 -3.737105,-1.80207 -8.113909,-1.51367 -12.096941,-2.2177 -1.138063,-0.19155 -2.287442,-0.32501 -3.414191,-0.57464 -4.326863,-0.95861 -8.35851,-2.82793 -12.53268,-4.25488 -0.06827,-0.0589 -0.901234,0.9066 -0.832964,0.9655 z" />
    <path
       style="opacity:0.75;fill:#020303;fill-opacity:1;stroke-width:468.741;stroke-dasharray:none"
       id="path3143"
       d="m 51.248064,253.47559 c -2.426841,-0.71706 -4.851543,-1.35074 -7.159183,-2.42229 -1.120349,-0.52024 -2.196492,-1.13144 -3.279323,-1.72584 -1.055055,-0.57914 -2.140535,-1.11384 -3.133312,-1.79424 -0.877007,-0.60105 -1.636887,-1.35728 -2.455331,-2.03592 -0.485695,-0.80364 -1.140962,-1.52673 -1.457081,-2.41092 -1.174279,-3.2845 0.02064,-7.04703 0.946009,-10.19483 0.424942,-1.44551 0.915848,-2.8708 1.373773,-4.3062 0.445307,-1.52744 0.890611,-3.05488 1.335915,-4.58232 1.44226,-5.51902 1.919722,-11.12259 0.797798,-16.76063 -1.224618,-6.15411 -4.303606,-11.55039 -7.296513,-16.96299 -3.349379,-4.42731 -5.853062,-9.35022 -8.292036,-14.30634 -0.107825,-0.26209 -3.814417,1.26278 -3.706592,1.52487 v 0 c 0.624603,1.78264 1.1068,3.62176 1.873811,5.34792 1.123041,2.5274 4.229523,7.50654 5.662884,9.87986 2.003584,3.36246 4.118253,6.57487 5.543764,10.24698 1.038689,2.67566 2.190809,7.56571 2.354986,10.43654 0.197882,3.4602 -0.513138,6.55163 -1.079908,9.92641 -1.702361,6.22021 -5.001451,15.17214 -2.412982,21.45912 0.475345,1.15454 1.310544,2.12559 1.965815,3.18838 0.938485,0.79439 1.810986,1.67404 2.81545,2.38316 4.429466,3.12705 9.873681,4.67527 15.269911,4.42662 0.09315,0.0235 0.425297,-1.29385 0.332145,-1.31734 z" />
    <path
       style="opacity:0.75;fill:#020303;fill-opacity:1;stroke-width:861.663;stroke-dasharray:none"
       id="path3149"
       d="m 29.680798,259.59739 c -6.621143,0.24535 -13.593646,1.97842 -18.956773,5.71114 -1.0194207,0.70949 -1.8929384,1.58969 -2.8394065,2.38452 -4.6111521,5.03057 -3.2282159,7.62457 -3.123457,13.48951 -1.0121835,1.54782 -2.6734547,2.47605 -4.19652265,3.51176 -0.166653,0.18925 2.70154015,2.48877 2.86818575,2.29952 v 0 c 2.1599679,-1.72535 4.0603694,-3.16357 4.5746709,-5.97861 -0.00872,-0.59337 0.023577,-1.18768 -0.026132,-1.78007 -0.076239,-0.90838 -0.4860735,-2.53016 -0.3837562,-3.48576 0.2433813,-2.27313 1.7865277,-4.03743 3.4532927,-5.51861 0.905915,-0.58127 1.765963,-1.23147 2.717757,-1.74387 5.029944,-2.70778 10.845431,-3.69623 15.984107,-6.1564 0.203231,-5.2e-4 0.131279,-2.73372 -0.07197,-2.73313 z"
       inkscape:transform-center-x="-1.8904893"
       inkscape:transform-center-y="0.94524465" />
    <path
       style="opacity:0.75;fill:#020303;fill-opacity:1;stroke-width:468.741;stroke-dasharray:none"
       d="m 80.113549,44.307627 c -0.709094,0.108913 -2.135376,0.904009 -4.624235,2.755324 L 60.224819,58.416963 c -8.024705,5.814867 -17.387176,10.625601 -23.032374,18.325998 -1.879686,2.573541 -5.924022,7.803969 -7.777843,10.217165 -3.451341,5.373888 -5.011647,7.45032 -7.809422,13.234894 -1.993787,4.1223 -4.919107,11.43872 -6.142118,15.78299 -2.048995,7.27816 -2.185972,10.55326 -3.107614,17.93741 -0.08346,2.71601 -0.253793,5.43081 -0.250294,8.14815 0.01316,10.2375 1.52641,20.4481 4.780517,30.16137 0.960879,2.4849 1.562421,4.16138 2.379482,6.04052 -0.106803,-0.25994 -0.209027,-0.52188 -0.308274,-0.78491 l 3.660955,-1.53105 c -0.479709,-1.38038 -0.747789,-2.38468 -1.671011,-5.51084 -0.43368,-1.71871 -0.935573,-3.42154 -1.300997,-5.15601 -1.570695,-7.45534 -2.630021,-16.43625 -1.874852,-24.02071 0.259243,-2.60372 0.791125,-5.17334 1.1866,-7.75984 1.786349,-9.52976 1.177558,-7.55879 3.945853,-17.04331 1.634757,-5.60081 2.87352,-9.65664 5.297614,-14.93961 2.61551,-5.700162 3.784162,-7.077905 7.180878,-12.288991 11.944187,-18.029633 24.86752,-23.31677 40.60023,-36.702267 0.04672,-0.246985 6.663868,-8.609302 4.1314,-8.220295 z"
       id="path3155" />
    <path
       style="opacity:0.75;fill:#020303;fill-opacity:1;stroke-width:468.741;stroke-dasharray:none"
       id="path3887"
       d="m 41.86373,115.92911 c -0.964179,2.62472 -1.461252,5.39707 -2.304823,8.05524 -0.409456,1.29023 -2.713686,7.41829 -3.086319,8.47107 -0.55838,1.57756 -1.076876,3.16895 -1.615313,4.75343 -1.864572,6.06252 -3.340203,12.4368 -2.443873,18.81507 0.538023,3.82858 0.977033,4.29267 2.410501,7.81461 2.891321,5.84776 8.080123,9.94816 12.274848,14.7828 3.156342,3.63785 3.682643,4.75449 6.329331,8.81412 0.84858,1.71508 1.867652,3.35588 2.545739,5.14523 3.513751,9.27217 3.995555,21.36372 3.164266,31.12549 -0.248918,2.923 -0.791165,5.81356 -1.186746,8.72034 -0.04778,0.46608 6.543542,1.14178 6.591321,0.6757 v 0 c 0.478798,-3.12661 1.170979,-6.22792 1.436396,-9.37982 0.743387,-8.82793 -0.164023,-17.94175 -2.858556,-26.39408 -1.71846,-5.39055 -3.073699,-7.35864 -5.695751,-12.13457 -3.338819,-4.82935 -3.116657,-4.86753 -7.027683,-9.1367 -4.097377,-4.47259 -9.090138,-8.16478 -12.357025,-13.354 -1.104376,-2.70099 -1.802977,-3.86045 -2.101258,-6.82273 -0.584467,-5.80443 1.78919,-12.10803 2.930398,-17.71415 1.23384,-4.57081 2.343328,-9.10381 3.174146,-13.76634 0.467225,-2.62204 0.735803,-3.82879 0.804947,-6.42923 0.01767,-0.66517 -0.06089,-1.32941 -0.09133,-1.99412 0.0034,-0.0632 -0.889868,-0.11052 -0.893217,-0.0474 z" />
    <path
       style="opacity:0.75;fill:#020303;fill-opacity:1;stroke-width:468.741;stroke-dasharray:none"
       id="path3925"
       d="m 213.6483,16.69705 c -0.45783,-0.438703 -0.87629,-0.92257 -1.37347,-1.316108 -2.58522,-2.046293 -6.00161,-3.756162 -9.34175,-3.944452 -0.7411,-0.04178 -1.48139,0.09677 -2.22209,0.145149 -0.86046,0.270805 -1.7581,0.443739 -2.58139,0.812414 -2.83798,1.270857 -5.64171,4.913783 -7.69067,7.249749 -2.41744,2.714945 -3.74507,2.394389 -6.91263,1.231456 -3.94986,-1.51619 -6.46525,-5.11746 -9.75934,-7.591285 -0.95682,-0.718564 -2.00077,-1.313123 -3.00116,-1.969685 -3.27525,-1.5646071 -6.81859,-2.4674231 -10.48469,-2.0892621 -3.98865,0.411433 -7.56319,1.9760191 -11.2414,3.4201051 -1.7673,0.476917 -4.55953,1.292575 -6.40915,1.558436 -2.47461,0.355692 -5.22038,-0.129866 -7.57432,-0.88196 -0.85583,-0.273441 -1.66883,-0.666232 -2.50324,-0.999348 -4.54624,-2.183165 -9.38271,-4.9078201 -14.63557,-4.3926751 -1.63344,0.16019 -3.22427,0.615824 -4.83641,0.923736 -9.54652,3.4734131 -17.190789,10.3154571 -24.726962,16.8904091 -3.269964,2.977208 -6.029301,6.428869 -8.67891,9.950516 -0.711308,0.945409 -1.487736,1.849755 -2.094746,2.865281 -0.52347,0.875768 -0.853241,1.853629 -1.279863,2.780443 -0.08495,0.149548 2.029984,1.350999 2.114939,1.201451 v 0 c 4.356129,-4.022388 0.180953,-0.0057 4.488576,-4.685321 2.922397,-3.174732 6.285402,-5.876459 9.34373,-8.912899 3.124357,-2.970419 4.139577,-4.070562 7.464438,-6.719514 4.725378,-3.764762 9.877628,-7.037753 15.230308,-9.826099 0.70164,-0.314925 1.35284,-0.783989 2.10492,-0.944775 4.72379,-1.009897 9.50018,2.007109 13.59716,3.846283 2.05563,0.880512 3.62938,1.675186 5.84742,2.12896 4.8816,0.99869 9.85638,-0.158356 14.49104,-1.680099 2.85876,-0.986137 3.45172,-1.228059 6.34532,-2.078009 1.42697,-0.41915 4.07696,-1.143148 5.45507,-1.14219 1.80843,0.0013 4.05961,1.024551 5.66983,1.624999 0.94655,0.514972 1.93052,0.966439 2.83966,1.54491 2.52018,1.603563 2.3794,1.91048 4.63824,3.730072 1.93214,1.556428 4.01167,2.923691 6.33139,3.828881 0.68501,0.192016 1.3582,0.432771 2.05505,0.576048 3.35125,0.689047 5.89499,-0.42254 8.25783,-2.720049 2.43201,-2.522021 4.4894,-5.606746 7.74419,-7.140913 0.56542,-0.05496 1.12882,-0.19227 1.69624,-0.164897 3.83222,0.184886 7.09359,2.663894 10.60039,3.908446 0.072,0.07297 1.10402,-0.945229 1.03202,-1.018204 z" />
    <path
       style="opacity:0.75;fill:#020303;fill-opacity:1;stroke-width:468.741;stroke-dasharray:none"
       id="path3925-3"
       d="m 64.731952,84.324401 c 0.50812,-0.539517 0.978387,-1.113528 1.524338,-1.618543 2.838815,-2.625953 6.520241,-5.125836 10.014938,-6.122299 0.775393,-0.221094 1.537229,-0.266012 2.305849,-0.399025 0.877769,0.0549 1.801177,0.0053 2.633313,0.164715 2.868439,0.549665 5.533971,3.422503 7.50494,5.203562 2.328313,2.061237 3.734703,1.425379 7.118213,-0.48022 4.223807,-2.440679 7.099457,-6.567102 10.707257,-9.782751 1.04795,-0.934039 2.17797,-1.768265 3.26695,-2.652399 3.52408,-2.323784 7.28093,-4.066975 11.07545,-4.589964 4.12837,-0.569003 7.74382,0.08809 11.47581,0.60236 1.80844,0.0354 4.66128,0.151975 6.5704,-0.03862 2.55421,-0.255011 5.45035,-1.396943 7.95687,-2.703646 0.9113,-0.475082 1.78639,-1.056214 2.67957,-1.584319 4.89242,-3.236673 10.12553,-7.072386 15.56427,-7.847788 1.69124,-0.241115 3.31725,-0.183554 4.97587,-0.275333 9.70548,1.066776 17.19079,5.883762 24.58227,10.466396 3.19842,2.109739 5.83116,4.806728 8.34461,7.598713 0.67475,0.749526 1.42026,1.443135 1.98137,2.286464 0.48388,0.727269 0.75867,1.601298 1.13801,2.401945 0.0781,0.125258 -2.21109,1.812336 -2.28909,1.687064 v 0 c -4.25685,-2.865416 -0.18819,0.03818 -4.34817,-3.480128 -2.82222,-2.387065 -6.13703,-4.205331 -9.11069,-6.424366 -3.04713,-2.138541 -4.02774,-2.965121 -7.30652,-4.741165 -4.65986,-2.524165 -9.79933,-4.464558 -15.18187,-5.883228 -0.70913,-0.136606 -1.35481,-0.435904 -2.12736,-0.409817 -4.85241,0.163849 -10.0435,4.270244 -14.44343,7.061913 -2.20465,1.35944 -3.90098,2.517861 -6.24483,3.500375 -5.15848,2.162374 -10.26212,2.243695 -14.98556,1.886361 -2.91017,-0.266758 -3.51115,-0.358566 -6.46723,-0.483946 -1.45779,-0.06183 -4.16884,-0.123572 -5.60531,0.212682 -1.88501,0.441291 -4.30354,1.987606 -6.0242,2.965362 -1.02288,0.73286 -2.0803,1.412852 -3.06867,2.198577 -2.73981,2.178077 -2.61472,2.443335 -5.09736,4.768642 -2.12358,1.989 -4.387457,3.829263 -6.869097,5.277041 -0.72753,0.354059 -1.44616,0.752804 -2.18258,1.06218 -3.54158,1.487841 -6.114562,1.02201 -8.415392,-0.645148 -2.357105,-1.869423 -4.284077,-4.379124 -7.568397,-5.084329 -0.585464,0.08395 -1.163014,0.08703 -1.756365,0.251805 -4.00735,1.112873 -7.581417,4.325619 -11.324278,6.39341 -0.08019,0.08873 -1.084089,-0.653797 -1.003899,-0.74253 z" />
    <path
       style="opacity:0.75;fill:#020303;fill-opacity:1;stroke-width:468.741;stroke-dasharray:none"
       id="path3935"
       d="m 1.209455,72.164299 c 0.7147068,-0.642808 1.4735584,-1.239692 2.1441204,-1.928427 8.3834896,-8.610687 -4.22146635,3.61306 6.0200236,-6.638131 2.244085,-2.246209 6.08312,-5.704752 8.624516,-7.606165 1.424504,-1.065784 2.961912,-1.971669 4.442869,-2.957504 5.581755,-3.165367 11.947024,-3.603696 18.140139,-4.566478 5.97489,-0.928854 4.355278,-0.673865 10.425116,-2.150221 5.440817,-1.601872 10.541888,-4.274127 13.579011,-9.271259 1.681806,-2.767159 1.867874,-4.468686 2.675001,-7.585933 0.715352,-2.571837 0.0769,-5.275195 0.516417,-7.865729 0.490262,-2.8896 2.038731,-6.512771 3.607165,-8.891455 2.626489,-3.9833293 5.440132,-6.397746 8.814705,-9.7250972 1.915361,-1.3593757 3.830724,-2.71875124 5.746085,-4.0781265 0.262724,-0.275376 -3.631681,-3.9908357 -3.894404,-3.7154597 v 0 c -2.081157,1.5516677 -4.162317,3.1033347 -6.243474,4.65500166 -4.365323,4.63780604 -5.9867,5.69018884 -8.896434,11.40922074 -1.759024,3.457333 -2.41971,6.544045 -2.866258,10.308046 -0.145428,1.225832 -0.106235,2.466881 -0.193225,3.698241 -0.08528,1.207133 -0.215662,2.410656 -0.323493,3.615985 -0.517374,2.807717 -0.442883,3.96754 -1.953847,6.398834 -1.906329,3.067472 -5.081564,5.215907 -8.398754,6.495834 -1.250508,0.482502 -2.577539,0.736616 -3.866306,1.104926 -2.760128,0.464955 -5.510257,0.991259 -8.277415,1.412362 -1.696135,0.258117 -3.408265,0.405418 -5.10213,0.678032 -5.750665,0.925515 -11.368842,2.138944 -16.537099,4.954212 -1.611933,1.076335 -3.307772,2.036548 -4.835801,3.229006 -6.21522,4.850294 -10.8566686,11.394948 -14.15840145,18.494097 -0.037207,0.05741 0.77466645,0.583594 0.81187345,0.526188 z" />
    <path
       style="opacity:0.75;fill:#020303;fill-opacity:1;stroke-width:468.741;stroke-dasharray:none"
       id="path3939"
       d="m 0.62405311,203.5574 c 1.89484529,1.88977 4.15854999,3.33812 6.15717529,5.12107 0.653522,0.583 1.3566051,1.12198 1.9242271,1.78891 0.559435,0.6573 0.955743,1.43757 1.4336145,2.15635 0.961086,2.73943 1.369104,5.73406 0.994995,8.63447 -0.15832,1.22742 -0.479759,2.42926 -0.778841,3.63017 -0.4408425,1.77012 -2.1826265,7.74819 -2.6518516,9.37594 -1.333575,5.05979 -3.5996979,9.77304 -5.9249882,14.43255 -0.91991369,1.84336 -1.96423859,3.6265 -2.8046804,5.50742 -0.831011,1.85982 -1.4687547,3.8001 -2.2031322,5.70015 -0.077667,0.28501 3.95307231,1.38339 4.03073971,1.09838 v 0 c 4.35579409,-8.12419 1.57165299,-2.65899 5.44944709,-10.97456 0.77571,-1.66344 1.638265,-3.28704 2.3656781,-4.97216 1.9693065,-4.56207 2.1233915,-5.54586 3.5443645,-10.24529 0.377195,-1.69577 0.822565,-3.3778 1.131583,-5.0873 0.532966,-2.9484 0.787337,-5.72069 0.891284,-8.69912 0.09136,-2.61783 0.142152,-4.24616 -0.646486,-6.7918 -0.32589,-1.05193 -0.892013,-2.0138 -1.33802,-3.0207 -0.593483,-0.81048 -1.115519,-1.67848 -1.780449,-2.43146 -2.4262056,-2.74748 -5.7864536,-4.43343 -9.023877,-6.01012 -0.055656,-0.0545 -0.82643899,0.7326 -0.77078289,0.7871 z" />
    <path
       style="opacity:0.75;fill:#020303;fill-opacity:1;stroke-width:468.741;stroke-dasharray:none"
       id="path5060"
       d="m 204.57832,36.076338 c 2.40941,-2.23507 4.05952,-5.12926 6.5448,-7.30145 0.6411,-0.56034 1.35077,-1.037001 2.02615,-1.555501 1.81785,-0.97273 2.53271,-1.55229 4.61515,-1.87706 3.97066,-0.61923 8.03736,0.66888 11.8672,1.48552 6.14593,1.171631 11.94378,1.783981 17.67075,-1.38839 3.68906,-2.0435 4.49064,-3.58658 7.29267,-6.808199 0.9512,-1.96719 1.90239,-3.93437 2.85358,-5.90156 0.11229,-0.28142 -3.86751,-1.86936 -3.97979,-1.58795 v 0 c -0.80714,1.74418 -1.61427,3.48836 -2.4214,5.23254 -0.86012,1.24618 -1.54241,2.63607 -2.58035,3.738529 -3.00421,3.19093 -9.61627,4.58729 -13.8511,4.32436 -1.25014,-0.0776 -2.47721,-0.37275 -3.71581,-0.55912 -4.49224,-0.63604 -9.81568,-1.69044 -14.28369,-0.6172 -2.42478,0.58246 -3.03913,1.13341 -5.16597,2.35086 -0.71963,0.60522 -1.49054,1.15424 -2.15889,1.81566 -2.32929,2.305141 -3.89153,5.285401 -5.54289,8.075481 -0.0405,0.0587 0.78904,0.63214 0.82959,0.57348 z" />
    <path
       style="opacity:0.75;fill:#020303;fill-opacity:1;stroke-width:333.606;stroke-dasharray:none"
       id="path5216"
       d="m 53.208199,24.913728 c 0.189117,-0.201253 0.43929,-0.35908 0.567349,-0.60376 1.235534,-2.360711 -1.272265,-4.301881 -3.116294,-5.21523 -0.72003,-0.356632 -1.501626,-0.572402 -2.25244,-0.858602 -1.898578,-0.388207 -2.198562,-0.559885 -4.03306,-0.559126 -0.368615,1.52e-4 -0.787992,-0.08861 -1.100696,0.106568 -0.141406,0.08826 0.112483,0.314652 0.186679,0.463916 0.166599,0.33515 0.192258,0.836304 0.53471,0.987325 0.41337,0.182297 0.897413,-0.105251 1.346119,-0.157877 1.464056,-0.284556 6.841961,-0.990533 4.619311,-3.760114 -0.334118,-0.416336 -0.945809,-0.495305 -1.418714,-0.742958 -0.721539,-0.147441 -1.433876,-0.350819 -2.164618,-0.442322 -3.030545,-0.379482 -6.125337,-0.0996 -9.156692,0.08286 -3.685549,0.221841 -2.677357,0.157162 -6.144559,0.442912 -2.159179,0.177243 -4.263247,0.02584 -6.367367,-0.464822 -2.313038,-0.539385 -1.80158,-0.551059 -4.230267,-1.1592 -0.931351,-0.23321 -1.873294,-0.421878 -2.809941,-0.632817 -2.980227,-0.455589 -5.990493,-0.376435 -8.9911128,-0.312146 -0.675124,0.01446 -1.351341,0.0022 -2.025377,0.04315 -0.212465,0.01291 -0.8229965,0.0337 -0.627564,0.11805 0.272096,0.117432 0.592702,-0.0035 0.889053,-0.0052 C 8.3228772,11.63356 9.8199502,11.244518 10.647713,9.7397834 11.692396,7.8407254 11.027763,6.0118087 9.6763682,4.4637757 7.3234902,1.7685368 3.829969,0.34700212 0.78994752,-1.2718911 -7.3614899,-4.5558154 -3.2434378,-3.1911397 -11.55312,-5.3992262 c -0.304159,-0.1695276 -2.701641,4.1319241 -2.397482,4.3014517 v 0 c 7.6340831,3.2668534 3.689245,1.78014242 11.8475579,4.4253642 1.83409962,0.553808 3.6754045,1.084291 5.5022988,1.661424 1.194358,0.377309 2.4028698,0.722866 3.5603325,1.2015447 0.482812,0.199671 1.048392,0.385257 1.334191,0.82263 0.767423,1.174426 -2.107917,3.7807566 -2.6587152,4.4073156 -0.2198416,0.603404 -0.6829712,1.168435 -0.6595255,1.810211 0.054225,1.484237 1.9080597,1.79911 2.8834267,1.982553 2.7327388,0.513962 5.8651838,0.121039 8.6326398,0.39092 0.915588,0.05783 1.835864,0.06434 2.746762,0.173468 1.624449,0.194612 2.813228,0.585879 4.391581,0.948216 2.239173,0.514041 4.501258,0.974794 6.805328,1.052694 0.962436,0.01338 1.925156,0.06706 2.887309,0.04014 4.762597,-0.133264 9.461733,-1.111013 14.229,-1.194301 0.734086,-0.08054 1.286107,0.131361 1.367875,-0.878084 0.0098,-0.120637 -0.229601,0.07672 -0.345122,0.112829 -1.414427,0.442099 -2.863273,0.753746 -4.251052,1.281457 -0.422925,0.17201 -0.931513,0.208282 -1.268772,0.51603 -0.419207,0.382525 -0.768889,0.897572 -0.888371,1.452356 -0.22054,1.02402 2.460047,1.33654 2.830649,1.421113 0.642818,0.146695 1.285742,0.292924 1.928615,0.439385 1.883013,0.503613 1.957287,0.469286 3.692005,1.126272 0.967559,0.366442 1.794229,0.684881 1.486685,1.858608 -0.06784,0.07807 1.036265,1.037426 1.104103,0.959355 z" />
  </g>
</svg>
