<?xml version="1.0" encoding="UTF-8" standalone="no"?>
<!-- Created with Inkscape (http://www.inkscape.org/) -->

<svg
   width="189"
   height="248"
   viewBox="0 0 50.00626 65.616677"
   version="1.1"
   id="svg5"
   inkscape:version="1.2.2 (732a01da63, 2022-12-09)"
   sodipodi:docname="scrible.svg"
   xmlns:inkscape="http://www.inkscape.org/namespaces/inkscape"
   xmlns:sodipodi="http://sodipodi.sourceforge.net/DTD/sodipodi-0.dtd"
   xmlns="http://www.w3.org/2000/svg"
   xmlns:svg="http://www.w3.org/2000/svg">
  <sodipodi:namedview
     id="namedview7"
     pagecolor="#505050"
     bordercolor="#eeeeee"
     borderopacity="1"
     inkscape:showpageshadow="0"
     inkscape:pageopacity="0"
     inkscape:pagecheckerboard="0"
     inkscape:deskcolor="#505050"
     inkscape:document-units="mm"
     showgrid="false"
     inkscape:zoom="1.1039267"
     inkscape:cx="129.99052"
     inkscape:cy="159.88381"
     inkscape:window-width="1368"
     inkscape:window-height="842"
     inkscape:window-x="-6"
     inkscape:window-y="-6"
     inkscape:window-maximized="1"
     inkscape:current-layer="layer1"
     showguides="false" />
  <defs
     id="defs2" />
  <g
     inkscape:label="Layer 1"
     inkscape:groupmode="layer"
     id="layer1">
    <path
       style="opacity:0.76;fill:#000000;stroke-width:468.741"
       id="path306"
       d="m 5.7627569,0.07784401 c 1.13467,1.53842969 2.3859002,3.00091969 3.7526802,4.33816929 1.0792999,1.03974 2.2178899,1.37304 3.6070399,1.7525 1.15451,0.37274 2.06436,1.06125 2.76547,2.0367 0.53075,0.85017 0.93658,1.77779 0.92037,2.7910097 -0.0392,0.79101 -0.27826,1.54889 -0.4547,2.31513 -0.20982,0.82021 -0.24404,1.66242 -0.14092,2.49928 0.11323,0.7999 0.55643,1.39886 1.10148,1.96281 0.99326,1.00754 2.25955,1.50376 3.58741,1.8985 1.12862,0.27928 2.25557,0.19489 3.37454,-0.0653 0.62594,-0.1039 1.30718,-0.29349 1.93965,-0.11487 0.19551,0.0552 0.37299,0.2412 0.51529,0.36077 0.65247,1.05493 0.74772,2.38346 0.60457,3.58909 -0.14254,1.14908 -0.8617,2.18604 -0.8975,3.35161 -0.007,0.23628 0.0415,0.47095 0.0622,0.70642 0.51287,1.63705 1.99795,2.56416 3.31787,3.51673 0.56557,0.43191 1.47526,1.00788 1.07912,1.85289 -0.0727,0.15501 -0.18353,0.28907 -0.27529,0.43361 -1.01407,1.29539 -2.43829,1.64668 -3.96139,2.00956 -1.38826,0.38949 -2.97489,0.43611 -4.21236,1.24232 -0.80674,0.9508 -1.71927,1.39737 -2.88846,1.80016 -1.57147,0.50219 -3.21482,0.60005 -4.84469,0.74074 -1.33354,0.19438 -2.66137,0.40902 -3.97498,0.71261 -0.9135999,0.23632 -1.8074799,0.54287 -2.6585201,0.95185 -0.14311,0.0688 -0.72518,0.35003 -0.7377,0.44793 0.14255,0.17959 0.36693,0.31767 0.42765,0.53877 0.0238,0.0867 -0.20612,0.005 -0.25833,0.0777 -0.0344,0.0482 0.0628,0.10039 0.0967,0.14886 0.1891,0.27005 0.27498,0.40529 0.5818702,0.60095 0.16032,0.10221 0.34392,0.16223 0.51588,0.24335 0.19038,0.0454 0.37812,0.10391 0.57115,0.1363 0.26392,0.0443 0.53261,0.0545 0.7973999,0.0934 0.76105,0.11154 1.51586,0.29397 2.25967,0.48674 1.95962,0.54696 2.94168,0.48861 4.75588,-0.40046 1.01448,-0.47353 2.21799,-1.65278 3.4286,-1.46608 0.10156,0.0157 0.18187,0.0957 0.2728,0.1436 0.14488,0.088 0.30094,0.15979 0.43462,0.26401 0.40068,0.31237 0.89163,1.28809 1.24205,1.43405 0.25333,0.10552 0.53896,0.10373 0.80844,0.1556 0.80196,-0.19885 1.51226,-0.63675 2.23194,-1.02676 0.32306,-0.17507 0.90461,-0.54803 1.29783,-0.63005 0.16447,-0.0343 0.33597,0.006 0.50396,0.009 0.81581,0.37722 1.42765,1.11609 2.30285,1.37843 0.21464,0.0643 0.44157,0.0765 0.66236,0.11482 0.32284,-0.006 0.64705,0.0114 0.96851,-0.019 0.48859,-0.0462 0.9607,-0.21082 1.44877,-0.26222 0.66205,-0.0697 1.31145,-0.0238 1.96593,0.0761 0.70594,0.17189 1.49637,0.21627 2.12935,0.60736 0.59188,0.23126 1.00141,0.27643 1.49484,0.73616 0.15994,0.18824 0.18119,0.19387 0.29288,0.38456 0.0126,0.0215 0.01,0.0827 0.0302,0.0684 0.0239,-0.0168 -0.0131,-0.0604 -0.003,-0.0877 0.0228,-0.0603 0.13457,-0.11262 0.0988,-0.16631 -0.0365,-0.0549 -0.13135,0.0125 -0.19702,0.0187 -0.95362,0.39711 -1.76094,1.04566 -2.75544,1.34941 -2.15086,-0.20729 -4.26601,0.12319 -6.36827,0.547 -1.30054,0.18888 -2.5931,0.53711 -3.9172,0.49961 -0.37785,-0.0107 -0.82074,-0.13668 -1.17605,-0.21833 -1.00739,-0.43151 -1.96198,-0.75631 -3.07881,-0.63751 -0.422,0.0449 -1.52717,0.38738 -1.89773,0.49501 -1.21083,0.34191 -2.4829,1.0545 -3.62504,0.22829 -0.2693,-0.28551 -0.45976,-0.67576 -0.87417,-0.79419 -0.94929,-0.2713 -1.86803,0.01 -2.78619,0.2317 -0.88606,0.14993 -1.79389,0.59404 -2.7142999,0.51545 -0.13292,-0.0113 -0.64935,-0.10477 -0.77716,-0.12714 -0.21695,0.003 -0.44172,-0.0487 -0.6508402,0.009 -1.018,0.28151 -1.88475,1.7325 -2.25893,2.64493 -0.11575,0.58609 -0.0616,0.7102 0.60433,0.92106 0.10095,0.032 0.35201,-0.0412 0.60547,0.062 0.78734,0.17398 1.4454502,0.64895 2.2183402,0.87104 0.24222,0.012 0.48437,0.0462 0.72666,0.0359 0.7983199,-0.034 1.6037299,-0.29833 2.3897899,-0.42044 0.87053,-0.13524 1.31006,-0.16031 2.18901,-0.23928 1.4276,-0.20502 2.71865,0.15183 4.08964,0.45729 1.22766,0.2651 2.4687,0.17771 3.69221,-0.0454 0.15246,-0.0256 0.41283,-0.0742 0.5815,-0.0875 0.0269,-0.002 -0.0852,-0.009 -0.0791,0.0168 0.0102,0.0442 0.0728,0.0551 0.10356,0.0885 0.0652,0.0705 0.11983,0.1502 0.18338,0.22219 0.0986,0.11174 0.20201,0.21921 0.30302,0.32881 1.17039,1.03199 2.74433,1.32379 4.27099,1.21971 0.36415,-0.0248 0.71882,-0.12724 1.07823,-0.19086 0.76588,-0.18314 1.42603,-0.52908 2.05116,-0.99064 0.0733,-0.0541 0.22634,-0.0737 0.21846,-0.16451 -0.009,-0.10439 -0.20923,0.0477 -0.31274,0.0315 0.80846,1.37818 2.62939,1.0938 3.97912,0.97139 0.80292,-0.0434 1.71037,-0.44265 2.51153,-0.15175 0.1849,0.0671 0.53436,0.30178 0.69152,0.40125 1.0527,0.6762 2.26441,0.14116 3.34583,0.351 0.33753,0.0797 0.94879,0.27901 0.95879,0.7237 -0.004,-0.0156 -0.0216,-0.11398 -0.0507,-0.11341 -0.51513,0.0101 -2.04923,0.91284 -2.48712,1.15121 -1.4773,0.70707 -3.11731,1.79164 -4.8272,1.41129 -1.82828,-0.67084 -3.49059,-1.05102 -5.43828,-1.15418 -1.6933,-0.0397 -3.34395,0.39393 -5.01434,0.6062 -1.52013,0.0471 -3.02891,0.12368 -4.53865,0.32059 -1.28623,0.30805 -2.55902,-0.0735 -3.84266,-0.0797 -0.66598,0.0525 -1.0606,0.36752 -1.54085,0.77498 -0.0957,0.0811 -0.1697,0.19218 -0.28068,0.25064 -0.18761,0.0988 -0.18545,-0.0664 -0.2144,-0.16422 -1.1167,-0.70888 -2.33706,-1.15781 -3.67273,-0.81037 -0.2602399,0.0677 -0.4878499,0.22634 -0.7317699,0.33951 -0.65461,0.47391 -1.5585402,1.26988 -1.12655,2.15707 0.0663,0.047 0.12636,0.10425 0.19877,0.14114 0.31063,0.15826 0.022,-0.0928 0.0209,-0.0917 -0.0294,0.0294 -0.024,0.0796 -0.036,0.11934 -0.0321,0.44723 -0.33705,1.14071 -0.16764,1.57282 0.20293,-0.007 0.41951,0.0521 0.60879,-0.0214 0.0835,-0.0324 0.28586,-1.03674 0.23406,-1.16936 -0.1687,0.0953 -0.41367,0.11563 -0.5061,0.28593 -0.0725,0.13362 0.0607,0.29889 0.11076,0.44247 0.40095,1.15088 1.05933,1.30859 2.1492599,1.57791 1.17713,0.1099 2.28478,-0.15997 3.39831,-0.49789 0.52408,-0.15905 1.03531,-0.38074 1.58117,-0.4587 0.0451,0.0164 0.10144,0.0151 0.13523,0.0491 0.17625,0.17757 0.10135,0.4845 0.43286,0.80217 0.44084,0.42244 0.7039,0.41002 1.31331,0.59914 1.26177,0.20935 2.53436,0.0343 3.79657,-0.0589 0.68175,-0.0503 1.23375,-0.12391 1.88399,0.0417 1.07443,1.0568 1.21584,1.07669 2.68665,0.39969 0.62979,-0.32627 1.28727,-0.6761 2.02483,-0.53982 0.53804,0.0994 1.03174,0.65997 1.40117,1.00994 1.17179,1.22924 1.78672,1.2652 3.36215,0.71139 0.87283,-0.31623 1.35618,-0.70753 2.19906,-0.20663 1.07376,0.61433 1.876,-0.63994 2.34549,-1.44118 0.0701,-0.12467 0.16772,-0.36186 0.30916,-0.46394 0.0275,-0.0198 -0.0805,0.0567 -0.0589,0.0828 0.0516,0.0624 0.14148,0.08 0.21715,0.10879 0.53369,0.20293 0.52851,0.16372 1.14737,0.25372 0.84491,0.0469 1.6902,-0.0192 2.53383,-0.06 0.56982,-0.0276 1.02278,-0.0601 1.56119,0.12378 0.22522,0.15357 0.25181,0.40912 0.47137,0.57859 0.40701,0.31416 1.00078,0.24859 1.47535,0.25756 1.13328,0.0206 2.38143,0.13773 3.39675,0.69592 0.0377,-0.008 0.0755,-0.0153 0.11319,-0.023 0.002,0.0168 0.23881,-0.0125 0.23675,-0.0292 v 0 c 0.0261,-0.0979 0.0522,-0.19579 0.0783,-0.29369 -0.79985,-1.09846 -2.4595,-1.16708 -3.68991,-1.08402 -0.12685,0.0191 -0.99287,0.2248 -1.1749,0.13799 -0.30693,-0.14637 -0.20596,-0.62267 -0.55586,-0.74409 -0.14127,-0.0816 -0.27161,-0.18611 -0.42382,-0.24487 -1.20691,-0.46593 -2.57756,-0.0492 -3.81443,-0.007 -0.39747,0.008 -0.68189,0.04 -1.06454,-0.0388 -0.12523,-0.0258 -0.23761,-0.10845 -0.36516,-0.11744 -0.50468,-0.0356 -0.72347,0.1944 -0.99349,0.57088 -0.28935,0.4243 -0.62755,0.8105 -0.92087,1.22893 -0.03,0.0428 -0.0188,0.11091 -0.0577,0.14599 -0.14335,0.12952 -0.24242,0.0142 -0.37249,-0.0538 -0.94648,-0.76325 -1.96801,-0.43102 -2.99154,-0.002 -0.2876,0.12256 -0.82565,0.46194 -1.18156,0.40286 -0.50597,-0.084 -0.83025,-0.67414 -1.16714,-0.98003 -0.36166,-0.35693 -0.75997,-0.81159 -1.23909,-1.02369 -1.16252,-0.51462 -2.24151,-0.20627 -3.25459,0.45113 -0.053,0.0311 -0.799,0.56127 -0.96434,0.52014 -0.41768,-0.10391 -0.52763,-0.7236 -0.89274,-0.90529 -0.18227,-0.0965 -0.34808,-0.23438 -0.54682,-0.2895 -1.66079,-0.46059 -3.50223,0.0693 -5.18111,0.1192 -0.51603,-0.0219 -0.69658,0.053 -1.10649,-0.19374 -0.44035,-0.26507 -0.35066,-0.98004 -0.91993,-1.12968 -0.22258,-0.018 -0.44448,-0.0589 -0.66774,-0.054 -1.41928,0.0311 -2.75085,0.77152 -4.17227,0.82805 -0.62777,-0.019 -1.1846,2.7e-4 -1.6091699,-0.54203 -0.0905,-0.11566 -0.14405,-0.25635 -0.20603,-0.38951 -0.0576,-0.12367 -0.0497,-0.28979 -0.15211,-0.37993 -0.17779,-0.15652 -0.4247,-0.20989 -0.63706,-0.31484 -0.11992,0.13682 -0.38473,1.12904 -0.29959,1.20646 0.14807,0.13464 0.37156,0.14885 0.55734,0.22328 0.33418,-0.43667 0.22449,-1.14108 0.27633,-1.65041 -0.0136,-0.14606 -0.008,-0.31331 -0.0939,-0.44423 -0.014,-0.0214 -0.3918,-0.34147 -0.1896,-0.072 0.004,0.0284 -0.004,0.0604 0.0106,0.0853 0.008,0.0136 0.005,-0.0313 0.0121,-0.0455 0.0273,-0.0576 0.054,-0.1161 0.0897,-0.1689 0.25372,-0.37518 0.59711,-0.66027 0.98804,-0.88562 0.1430599,-0.0583 0.6899399,-0.30711 0.9128599,-0.3224 0.91103,-0.0625 1.70255,0.37033 2.5073,0.72579 0.26723,0.043 0.53105,0.13264 0.80169,0.12902 0.55057,-0.007 1.02325,-0.61328 1.43563,-0.90191 0.54621,0.0161 1.00266,0.19969 1.53806,0.28863 0.98373,0.16344 1.97029,0.17742 2.95296,1.1e-4 0.30363,-0.0573 0.60798,-0.11088 0.91091,-0.17176 0.38711,-0.0778 0.76616,-0.22376 1.16082,-0.23591 0.79927,-0.0246 1.60944,0.14994 2.40992,0.0221 0.98302,-0.12284 0.75621,-0.0749 1.72929,-0.27529 0.85456,-0.176 1.69048,-0.41614 2.57183,-0.28404 1.81002,0.23502 3.64735,0.40621 5.39015,0.97823 0.33466,0.0704 0.6646,0.16901 1.00397,0.21111 1.79173,0.22227 3.51861,-0.64171 5.01291,-1.51851 1.1669,-0.75079 0.51203,-0.30757 1.5366,-1.04353 0.36997,-0.26576 0.84923,-0.46441 0.98276,-0.93318 0.02,-0.84931 -0.6298,-1.36236 -1.38479,-1.62046 -0.78721,-0.1022 -0.66005,-0.11999 -1.36646,-0.10163 -0.4269,0.0111 -0.91775,0.11858 -1.34621,0.0671 -0.12341,-0.0148 -0.23924,-0.0676 -0.35885,-0.10133 -0.43581,-0.30576 -0.87879,-0.69435 -1.41658,-0.80685 -0.92879,-0.19429 -1.88948,-0.0382 -2.81467,0.07 -0.33002,0.0441 -0.6613,0.0796 -0.99007,0.13228 -0.71134,0.11394 -1.41667,0.32745 -1.91013,-0.34912 -0.10153,-0.10249 -0.16883,-0.25863 -0.30457,-0.30747 -0.44074,-0.15859 -0.91677,0.13519 -1.30606,0.27761 -0.70647,0.25847 -0.68764,0.22961 -1.47338,0.42537 -1.51069,0.2301 -2.8054,0.4026 -4.17179,-0.46224 -0.79776,-0.71648 -0.97412,-0.99267 -2.13625,-0.87245 -0.97745,0.0783 -1.97452,0.23248 -2.94056,-5.3e-4 -1.67606,-0.37926 -3.1576,-0.97096 -4.93782,-0.75049 -1.53449,0.18532 -3.04886,0.51961 -4.5048899,1.04281 -0.82103,-0.14142 -1.4370302,-0.86107 -2.2965902,-0.92332 -0.53727,-0.0309 -0.55036,-0.0729 -0.99399,0.0126 -0.0561,0.0108 -0.19347,0.002 -0.16365,0.0511 0.0868,0.14199 0.26537,0.2018 0.38747,0.31489 0.0849,0.0787 -0.13425,0.30328 0.15146,-0.13976 0.49912,-0.76901 1.01396,-1.56663 1.6382002,-2.23214 0.28317,0.0721 0.55182,0.2003 0.83912,0.25363 1.2094699,0.2245 2.4049799,-0.0228 3.5617799,-0.38047 0.50889,-0.15055 1.03504,-0.24377 1.53595,-0.41906 0.11897,-0.0416 0.20575,-0.25923 0.37995,-0.12686 0.2213,0.16817 0.20716,0.55589 0.46891,0.68949 0.14413,0.13485 0.27013,0.29217 0.43239,0.40454 1.35198,0.9362 3.1627,0.27244 4.55072,-0.18794 0.22168,-0.0836 1.62816,-0.63716 1.9167,-0.63181 0.68559,0.0127 1.31014,0.43632 1.95079,0.61376 0.26382,0.0832 0.51987,0.19696 0.79146,0.24944 1.7547,0.33906 3.53755,-0.0492 5.26998,-0.32434 2.1101,-0.34194 4.2226,-0.63465 6.35118,-0.84119 0.21261,-0.0667 0.43244,-0.11367 0.63781,-0.2001 0.75468,-0.31762 1.32821,-0.90708 2.00172,-1.35086 0.10548,-0.0908 0.24915,-0.13943 0.33535,-0.24869 0.27431,-0.34767 -0.0979,-0.85046 -0.29065,-1.11283 -0.47847,-0.44251 -0.95885,-0.71982 -1.62206,-0.6925 -0.62959,-0.57263 -1.42445,-0.85247 -2.24689,-1.04187 -0.34198,-0.0482 -0.68179,-0.11565 -1.02594,-0.1446 -1.15483,-0.0972 -2.29065,0.18423 -3.40868,0.43001 -0.16154,-0.008 -0.3264,0.01 -0.48461,-0.0238 -1.12558,-0.23899 -1.76477,-1.60725 -3.02843,-1.52593 -0.24743,0.0179 -0.49937,0.003 -0.74227,0.0538 -1.21267,0.25147 -2.13306,1.17436 -3.22397,1.68613 -0.016,0.0445 -0.002,0.14213 -0.048,0.1334 -0.20473,-0.0385 -0.39217,-0.53635 -0.43783,-0.61241 -0.22487,-0.37455 -0.45098,-0.70124 -0.78951,-0.98764 -0.1831,-0.1549 -0.39719,-0.26891 -0.59579,-0.40336 -0.3218,-0.0767 -0.63646,-0.19496 -0.9654,-0.23008 -1.4091,-0.15047 -2.60692,0.90618 -3.74902,1.54362 -1.44824,0.70855 -2.21606,0.80813 -3.77613,0.38264 -1.18867,-0.26997 -2.36927,-0.54236 -3.5929699,-0.58629 -0.26892,-0.0743 -0.47131,-0.0936 -0.68675,-0.28243 -0.11762,-0.1031 -0.8163002,-1.11557 -1.1124302,-0.65302 -0.12423,0.19406 0.12754,0.44283 0.19131,0.66424 1.1166902,0.0802 2.6012801,-0.79185 3.6973101,-0.99113 1.2055,-0.34837 2.42416,-0.82193 3.68571,-0.87702 1.79236,0.12629 3.58101,0.0682 5.2514,-0.68972 0.62608,-0.34842 1.01432,-0.52066 1.55323,-0.97364 0.4,-0.33621 0.61998,-0.73952 0.96777,-1.1046 0.0374,-0.0392 0.0895,-0.0611 0.13426,-0.0916 1.39183,-0.39008 2.87583,-0.42909 4.24287,-0.93467 1.61718,-0.49633 3.2211,-1.09735 4.16717,-2.59559 0.0899,-0.19942 0.20349,-0.3898 0.26978,-0.59827 0.33674,-1.05904 -0.35859,-1.87555 -1.11982,-2.51495 -0.87018,-0.67706 -2.36626,-1.59652 -2.95028,-2.50072 -0.1022,-0.15823 -0.15847,-0.34178 -0.2377,-0.51267 -0.0197,-0.18575 -0.0647,-0.37053 -0.0592,-0.55724 0.0346,-1.18192 0.88948,-2.19295 0.91599,-3.3837 0.1104,-1.42538 0.0352,-2.87444 -0.89485,-4.04312 -0.13461,-0.1146 -0.25007,-0.25654 -0.40383,-0.34378 -0.83728,-0.47508 -1.83846,-0.29136 -2.72141,-0.0922 -0.14129,0.0303 -0.83494,0.18236 -0.97982,0.1999 -0.72515,0.0878 -1.45053,-0.16936 -2.15101,-0.30789 -1.15652,-0.28771 -2.23737,-0.72689 -3.14727,-1.51684 -0.54163,-0.44894 -0.92323,-0.9223 -0.98865,-1.65031 -0.0872,-0.78336 -0.0598,-1.56274 0.11566,-2.33461 0.19867,-0.79981 0.44922,-1.59607 0.49734,-2.4232 -0.0162,-1.1250497 -0.30136,-2.1739797 -0.92405,-3.1264397 -0.892,-1.18799 -1.86065,-1.97609 -3.34565,-2.30778 -1.23617,-0.29669 -2.05098,-0.69231 -2.99483,-1.6027296 -1.3379999,-1.39599 -2.4289601,-3.05844969 -4.0475801,-4.16134969 -0.018,-0.0226 -0.33773,0.23132 -0.31977,0.25393 z" />
  </g>
</svg>
