<?xml version="1.0" encoding="UTF-8" standalone="no"?>
<!-- Created with Inkscape (http://www.inkscape.org/) -->

<svg
   width="320"
   height="300"
   viewBox="0 0 84.666554 79.374998"
   version="1.1"
   id="svg5"
   inkscape:version="1.2.2 (732a01da63, 2022-12-09)"
   sodipodi:docname="spiral.svg"
   xmlns:inkscape="http://www.inkscape.org/namespaces/inkscape"
   xmlns:sodipodi="http://sodipodi.sourceforge.net/DTD/sodipodi-0.dtd"
   xmlns="http://www.w3.org/2000/svg"
   xmlns:svg="http://www.w3.org/2000/svg">
  <sodipodi:namedview
     id="namedview7"
     pagecolor="#505050"
     bordercolor="#eeeeee"
     borderopacity="1"
     inkscape:showpageshadow="0"
     inkscape:pageopacity="0"
     inkscape:pagecheckerboard="0"
     inkscape:deskcolor="#505050"
     inkscape:document-units="mm"
     showgrid="false"
     inkscape:zoom="1.1039267"
     inkscape:cx="264.96324"
     inkscape:cy="201.55324"
     inkscape:window-width="1368"
     inkscape:window-height="842"
     inkscape:window-x="-6"
     inkscape:window-y="-6"
     inkscape:window-maximized="1"
     inkscape:current-layer="layer1"
     showguides="false" />
  <defs
     id="defs2" />
  <g
     inkscape:label="Layer 1"
     inkscape:groupmode="layer"
     id="layer1">
    <path
       style="fill:#f9a8d4;stroke-width:270.621;fill-opacity:1"
       id="path431"
       d="m 40.862062,42.953959 c 1.250881,0.24307 2.529914,0.392456 3.685146,0.969518 0.217887,0.108839 0.418816,0.248748 0.628224,0.37312 0.136464,0.135671 0.302852,0.246764 0.409392,0.407009 0.568881,0.855628 -0.266168,2.366685 -0.643668,3.136731 -0.272375,0.438139 -0.465219,0.826232 -0.85803,1.171326 -0.824646,0.724471 -2.043753,0.992396 -3.058742,1.311793 -1.358792,0.421556 -2.818509,0.681363 -4.215188,0.249973 -0.322575,-0.09963 -0.622015,-0.262725 -0.933022,-0.394088 -0.306898,-0.22206 -0.635002,-0.417428 -0.920697,-0.666176 -1.649778,-1.436423 -2.775254,-3.422817 -3.681616,-5.379612 -0.4459,-1.311658 -0.706022,-2.701835 -0.182608,-4.033753 0.303676,-0.77275 0.482802,-0.892643 0.997231,-1.519973 0.2472,-0.195008 0.482748,-0.405773 0.741603,-0.585025 0.561576,-0.388877 1.198168,-0.701246 1.809065,-0.998889 0.998736,-0.486601 1.998797,-0.904188 3.045632,-1.273829 1.234773,-0.332182 2.480201,-0.749194 3.77222,-0.769707 0.801764,-0.01273 1.04608,0.06852 1.853139,0.204306 1.923682,0.427262 3.806452,1.05573 5.591519,1.889858 1.637731,0.722995 2.610757,2.065652 3.679346,3.426835 1.089414,1.469057 1.864738,3.106799 2.374918,4.856078 0.402125,1.637104 -0.02058,3.227268 -0.654888,4.739545 -0.872059,1.723855 -2.172703,3.113939 -3.615685,4.368625 -1.479341,1.331399 -3.213383,1.917589 -5.103349,2.395437 -2.224178,0.49838 -4.506704,0.70008 -6.782541,0.68971 -2.52272,-0.02484 -5.019606,-0.363434 -7.477882,-0.910851 -0.962795,-0.278374 -1.923613,-0.615501 -2.730672,-1.229853 -0.823431,-0.626811 -1.439349,-1.448911 -2.058839,-2.26369 -0.846193,-1.234345 -1.646587,-2.521251 -2.087867,-3.962492 -0.285387,-0.932096 -0.277389,-1.147969 -0.411832,-2.106232 -0.146978,-2.302047 0.242041,-4.580535 0.539576,-6.853679 0.320688,-1.916978 0.653372,-3.838953 1.291277,-5.680893 0.390809,-1.128445 0.623504,-1.591487 1.099064,-2.656067 0.992251,-1.843611 2.483069,-3.292195 4.136583,-4.538591 1.495996,-1.162061 3.351342,-1.694659 5.181348,-2.064102 2.473003,-0.465746 4.970331,-0.545253 7.472633,-0.367652 2.383962,0.120923 4.743637,0.480992 7.047748,1.100328 1.958533,0.711409 3.539091,2.098284 5.082053,3.452437 1.714328,1.584251 3.261601,3.33221 4.661369,5.197494 1.323239,1.964303 1.746443,4.15387 1.961607,6.466326 0.05526,2.757324 -0.289229,5.50377 -0.77108,8.213164 -0.28706,1.239496 -0.694548,2.447094 -1.194554,3.61628 -0.271167,0.634074 -0.559028,1.273511 -0.977067,1.829091 -0.26234,0.348655 -0.573503,0.657746 -0.860256,0.986618 -2.725663,2.985344 -5.87068,5.531033 -9.032718,8.032872 -1.087472,0.765431 -2.202331,1.616141 -3.496541,2.012373 -1.430715,0.438026 -2.951601,0.527743 -4.428688,0.702082 -2.156687,0.254315 -4.349887,0.364477 -6.51074,0.08657 -1.34413,-0.17287 -2.329574,-0.406405 -3.660558,-0.68403 -2.864569,-0.696172 -5.718762,-1.650249 -8.294981,-3.108638 -0.422269,-0.239045 -0.823367,-0.513696 -1.235048,-0.770543 -1.726996,-1.165347 -3.172188,-2.674157 -4.311407,-4.415197 -0.264202,-0.403776 -0.502226,-0.824085 -0.753343,-1.236128 -1.32381,-2.201643 -2.321858,-4.540735 -2.780008,-7.079832 -0.102071,-0.565687 -0.154604,-1.139203 -0.231905,-1.708804 -0.174067,-2.675485 -0.375444,-5.364575 -0.280141,-8.048037 0.05167,-1.454928 0.164762,-2.444708 0.299712,-3.886811 0.195525,-1.897759 0.459145,-3.857337 1.308174,-5.593395 0.51171,-1.046321 0.870487,-1.443062 1.562574,-2.383811 1.300647,-1.503691 2.615544,-3.022741 4.12501,-4.325242 0.765995,-0.660969 1.684896,-1.324843 2.494664,-1.929439 1.312592,-0.933911 2.671564,-1.884614 4.191346,-2.458456 0.857414,-0.323747 1.103347,-0.352798 1.997141,-0.567359 2.746603,-0.446654 5.509001,-0.824214 8.289375,-0.963337 0.485537,-0.01794 0.97091,-0.04117 1.456613,-0.05384 2.52085,-0.06576 4.725085,0.256326 7.199982,0.667491 2.294067,0.386844 4.601057,0.720788 6.872383,1.232289 1.786107,0.40223 2.315895,0.6033 4.095742,1.149289 0.675849,0.242517 1.367649,0.444489 2.027544,0.727551 2.187001,0.938115 4.93751,2.614821 6.51901,4.420378 0.37661,0.429953 0.6811,0.918072 1.02165,1.377108 0.27076,0.472827 0.57335,0.928796 0.81229,1.418477 0.47599,0.97551 1.05172,2.624415 1.39114,3.624812 0.45555,1.342668 0.84465,2.575563 1.19424,3.948761 0.15488,0.608333 0.27825,1.224256 0.41737,1.836386 0.71606,3.489743 0.33136,7.062422 -0.0549,10.567135 -0.34477,2.91301 -0.85924,5.853028 -1.99607,8.576336 -0.24613,0.589608 -0.55191,1.152507 -0.82787,1.728761 -1.54653,2.875426 -3.63535,5.470115 -6.20926,7.492791 -0.477409,0.375166 -0.986282,0.708467 -1.479426,1.062699 -3.361137,2.050693 -7.137984,3.30481 -10.874859,4.479875 -4.100031,1.194525 -8.243739,2.280962 -12.440758,3.078149 -2.363584,0.404273 -4.777298,0.742209 -7.183329,0.683959 -1.362318,-0.03298 -2.344719,-0.180391 -3.694485,-0.339387 -2.19238,-0.32341 -4.370835,-0.990899 -6.16204,-2.346452 -1.078508,-0.816192 -1.884956,-1.766181 -2.808912,-2.748822 -2.93487,-3.3909 -5.317482,-7.201609 -7.505496,-11.102713 C 8.565816,56.669107 7.213985,54.511795 6.247867,52.177009 5.921284,51.387767 5.650743,50.575822 5.390059,49.762432 5.143375,48.992724 4.879789,48.223774 4.726548,47.430161 4.551558,46.523916 4.514566,45.596398 4.408577,44.679516 c -0.338466,-3.011474 -0.0512,-6.019914 0.307506,-9.01187 0.29218,-2.437032 0.4405,-3.584381 0.998922,-5.965901 0.214696,-0.915628 0.487854,-1.816555 0.731779,-2.724836 0.847989,-2.303221 1.668584,-4.652271 2.966542,-6.753336 0.609307,-0.986311 1.749656,-2.462117 2.551092,-3.327344 0.457501,-0.493916 0.963604,-0.940477 1.445408,-1.410719 2.467917,-1.938682 5.056632,-3.781487 7.845028,-5.237975 1.890564,-0.9875151 2.354649,-1.1321921 4.29537,-1.9394061 3.340391,-1.123829 6.715202,-2.253093 10.205294,-2.818686 0.685837,-0.111144 1.377595,-0.18201 2.066393,-0.273015 1.366012,-0.156335 2.50824,-0.328979 3.887695,-0.319474 2.40266,0.01656 4.828648,0.443585 7.164689,0.969454 0.873559,0.196648 1.73605,0.439577 2.604077,0.659366 2.949651,0.765618 5.813602,1.822267 8.603763,3.040127 0.515286,0.224915 1.035447,0.4400541 1.539531,0.6890601 0.556712,0.275001 1.093853,0.587957 1.640782,0.881936 2.814876,1.815703 5.694786,3.642276 8.082156,6.019253 0.42387,0.422021 0.8098,0.880502 1.21471,1.320753 1.60732,1.887254 3.07477,3.891081 4.25907,6.071912 0.60637,1.116603 1.02212,2.029624 1.56589,3.173352 0.82743,1.791626 1.78232,3.526882 2.38383,5.413711 0.43034,1.349859 0.40164,1.449287 0.66882,2.876555 0.35896,2.043993 0.46315,4.11085 0.44725,6.181204 0.006,0.09177 1.3042,0.0013 1.2978,-0.0905 v 0 c 0.028,-0.520859 0.0788,-1.04099 0.084,-1.562573 0.0165,-1.639914 -0.1798,-3.276952 -0.44317,-4.892138 -0.28856,-1.291717 -0.36151,-1.771539 -0.76681,-3.009625 -0.62526,-1.910032 -1.52097,-3.717467 -2.29644,-5.567172 -0.59715,-1.320779 -0.88182,-2.013458 -1.58117,-3.298402 -1.23004,-2.26001 -2.71968,-4.370276 -4.43017,-6.292072 -1.05163,-1.168294 -1.47782,-1.703038 -2.65463,-2.760861 -2.11284,-1.89921 -4.50124,-3.485513 -6.96246,-4.8909181 -0.6288,-0.334181 -2.539758,-1.359282 -3.228005,-1.689933 -2.811161,-1.35055 -5.719646,-2.519628 -8.718587,-3.381026 -2.152735,-0.532705 -3.184424,-0.843624 -5.375211,-1.166419 -2.95582,-0.435516 -5.93289,-0.380111 -8.894739,-0.03487 -4.289062,0.648466 -8.545883,1.530285 -12.6316,3.022127 -0.741592,0.282561 -1.494062,0.538081 -2.22478,0.847683 -4.067607,1.723432 -7.801944,4.1874541 -11.046606,7.1771301 -1.061439,1.064458 -2.003478,1.941788 -2.924955,3.138046 -2.05635,2.66954 -3.524859,5.835467 -4.609976,9.005596 -0.26933,0.9447 -0.574566,1.879896 -0.807992,2.834105 -1.243296,5.082398 -1.670479,10.345764 -1.189485,15.557072 0.387466,2.192194 0.498353,3.296904 1.170294,5.374518 1.07078,3.310797 2.798594,6.355876 4.516642,9.361405 1.766869,2.898598 0.766471,1.292339 2.503048,4.011258 1.203267,1.883931 2.376008,3.80429 3.776892,5.552091 0.488816,0.609867 1.02652,1.178885 1.53978,1.768329 1.236779,1.193403 1.792841,1.81759 3.160919,2.814625 1.97694,1.440767 4.269856,2.241399 6.662476,2.668351 0.642268,0.08167 1.281599,0.191257 1.926801,0.244999 3.12874,0.260607 6.276742,-0.02686 9.369441,-0.499075 4.250124,-0.787136 8.479385,-1.691209 12.61078,-2.978605 4.137673,-1.342213 8.30884,-2.727553 11.941796,-5.190702 1.197703,-0.87621 1.954867,-1.378101 3.050767,-2.391664 2.08037,-1.924068 3.69712,-4.24031 4.99168,-6.751674 0.73963,-1.654263 0.95369,-1.986452 1.4695,-3.710787 0.68277,-2.282449 0.95642,-4.659243 1.32414,-7.004775 0.44861,-3.656211 0.71584,-7.345912 0.0563,-10.999636 -0.1298,-0.641604 -0.23871,-1.287791 -0.38941,-1.924812 -0.778,-3.288713 -2.02904,-6.465401 -3.70802,-9.397304 -1.03067,-1.408465 -1.17412,-1.754669 -2.48471,-2.937121 -2.19544,-1.980803 -4.86197,-3.359767 -7.64886,-4.294897 -0.735666,-0.205496 -1.466284,-0.430011 -2.206998,-0.61649 -2.965781,-0.746656 -6.008701,-1.082754 -9.019413,-1.588108 -2.952845,-0.443164 -5.923121,-0.816166 -8.917019,-0.643742 -2.860011,0.179118 -5.707579,0.482481 -8.507905,1.115147 -0.707824,0.161854 -1.493496,0.321295 -2.181378,0.55997 -1.851345,0.642363 -3.537437,1.634257 -5.129252,2.766036 -0.434883,0.329134 -0.880886,0.64407 -1.304648,0.987404 -2.036865,1.65028 -3.868893,3.570692 -5.509574,5.609108 -0.794745,1.171747 -1.022885,1.399641 -1.606056,2.679698 -0.850709,1.867296 -1.231656,3.904683 -1.571225,5.913146 -0.06958,0.653656 -0.157591,1.305613 -0.208735,1.960967 -0.2676,3.429085 -0.198562,6.899495 0.288314,10.304484 0.23514,1.339186 0.334031,2.103824 0.693809,3.399483 0.572923,2.063258 1.481433,4.019153 2.610302,5.83474 1.52165,2.252564 3.155527,4.448196 5.393888,6.046745 1.191345,0.808569 1.434828,1.023437 2.741121,1.700138 2.251614,1.166408 4.676515,1.944841 7.124144,2.579481 0.651642,0.126452 1.299647,0.273357 1.954927,0.379357 2.862707,0.463084 5.774092,0.572167 8.655825,0.224459 1.538488,-0.211666 3.212023,-0.419769 4.703979,-0.869984 1.672209,-0.504608 3.208872,-1.288778 4.637704,-2.290601 0.561451,-0.415481 1.134634,-0.815557 1.684348,-1.246439 2.693239,-2.111044 5.151718,-4.536316 7.281984,-7.213772 0.654169,-0.924732 0.869871,-1.169217 1.390799,-2.110224 0.839115,-1.515782 1.427223,-3.158368 1.828755,-4.840645 0.09738,-0.4743 0.210894,-0.94557 0.292144,-1.422897 0.39819,-2.339202 0.45158,-4.73497 0.34743,-7.100136 -0.0636,-0.883364 -0.0803,-1.459346 -0.24766,-2.338416 -0.319395,-1.677641 -0.931969,-3.281543 -1.87933,-4.705888 -0.238472,-0.33071 -0.46612,-0.669496 -0.715413,-0.992126 -1.223444,-1.583346 -2.677511,-2.979245 -4.115816,-4.362672 -1.639461,-1.484397 -3.391963,-2.886742 -5.46088,-3.725199 -0.35029,-0.115742 -0.695828,-0.246999 -1.050865,-0.347226 -2.018125,-0.569719 -4.133926,-0.734107 -6.212567,-0.922573 -2.605114,-0.102647 -5.238509,-0.255812 -7.80706,0.307137 -0.542838,0.1403 -1.09052,0.263048 -1.628516,0.420901 -1.610834,0.472634 -3.100805,1.246056 -4.46931,2.210801 -1.841352,1.372269 -3.524763,2.803257 -4.599003,4.891743 -0.214434,0.434467 -0.451194,0.858613 -0.643305,1.303401 -1.012944,2.345267 -1.461702,4.879578 -1.73667,7.404619 -0.308083,2.369767 -0.710742,4.761838 -0.499729,7.156492 0.05616,0.39176 0.09138,0.787098 0.168481,1.175279 0.395444,1.991008 1.353101,3.812379 2.534727,5.444045 1.562587,1.9283 2.893341,3.287819 5.358919,3.996598 2.532279,0.648356 5.128604,1.017534 7.747394,1.015016 2.366367,-0.06177 4.747654,-0.147154 7.060626,-0.702377 2.360197,-0.628845 4.269475,-1.25962 6.12503,-2.928741 1.531641,-1.389642 2.95884,-2.902104 3.795889,-4.826368 0.118301,-0.302099 0.253635,-0.598069 0.354904,-0.906296 0.477952,-1.4547 0.532916,-3.000076 0.237874,-4.496644 -0.206407,-0.802087 -0.224848,-0.985798 -0.548074,-1.768398 -0.503274,-1.218541 -1.222163,-2.332027 -1.943089,-3.429513 -0.177808,-0.265398 -0.340783,-0.541359 -0.533427,-0.796198 -0.942509,-1.246809 -2.146681,-2.225257 -3.528377,-2.9484 -1.863566,-0.890405 -3.797946,-1.650939 -5.830475,-2.056416 -0.788238,-0.113786 -1.276831,-0.210825 -2.06715,-0.225477 -1.589063,-0.02946 -3.149462,0.375515 -4.643241,0.879149 -1.710674,0.653915 -3.631438,1.412203 -5.092668,2.537042 -0.299432,0.230497 -0.562565,0.504653 -0.843847,0.756978 -0.592301,0.778164 -0.818721,0.953148 -1.155422,1.894115 -0.558503,1.560843 -0.348734,3.191058 0.189431,4.721223 0.167458,0.392602 0.318252,0.792736 0.502375,1.177803 0.836967,1.750393 1.977501,3.454992 3.508084,4.675552 0.354918,0.28303 0.757235,0.50088 1.135851,0.751319 0.995368,0.39392 1.156753,0.535337 2.205424,0.659688 1.420135,0.1684 2.811526,-0.176326 4.153828,-0.605591 1.90522,-0.686197 3.275151,-1.218174 4.275752,-3.096324 0.538969,-1.202092 1.182391,-2.757582 0.366879,-4.003174 -0.138832,-0.212048 -0.343448,-0.372828 -0.515173,-0.559242 -0.238294,-0.155647 -0.46223,-0.335881 -0.714886,-0.46694 -1.226036,-0.635973 -2.667743,-0.765489 -4.025132,-0.734922 -0.03885,-0.0098 -0.177917,0.539623 -0.139065,0.549455 z" />
  </g>
</svg>
