<?xml version="1.0" encoding="UTF-8" standalone="no"?>
<!-- Created with Inkscape (http://www.inkscape.org/) -->

<svg
   width="500"
   height="500"
   viewBox="0 0 132.29174 132.29166"
   version="1.1"
   id="svg5"
   inkscape:version="1.2.2 (732a01da63, 2022-12-09)"
   sodipodi:docname="traveler.svg"
   xmlns:inkscape="http://www.inkscape.org/namespaces/inkscape"
   xmlns:sodipodi="http://sodipodi.sourceforge.net/DTD/sodipodi-0.dtd"
   xmlns="http://www.w3.org/2000/svg"
   xmlns:svg="http://www.w3.org/2000/svg">
  <sodipodi:namedview
     id="namedview7"
     pagecolor="#505050"
     bordercolor="#eeeeee"
     borderopacity="1"
     inkscape:showpageshadow="0"
     inkscape:pageopacity="0"
     inkscape:pagecheckerboard="0"
     inkscape:deskcolor="#505050"
     inkscape:document-units="mm"
     showgrid="false"
     inkscape:zoom="0.4921875"
     inkscape:cx="669.46032"
     inkscape:cy="553.65079"
     inkscape:window-width="1368"
     inkscape:window-height="842"
     inkscape:window-x="-6"
     inkscape:window-y="-6"
     inkscape:window-maximized="1"
     inkscape:current-layer="layer1"
     showguides="false" />
  <defs
     id="defs2" />
  <g
     inkscape:label="Layer 1"
     inkscape:groupmode="layer"
     id="layer1">
    <path
       style="opacity:0.76;fill:#000000;stroke-width:624.755"
       id="path9395"
       d="m 66.187496,30.26871 c -1.76277,-3.233143 -2.894375,-6.833922 -2.314738,-10.55543 0.133977,-0.86024 0.33946,-1.732169 0.741657,-2.504294 0.289373,-0.555487 0.853083,-0.917299 1.279644,-1.375941 0.553301,0.06198 1.150545,-0.03892 1.659902,0.18585 0.588501,0.259744 1.054447,0.749321 1.50312,1.210256 4.820966,4.95273 4.06454,9.249943 3.48433,15.634367 -1.756959,6.146858 -0.991471,4.065233 -3.361962,9.984736 -0.593646,1.482434 -1.318509,2.914835 -1.826773,4.428658 -0.406502,1.210736 -0.606481,2.481249 -0.909728,3.721867 -0.05105,0.117823 1.615932,0.839181 1.666966,0.721305 v 0 c 0.68805,-1.067749 1.461749,-2.084904 2.064112,-3.203221 0.774231,-1.437465 1.416619,-2.943451 2.055781,-4.445851 2.428509,-5.708488 1.917379,-4.69292 3.443318,-10.786824 0.123554,-1.831918 0.453111,-3.661517 0.370835,-5.495768 -0.241243,-5.377011 -2.770315,-12.690715 -8.971673,-13.748441 -0.920191,-0.156955 -1.839755,0.317388 -2.759666,0.476089 -0.606881,0.659288 -1.37818,1.198607 -1.820656,1.977824 -0.515874,0.908515 -0.810511,1.944476 -0.990857,2.973546 -0.73418,4.189387 0.611452,8.315758 3.248897,11.555391 0.05331,0.101696 1.490805,-0.652463 1.437491,-0.754119 z" />
    <path
       style="opacity:0.76;fill:#000000;stroke-width:624.755"
       id="path9399"
       d="m 55.81817,38.534073 c 0.560431,1.196875 1.314137,2.614027 1.175376,3.993807 -0.284414,2.828107 -2.570337,5.446599 -4.107951,7.638556 -6.038045,6.821207 -14.422644,11.582501 -19.27741,19.464247 -0.698526,1.134018 -1.102483,2.424937 -1.653704,3.637406 0.127686,1.124181 -0.125287,2.3618 0.383151,3.372537 1.434532,2.851939 5.308103,4.386314 7.990478,5.190068 3.270649,0.980049 8.579246,1.438865 11.971703,1.190744 1.788561,-0.130752 3.528727,-0.642268 5.293056,-0.963415 0.149478,-0.03932 -0.406715,-2.153119 -0.556193,-2.113786 v 0 c -5.483905,-0.03839 -10.964024,0.11609 -16.389844,-0.85299 -1.520301,-0.271538 -5.032594,-0.991777 -6.18811,-2.525873 -0.446234,-0.592399 -0.232074,-1.465034 -0.348124,-2.197561 0.589274,-1.015143 1.077866,-2.095807 1.767782,-3.04544 5.433644,-7.479296 13.608454,-12.413579 19.036033,-19.890728 2.726412,-4.5313 5.248899,-8.388237 1.675496,-13.209802 -0.02226,-0.05465 -0.793811,0.257664 -0.771739,0.31223 z" />
    <path
       style="opacity:0.76;fill:#000000;stroke-width:624.755"
       id="path9399-4"
       d="m 79.271545,47.018115 c -0.560431,1.196874 -1.314137,2.614026 -1.175375,3.993806 0.284414,2.828107 2.570336,5.446599 4.10795,7.638556 6.038046,6.821208 14.422644,11.582502 19.27741,19.464241 0.69853,1.134017 1.10248,2.424937 1.6537,3.637405 -0.12768,1.124182 0.12529,2.361801 -0.38315,3.372545 -1.43453,2.851938 -5.3081,4.386314 -7.990475,5.190068 -3.270649,0.980048 -8.579246,1.438864 -11.971703,1.190743 -1.788561,-0.130751 -3.528726,-0.642268 -5.293056,-0.963415 -0.149478,-0.03932 0.406715,-2.153118 0.556193,-2.113786 v 0 c 5.483905,-0.03839 10.964025,0.11609 16.389845,-0.852989 1.5203,-0.271539 5.032593,-0.991778 6.188106,-2.525873 0.44624,-0.592406 0.23208,-1.465041 0.34813,-2.197569 -0.58928,-1.015142 -1.077868,-2.095806 -1.767785,-3.045439 C 93.777691,72.327119 85.602881,67.392836 80.175302,59.915686 77.44889,55.384387 74.926403,51.527449 78.499806,46.705884 c 0.02226,-0.05465 0.793811,0.257664 0.771739,0.312231 z" />
    <path
       style="opacity:0.76;fill:#000000;stroke-width:624.755"
       id="path9401"
       d="m 63.908865,71.941289 c -4.803186,-0.424628 -9.591696,0.0027 -13.972772,2.196276 -1.424083,0.713108 -2.724999,1.649399 -4.087478,2.474086 -6.11599,4.700223 -11.585607,10.712811 -13.844233,18.260512 -0.367143,1.22681 -0.521326,2.507506 -0.781962,3.761266 -0.325319,4.319101 0.712801,8.335751 4.069752,11.275831 2.215535,1.94041 3.395136,2.14906 6.161053,3.31302 1.519194,0.32969 3.017983,0.77415 4.557636,0.98908 4.386394,0.61233 9.107903,-0.12115 12.825266,-2.61525 0.730434,-0.49007 1.36068,-1.11508 2.041,-1.67262 1.586382,-1.75485 2.801223,-3.81732 2.09494,-6.28119 -0.703885,-2.45549 -2.812713,-4.012362 -4.670382,-5.545671 -0.238884,-0.159967 -2.533936,-1.678695 -3.01625,-2.055248 -0.06704,-0.05238 -0.216253,-0.256611 -0.145612,-0.209349 0.302007,0.202098 0.497228,0.598231 0.850976,0.68136 0.77867,0.182985 1.599205,0.04598 2.398307,0.08224 1.054408,0.04772 2.107949,0.113158 3.16193,0.169737 5.003737,0.198792 9.576714,1.898453 14.018621,4.063541 0.103828,0.0912 1.392281,-1.377794 1.288387,-1.468894 v 0 c -0.68028,-0.461401 -1.327599,-0.975717 -2.040934,-1.384191 -4.210179,-2.410863 -8.970274,-3.440146 -13.785694,-3.616307 -2.118065,0.04985 -6.238038,-0.462619 -7.522866,1.894068 -0.561098,1.029244 2.638111,3.033591 3.096594,3.353685 1.436318,1.103219 3.544094,2.375659 4.282712,4.150179 0.738152,1.77334 -0.43993,3.37925 -1.531403,4.63131 -0.599644,0.46553 -1.151145,1.00077 -1.798917,1.39661 -4.489862,2.74363 -9.773468,2.35039 -14.717534,1.38064 -1.100644,-0.34295 -2.245124,-0.56814 -3.301891,-1.02887 -3.242699,-1.41368 -5.701064,-4.3395 -5.972177,-7.92246 -0.07557,-0.99804 0.07051,-2.00053 0.105828,-3.000783 0.253092,-1.128899 0.404529,-2.285522 0.759317,-3.386699 2.269808,-7.044315 7.454531,-12.571524 13.113585,-17.086936 1.21568,-0.814603 2.369824,-1.729623 3.647108,-2.44383 3.990555,-2.231396 8.546525,-2.563206 12.956404,-3.334452 0.07224,-0.01693 -0.167112,-1.037547 -0.239271,-1.020633 z" />
    <path
       style="opacity:0.76;fill:#000000;stroke-width:624.755"
       id="path9405"
       d="m 80.703865,79.059846 c 4.448078,3.003202 9.298232,5.356552 13.742951,8.363953 0.993443,0.672176 1.937905,1.41406 2.906837,2.121077 1.928722,1.617851 3.583237,3.390257 3.497127,6.07081 -0.0717,2.231476 -1.532151,4.18203 -2.651375,5.989834 -1.188171,1.62942 -2.434174,3.45052 -4.277221,4.42586 -2.226704,1.1784 -4.904707,1.4967 -7.345092,1.87745 -5.694893,0.60756 -11.210133,-0.87174 -16.677924,-2.23016 -1.427375,-0.24389 -3.85939,-1.57061 -3.909678,1.06475 -0.004,0.14955 1.536055,2.73841 1.570149,2.79683 1.556727,2.64345 3.218015,5.23173 5.107872,7.65205 0.678387,0.86879 1.316403,1.78289 2.117864,2.53962 0.778537,0.7351 1.725105,1.26887 2.58765,1.90332 0.06451,0.094 1.392842,-0.81852 1.328306,-0.91246 v 0 c -0.523605,-0.79636 -1.00232,-1.62412 -1.570829,-2.38909 -0.630778,-0.84877 -1.368197,-1.61352 -2.021727,-2.44491 -1.886164,-2.3996 -3.647375,-4.90207 -5.443333,-7.36882 -0.396093,-0.52091 -0.774459,-1.05583 -1.188318,-1.56275 -0.21536,-0.26378 -0.35808,-0.77793 -0.697181,-0.74671 -0.428787,0.0395 -0.70731,0.52799 -0.93,0.89651 -0.06091,0.10089 3.011212,1.08812 3.001763,1.09949 5.727574,1.69659 11.570719,3.10028 17.579215,2.07271 6.056039,-1.20782 9.130827,-2.35787 12.755399,-7.55457 1.31879,-2.20289 2.79483,-4.551213 2.86611,-7.225577 0.0848,-3.180753 -1.58752,-5.52668 -3.789167,-7.630577 -0.9861,-0.776057 -1.932041,-1.606028 -2.958272,-2.328173 -4.522583,-3.182428 -9.615581,-5.530981 -14.663368,-7.734147 -0.08863,-0.06624 -1.026405,1.187371 -0.937758,1.25368 z" />
  </g>
</svg>
