<?xml version="1.0" encoding="UTF-8" standalone="no"?>
<!-- Created with Inkscape (http://www.inkscape.org/) -->

<svg
   width="1920"
   height="1080"
   viewBox="0 0 507.99998 285.75"
   version="1.1"
   id="svg5"
   inkscape:version="1.2.2 (732a01da63, 2022-12-09)"
   sodipodi:docname="travel.svg"
   xmlns:inkscape="http://www.inkscape.org/namespaces/inkscape"
   xmlns:sodipodi="http://sodipodi.sourceforge.net/DTD/sodipodi-0.dtd"
   xmlns="http://www.w3.org/2000/svg"
   xmlns:svg="http://www.w3.org/2000/svg">
  <sodipodi:namedview
     id="namedview7"
     pagecolor="#505050"
     bordercolor="#eeeeee"
     borderopacity="1"
     inkscape:showpageshadow="0"
     inkscape:pageopacity="0"
     inkscape:pagecheckerboard="0"
     inkscape:deskcolor="#505050"
     inkscape:document-units="mm"
     showgrid="false"
     inkscape:zoom="0.4921875"
     inkscape:cx="880.7619"
     inkscape:cy="539.42857"
     inkscape:window-width="1368"
     inkscape:window-height="842"
     inkscape:window-x="-6"
     inkscape:window-y="-6"
     inkscape:window-maximized="1"
     inkscape:current-layer="layer1"
     showguides="false" />
  <defs
     id="defs2">
    <filter
       inkscape:collect="always"
       style="color-interpolation-filters:sRGB"
       id="filter14754"
       x="-1.7971362"
       y="-9.3522493"
       width="4.5942723"
       height="19.704499">
      <feGaussianBlur
         inkscape:collect="always"
         stdDeviation="1.1155947"
         id="feGaussianBlur14756" />
    </filter>
  </defs>
  <g
     inkscape:label="Layer 1"
     inkscape:groupmode="layer"
     id="layer1">
    <path
       style="opacity:0.758;fill:#ff5599;fill-opacity:1;stroke:none;stroke-width:468.741;stroke-dasharray:none;stroke-opacity:1;filter:url(#filter14754)"
       d="m 100.68843,37.230286 0.0408,0.286287 c 0.48278,-0.0941 0.9652,-0.189089 1.44901,-0.279569 -0.49653,-0.0029 -0.9933,-0.0052 -1.48983,-0.0067 z"
       id="path15224" />
    <path
       style="opacity:0.758;fill:#000000;stroke-width:468.741"
       id="path8499"
       d="m 100.11392,7.7942979 c 0.13834,0.1371383 0.2639,0.2885069 0.41503,0.4114151 1.17258,0.953628 1.58564,1.0976261 2.8153,2.139988 2.11435,1.792291 4.10379,3.758845 6.06323,5.715709 1.16063,1.340549 4.94137,5.111452 4.23436,7.203273 -0.0595,0.176064 -0.21804,0.301019 -0.32707,0.451528 -2.99502,1.722321 -5.78146,3.777085 -8.21125,6.242723 -0.60408,0.613003 -1.15216,1.278787 -1.72824,1.918179 -2.14362,2.726579 -3.413584,5.521061 -3.06483,9.038225 0.0605,0.609637 0.19536,1.209577 0.29305,1.814367 1.22563,4.189518 2.61397,8.33338 4.18222,12.409051 0.29425,1.305282 1.77504,3.839758 1.52891,5.226783 -0.0794,0.447675 -0.61874,0.93691 -0.86634,1.217607 -0.36756,0.333023 -0.73837,0.662495 -1.10268,0.999069 -0.67999,0.628216 -2.08684,1.987526 -2.78859,2.559132 -1.859405,1.514557 -3.95582,2.748796 -5.964193,4.04867 -4.244088,2.650353 -7.622018,6.370857 -11.422509,9.575178 -3.687263,2.53305 -6.868438,5.652638 -9.956787,8.867521 -2.714268,2.897849 -6.447684,6.623331 -6.842011,10.826948 -0.05178,0.551998 0.06305,1.107049 0.09457,1.660576 0.191468,0.50859 0.315913,1.04774 0.574408,1.52577 0.229179,0.4238 0.552175,0.7926 0.873445,1.15166 0.519081,0.58013 1.830901,1.25627 1.94642,2.14575 0.07203,0.55461 -0.03286,1.11805 -0.04929,1.67707 -0.172418,5.68129 -0.295063,11.35862 0.151201,17.02948 -0.0027,1.51001 0.486323,2.9949 0.366991,4.50662 -0.0396,0.50161 -0.234363,1.71131 -0.303374,2.16434 -0.685747,3.12974 -1.809316,6.1372 -3.55704,8.82404 -1.81909,2.88584 -4.38804,5.13431 -6.658607,7.63628 -0.64049,0.70576 -1.234988,1.45194 -1.85248,2.17791 -0.741119,1.14439 -1.482241,2.28879 -2.22336,3.43319 -0.158562,0.28261 3.83812,2.52499 3.996679,2.24239 v 0 c 0.614196,-1.01561 1.228394,-2.03121 1.84259,-3.04681 2.847705,-3.41503 5.762704,-6.78907 8.199948,-10.51837 0.591378,-0.9308 1.338358,-2.0532 1.830139,-3.04267 1.126707,-2.26693 1.763914,-4.73472 1.916488,-7.25873 0.04622,-1.07685 -0.01228,-2.17528 0.0769,-3.24882 0.01717,-0.2066 0.288732,-1.95738 0.291656,-1.97946 0.07165,-0.54096 0.128405,-1.08379 0.192609,-1.62569 0.395351,-3.77176 0.545692,-7.53165 0.442423,-11.32451 -0.02986,-1.0966 -0.03114,-2.19606 -0.132999,-3.28833 -0.09649,-1.03471 -0.307443,-2.05553 -0.461163,-3.0833 -0.281194,-0.84879 -0.492742,-1.72393 -0.843579,-2.54639 -0.658802,-1.5444 -1.969347,-2.34962 -3.166734,-3.39747 0.04504,-1.352899 0.795035,-2.236756 1.579607,-3.318788 1.606291,-2.2153 3.418308,-4.267229 5.190527,-6.348266 0.608293,-0.669883 1.228484,-1.329151 1.824879,-2.009646 0.177784,-0.202853 2.630945,-3.143364 2.996184,-3.504975 1.300977,-1.288042 2.931578,-2.227739 4.404212,-3.291549 3.939786,-2.911006 7.463985,-6.338982 11.510885,-9.114959 3.651125,-2.664674 7.367815,-5.414912 9.776835,-9.327189 0.58417,-1.049351 0.88145,-1.412608 1.16901,-2.5756 0.53202,-2.151676 -0.15514,-4.388138 -0.69757,-6.455005 -0.58508,-1.857171 -0.84378,-2.803435 -1.58806,-4.634032 -0.99009,-2.435185 -2.28106,-4.753665 -2.98343,-7.302621 -0.2396,-0.885791 -0.5247,-1.655199 -0.50931,-2.582344 0.0355,-2.138328 1.6424,-3.779944 2.92279,-5.30524 2.96129,-3.224226 6.38433,-5.982774 9.172,-9.369334 0.24885,-0.433183 0.58156,-0.828003 0.74653,-1.299549 1.26504,-3.615957 -1.76741,-7.33885 -3.89927,-9.867666 -0.74457,-0.722148 -1.45356,-1.4829 -2.23372,-2.166444 -2.87049,-2.5149826 -6.23407,-4.4702076 -9.78717,-5.8413911 -0.12973,-0.028311 -0.530099,1.8063953 -0.40037,1.834706 z" />
    <path
       style="opacity:0.758;fill:#000000;stroke-width:468.741"
       id="path8501"
       d="m 78.363627,3.5037826 c 2.604344,2.298047 5.558173,4.1377454 8.653507,5.6940838 1.253725,1.0361866 4.024654,1.7212416 4.805362,3.2291956 0.0721,0.139252 0.05995,0.307832 0.08992,0.461748 -0.171696,1.568756 -0.357261,3.132216 -0.429556,4.710373 -0.01969,1.076955 0.125124,2.13653 -0.650946,2.963625 -1.125175,1.318876 -2.735641,2.123517 -4.17317,3.055816 -1.897491,1.076115 -3.604297,2.38143 -4.968658,4.085375 -1.093393,1.580211 -1.365814,3.330816 -1.137007,5.198475 0.410903,2.49573 1.262041,4.889376 2.24587,7.210079 1.126784,2.701639 2.767187,5.106863 4.616085,7.356972 1.538722,1.640533 2.28781,2.867035 2.294237,5.138158 -0.08805,0.25364 -0.135052,0.52551 -0.26416,0.76092 -1.062829,1.937938 -3.686342,2.903972 -5.511435,3.849138 -4.41787,2.502722 -8.134935,6.004623 -12.215,8.99142 -0.52496,0.317484 -1.044506,0.644093 -1.57488,0.952449 -1.302781,0.757426 -1.651621,0.874422 -2.892459,1.660692 -1.276731,0.809014 -2.454243,1.772888 -3.656018,2.685867 -2.418858,2.111478 -5.114872,4.371224 -6.359736,7.43521 -0.213395,0.52523 -0.318204,1.088284 -0.477306,1.632424 -0.4454,1.959019 0.470387,3.839487 0.27868,5.793869 -0.130294,1.328304 -0.327435,1.623841 -0.781407,2.892576 -1.264637,2.950146 -3.811725,4.876456 -5.919163,7.170084 -0.436242,0.474781 -0.837377,0.980665 -1.256067,1.470996 -2.598171,3.716372 -1.928254,6.053162 -0.01728,9.797912 0.945123,2.26931 1.707607,4.81424 0.632502,7.18379 -0.168471,0.37131 -0.412697,0.70335 -0.619043,1.05502 -0.256278,0.29406 -0.488018,0.61145 -0.768837,0.88217 -0.949764,0.91561 -2.13537,1.60083 -3.210335,2.35242 -1.527116,1.06773 -1.167421,0.81932 -2.681742,1.99074 -2.195378,1.71828 -4.549132,3.22074 -6.598256,5.12424 -1.328878,1.23445 -1.815378,1.87562 -3.016345,3.26266 -2.375744,3.17572 -3.988284,6.85297 -5.129226,10.6377 -0.592984,1.96705 -1.167178,4.74696 -1.609388,6.74939 -1.880322,7.4198 -3.789429,14.89155 -7.100924,21.83158 -0.800558,1.67776 -1.73271,3.28951 -2.599065,4.93426 -4.111715,6.97479 -2.200736,3.33411 -5.695622,10.94153 -0.161658,0.34002 4.646944,2.62621 4.808602,2.28619 v 0 c 4.924988,-7.01519 2.712855,-3.40856 6.665431,-10.80203 0.818309,-1.80067 1.695884,-3.57558 2.454928,-5.40203 3.037393,-7.30872 4.901597,-15.04753 6.033201,-22.86456 1.173726,-5.52156 2.160934,-11.28752 5.290228,-16.09882 0.419518,-0.50464 0.803415,-1.04117 1.258556,-1.51393 2.310167,-2.39963 5.352124,-4.26895 7.739886,-6.61479 0.587586,-0.49688 1.774356,-1.51457 2.404483,-1.99436 1.677085,-1.27696 3.466451,-2.42741 4.675362,-4.21134 0.292999,-0.5213 0.642942,-1.01446 0.878993,-1.56389 1.344068,-3.12848 0.761643,-6.45897 -0.784648,-9.38343 -1.622952,-2.69992 -2.493209,-3.56806 -0.261567,-6.35092 2.269746,-2.231727 5.257826,-5.087251 6.812676,-7.851422 0.352182,-0.626097 0.605417,-1.302917 0.908127,-1.954376 0.492371,-1.738879 0.726909,-2.104282 0.737434,-3.900316 0.0097,-1.66184 -0.70348,-3.217227 -0.51793,-4.876622 0.114414,-0.340273 0.180816,-0.70067 0.343241,-1.020816 0.437327,-0.861991 1.236808,-1.727946 1.86481,-2.4242 1.293328,-1.43389 2.643558,-2.818182 3.964749,-4.226126 0.854742,-0.824357 1.066321,-1.133647 2.038745,-1.717471 1.930878,-1.159264 4.13323,-1.851424 6.000718,-3.133302 1.589738,-0.96281 2.329738,-1.370954 3.874325,-2.481971 2.851976,-2.051413 5.420447,-4.456528 8.213722,-6.582267 0.534472,-0.417454 1.056103,-0.85189 1.603412,-1.25236 0.443723,-0.324673 0.927278,-0.59285 1.367875,-0.921748 1.693241,-1.263967 2.971932,-2.814389 3.274735,-4.962781 0.07498,-2.881831 -0.675862,-4.480317 -2.4785,-6.689699 -0.132025,-0.163266 -1.434733,-1.768716 -1.549236,-1.932733 -1.056998,-1.514063 -1.828549,-3.230539 -2.623656,-4.886992 -0.942716,-2.141739 -2.074225,-4.224753 -2.712233,-6.484154 -0.151096,-1.284386 -0.07214,-2.54303 0.774774,-3.593939 1.259601,-1.515737 2.952641,-2.433457 4.609091,-3.465194 1.701319,-1.097105 3.29791,-2.362396 4.433504,-4.065366 0.569616,-1.261708 0.829768,-2.512392 0.721704,-3.907736 0.03561,-1.742739 0.443106,-3.474864 0.189998,-5.216497 -0.244632,-0.697273 -0.31459,-1.072143 -0.775595,-1.672366 C 91.767127,9.4286484 90.020501,8.5384904 88.414436,7.6765861 85.389153,5.8846762 82.373056,4.0152089 79.097287,2.7141246 79.041449,2.6622478 78.307802,3.451906 78.36364,3.5037826 Z" />
    <path
       style="opacity:0.758;fill:#000000;stroke-width:227.689"
       id="path8507"
       d="m 31.117953,77.590074 c -0.0886,0.30236 -0.20181,0.59834 -0.26576,0.90709 -0.6948,3.35464 -0.503,7.02537 -0.40986,10.42227 0.0421,1.53774 0.086,3.07544 0.12895,4.61315 0.10234,1.72593 0.20049,3.45213 0.30703,5.17779 0.1146,1.856256 0.25163,3.711106 0.35639,5.567976 0.44134,7.8229 0.68422,15.65713 0.98807,23.48637 0.11335,1.35294 0.22669,2.70589 0.34005,4.05883 9.6e-4,0.11013 1.52927,0.0946 1.52819,-0.0155 v 0 c 0.0818,-1.35358 0.16352,-2.70715 0.24528,-4.06071 0.0202,-4.71857 0.0754,-6.30532 -0.11841,-11.16565 -0.30815,-7.72894 -1.12356,-15.4234 -1.82505,-23.121766 -0.5883,-5.22639 -1.24348,-10.50542 -0.95223,-15.77586 0.007,-0.0232 -0.31613,-0.11719 -0.32265,-0.0939 z" />
    <path
       style="opacity:0.758;fill:#000000;stroke-width:227.689"
       id="path8509"
       d="m 28.320873,83.792954 c 2.36407,-0.19042 4.68007,-0.75028 7.0156,-1.1448 1.79731,-0.21774 3.59789,-0.59376 5.4162,-0.50507 0.66744,0.0326 1.16391,0.13653 1.82938,0.24682 0.68653,0.11541 1.3672,0.27339 2.05652,0.37261 0.18741,0.027 0.43963,0.044 0.44677,0.0258 0.0444,-0.11345 0.006,-0.24422 0.008,-0.36633 -0.0609,-0.0263 -0.72463,-0.22734 -0.73676,-0.1886 -0.0369,0.1177 -0.0319,0.24494 -0.0478,0.3674 0.86217,0.48238 1.60235,1.20201 2.38611,1.81004 0.63468,0.4558 1.2779,0.9018 1.94619,1.30542 0.1033,0.0624 0.21075,0.11733 0.31521,0.17766 0.0233,0.0135 0.065,0.0708 0.068,0.0436 0.009,-0.078 -0.0315,-0.1537 -0.0472,-0.23055 -1.11431,-0.11395 -2.24037,-0.0521 -3.35914,-0.0501 -1.28977,-0.0368 -2.56197,-0.23542 -3.85605,-0.16065 -0.49054,0.0284 -0.9784,0.0931 -1.4676,0.13966 -3.32121,0.3576 -6.59756,1.04165 -9.88078,1.64804 -0.0789,0.0324 0.37122,1.16908 0.45009,1.13665 v 0 c 3.25792,-0.55648 6.50116,-1.18039 9.71871,-1.94722 1.04908,-0.15349 2.15049,-0.37669 3.21753,-0.36608 0.0446,3.9e-4 1.19345,0.0977 1.30878,0.10436 0.21619,0.0125 0.43279,0.0161 0.64919,0.0242 1.13406,-0.006 2.27836,-0.0339 3.40299,-0.18495 0.0643,-0.1029 0.16704,-0.18958 0.19293,-0.30868 0.0383,-0.17622 -0.21565,-0.2911 -0.35406,-0.40371 -0.60063,-0.48867 -1.24395,-0.91939 -1.87459,-1.36568 -0.85661,-0.58804 -1.68176,-1.27684 -2.62994,-1.70283 -0.0923,0.0978 -0.19598,0.18569 -0.27683,0.29352 -0.01,0.013 0.0308,0.01 0.0464,0.0138 0.21616,0.0565 0.43351,0.10883 0.65154,0.15717 0.0984,-0.0909 0.22312,-0.15906 0.29522,-0.27275 0.019,-0.03 -0.0652,-0.0264 -0.0985,-0.0374 -0.0925,-0.0307 -0.18501,-0.0611 -0.27871,-0.0875 -0.66834,-0.18812 -1.34158,-0.36285 -2.02206,-0.49923 -0.80097,-0.1389 -1.37275,-0.25567 -2.19805,-0.3186 -1.86102,-0.14193 -3.72519,0.12147 -5.55475,0.44134 -2.29658,0.45779 -4.6207,0.8646 -6.86041,1.55945 -0.019,0.009 0.1026,0.28189 0.12155,0.27313 z" />
    <path
       style="opacity:0.758;fill:#000000;stroke-width:227.689"
       id="path8511"
       d="m 31.808403,87.548074 c -1.23562,-0.16752 -2.48419,-0.0871 -3.72492,-0.15683 -0.006,-0.009 -0.0249,-0.0166 -0.0191,-0.0256 0.0158,-0.0244 0.0525,-0.0284 0.0693,-0.0521 0.46688,-0.65648 0.6577,-1.4709 0.84581,-2.2402 0.16349,-1.23562 0.13088,-0.62635 0.10813,-1.82721 0.002,-0.0295 -0.40763,-0.0583 -0.40963,-0.0288 v 0 c -0.13584,1.14333 -0.0696,0.56099 -0.19817,1.74709 -0.13824,0.73091 -0.1216,0.78746 -0.34259,1.45352 -0.0856,0.25796 -0.4834,0.88261 -0.29191,1.1862 0.0591,0.0937 0.18866,0.11263 0.28298,0.16895 1.23026,0.23737 2.50432,0.16303 3.74834,0.12 0.024,-0.005 -0.0443,-0.35002 -0.0683,-0.3451 z" />
    <path
       style="opacity:0.758;fill:#000000;stroke-width:227.689"
       id="path8513"
       d="m 33.906273,91.517204 c -0.0213,0.76304 0.0913,1.51923 0.18013,2.27442 0.4428,-0.13328 0.30435,-0.2035 0.24154,-0.60199 -0.002,-0.004 -0.004,-0.008 -0.006,-0.0117 -0.10464,0.0374 -0.22016,0.0518 -0.31391,0.11212 -0.0111,0.007 0.0304,0.1626 0.0332,0.15935 0.0578,-0.0675 0.10513,-0.14366 0.1577,-0.21548 -0.78518,-0.17603 -1.60747,-0.12941 -2.40614,-0.11709 -2.48883,-0.0425 -4.92385,0.50347 -7.36561,0.90817 -1.65966,0.32262 -3.34468,0.44252 -5.01817,0.65623 -1.04249,0.22892 -2.69681,0.37656 -3.56078,1.06324 0.11671,0.15658 0.19462,0.35331 0.35011,0.46971 0.0713,0.0534 0.79575,-0.11468 0.82462,-0.25174 0.0292,-0.13858 -0.0201,-0.28274 -0.0301,-0.4241 -1.35907,-1.23968 -3.03974,-2.09331 -4.63985,-2.96638 -0.46332,-0.23547 -0.8471,-0.44837 -1.31851,-0.63719 -0.0636,-0.0255 -0.16659,-0.11935 -0.19727,-0.0571 -0.33084,0.67141 0.61744,0.61168 0.91595,0.66248 1.90378,0.26411 3.8003,9.8e-4 5.67997,-0.30573 3.07883,-0.50603 6.06237,-1.46027 9.0256,-2.42762 1.96758,-0.64145 3.90737,-1.36659 5.86204,-2.04661 0.0235,-0.009 0.0874,-0.009 0.0706,-0.0284 -0.425,-0.4869 -0.50785,-0.41149 -0.96035,-0.14782 0.39586,0.50386 0.36761,0.4065 0.8232,0.2894 0.0299,-0.008 0.2296,-0.063 0.28425,-0.0461 0.029,0.009 -0.0598,0.0102 -0.0897,0.0152 0.33645,0.91097 0.49693,1.88435 0.72412,2.82829 0.008,0.0494 0.69444,-0.0727 0.68596,-0.12212 v 0 c -0.23136,-1.06057 -0.41806,-2.28248 -1.13445,-3.1324 -0.11127,-0.0272 -0.22029,-0.0669 -0.33382,-0.0815 -0.0819,-0.0105 -0.77924,0.14333 -0.78947,0.17426 -0.0529,0.16006 0.0198,0.33722 0.0296,0.50583 0.12382,0.008 0.27985,-0.0569 0.38818,-0.099 0.33884,-0.13179 0.39996,-0.11234 0.23467,-0.66495 -0.0157,-0.0525 -0.10738,-0.009 -0.16107,-0.0136 -2.09254,0.27357 -4.08494,1.10564 -6.10633,1.67453 -2.91501,0.96575 -5.82374,1.98679 -8.84052,2.57776 -1.80406,0.33999 -3.64078,0.5341 -5.47733,0.4077 -0.13507,-0.004 -0.27043,-10e-4 -0.40522,-0.0111 -0.17558,-0.0125 -0.36712,-0.13395 -0.52526,-0.0552 -0.94488,0.47074 0.93032,1.27931 1.05725,1.41767 1.54629,0.912 3.13118,1.74398 4.73316,2.54821 0.0439,-0.0643 0.0894,-0.12751 0.13171,-0.1929 0.033,-0.051 -0.11557,0.0331 -0.1743,0.0454 -0.3997,0.084 -0.45873,-0.0703 -0.32755,0.51932 1.15604,-0.30359 2.30998,-0.61882 3.49136,-0.80744 1.6847,-0.26023 3.38256,-0.32451 5.07217,-0.54398 2.41028,-0.37658 4.80824,-0.83944 7.23237,-1.1179 0.68637,-0.0645 1.37315,-0.11718 2.06196,-0.11578 0.11868,-0.054 0.24173,-0.0989 0.35606,-0.16186 0.0807,-0.0445 -0.2485,-0.67146 -0.37282,-0.21916 -9.7e-4,0.10549 0.063,1.1331 0.41523,0.58767 0.029,-0.76855 -0.083,-1.54231 -0.247,-2.29016 -9.6e-4,-0.0188 -0.26245,-10e-4 -0.26125,0.0172 z" />
    <path
       style="opacity:0.758;fill:#000000;stroke-width:227.689"
       id="path8515"
       d="m 34.612663,84.695174 c 1.30338,-0.28391 2.57203,-0.70685 3.8186,-1.18289 -0.0413,-0.0251 0.69186,-0.303 0.67028,-0.32711 -0.26629,-0.29745 -0.33064,-0.19128 -0.37641,0.055 0.16015,0.34383 0.55031,0.19864 0.83893,0.14276 0.0288,0.02 0.0684,-0.0195 0.0967,-0.0403 0.0189,-0.004 -0.0335,-0.27565 -0.0524,-0.27188 v 0 c -0.0568,-0.008 -0.1124,-0.0152 -0.16995,-0.005 -0.086,0.0162 -0.3831,0.0125 -0.43963,0.0631 -0.0321,0.0288 0.16479,0.0656 0.0415,0.12382 -0.0562,0.0834 0.14363,-0.0235 -0.0957,-0.34373 -0.0346,-0.0463 -0.71817,0.22644 -0.73574,0.2001 -1.25275,0.41891 -2.51634,0.81373 -3.73785,1.32163 -0.0183,0.0102 0.12339,0.27453 0.14173,0.26431 z" />
    <path
       style="opacity:0.758;fill:#000000;stroke-width:227.689"
       id="path8517"
       d="m 39.263283,82.506644 c 0.35003,0.67245 0.95096,1.19197 1.27218,1.87854 -0.006,0.0241 -9.6e-4,0.0543 -0.0177,0.0722 -0.1247,0.13269 -0.45438,0.26028 -0.59662,0.35186 -0.40661,0.26181 -0.29588,0.18881 -0.65443,0.52787 -0.021,0.0222 0.28653,0.32514 0.30755,0.30298 v 0 c 0.36903,-0.25263 1.20505,-0.69762 1.34509,-1.15068 0.0233,-0.0753 0.004,-0.15782 0.006,-0.23673 -0.27881,-0.74408 -0.89133,-1.29895 -1.36515,-1.91501 -0.0117,-0.0214 -0.30842,0.14759 -0.2967,0.16898 z" />
    <path
       style="opacity:0.758;fill:#000000;stroke-width:227.689"
       id="path8519"
       d="m 23.388543,92.379884 c 1.42069,-0.0418 2.82016,-0.24357 4.18687,-0.63759 0.38738,-0.11147 0.74785,-0.29005 1.11213,-0.4592 0.10105,-0.0469 0.22279,-0.0503 0.313,-0.11625 0.0264,-0.0193 0.0282,-0.0597 0.0423,-0.0895 0.0101,-0.003 -0.0337,-0.14792 -0.0437,-0.14476 v 0 c -0.048,-0.0254 -0.0903,-0.0696 -0.144,-0.076 -0.31009,-0.0371 -1.17268,0.4938 -1.48917,0.44298 -1.36217,0.31635 -2.75664,0.44514 -4.11242,0.78206 -0.0207,0.01 0.1143,0.30801 0.13499,0.29828 z" />
    <path
       style="opacity:0.758;fill:#000000;stroke-width:227.689"
       id="path8521"
       d="m 26.084533,90.740324 c -1.04575,0.23612 -2.16268,0.57374 -3.009,1.279 -0.13379,0.1115 -0.24197,0.25155 -0.36295,0.37732 -0.0649,0.12037 -0.15308,0.23048 -0.19469,0.36112 -0.30209,0.94825 1.04288,1.35277 1.64301,1.58134 0.0316,0.0198 0.30572,-0.43561 0.27413,-0.45536 v 0 c -0.26525,-0.0812 -1.41066,-0.35824 -1.52808,-0.72889 -0.0553,-0.17456 0.0982,-0.30822 0.18007,-0.4278 0.91593,-0.78589 2.07186,-1.1537 3.17338,-1.58944 0.0276,-0.0127 -0.1483,-0.40997 -0.17587,-0.39729 z" />
  </g>
</svg>
