<?xml version="1.0" encoding="UTF-8" standalone="no"?>
<!-- Created with Inkscape (http://www.inkscape.org/) -->

<svg
   width="500"
   height="600"
   viewBox="0 0 132.29149 158.74929"
   version="1.1"
   id="svg5"
   inkscape:version="1.2.2 (732a01da63, 2022-12-09)"
   sodipodi:docname="waterfallpink.svg"
   xmlns:inkscape="http://www.inkscape.org/namespaces/inkscape"
   xmlns:sodipodi="http://sodipodi.sourceforge.net/DTD/sodipodi-0.dtd"
   xmlns="http://www.w3.org/2000/svg"
   xmlns:svg="http://www.w3.org/2000/svg">
  <sodipodi:namedview
     id="namedview7"
     pagecolor="#505050"
     bordercolor="#eeeeee"
     borderopacity="1"
     inkscape:showpageshadow="0"
     inkscape:pageopacity="0"
     inkscape:pagecheckerboard="0"
     inkscape:deskcolor="#505050"
     inkscape:document-units="mm"
     showgrid="false"
     inkscape:zoom="0.47922891"
     inkscape:cx="178.41161"
     inkscape:cy="193.0184"
     inkscape:window-width="1368"
     inkscape:window-height="842"
     inkscape:window-x="-6"
     inkscape:window-y="-6"
     inkscape:window-maximized="1"
     inkscape:current-layer="layer4"
     showguides="false" />
  <defs
     id="defs2">
    <filter
       inkscape:collect="always"
       style="color-interpolation-filters:sRGB"
       id="filter5474"
       x="-0.0062319091"
       y="-0.0043103469"
       width="1.0124638"
       height="1.0086207">
      <feGaussianBlur
         inkscape:collect="always"
         stdDeviation="0.21362628"
         id="feGaussianBlur5476" />
    </filter>
    <filter
       inkscape:collect="always"
       style="color-interpolation-filters:sRGB"
       id="filter5478"
       x="-0.0072564601"
       y="-0.004511817"
       width="1.0145129"
       height="1.0090236">
      <feGaussianBlur
         inkscape:collect="always"
         stdDeviation="0.21362628"
         id="feGaussianBlur5480" />
    </filter>
    <filter
       inkscape:collect="always"
       style="color-interpolation-filters:sRGB"
       id="filter5482"
       x="-0.015690262"
       y="-0.01484515"
       width="1.0313805"
       height="1.0296903">
      <feGaussianBlur
         inkscape:collect="always"
         stdDeviation="0.21362628"
         id="feGaussianBlur5484" />
    </filter>
  </defs>
  <g
     inkscape:groupmode="layer"
     id="layer4"
     inkscape:label="Layer 3">
    <path
       style="opacity:0.65;fill:#f9a8d4;fill-opacity:1;stroke-width:270.621;filter:url(#filter5474)"
       id="path5402"
       d="m 26.881428,4.7117198 c 1.177927,2.6072415 0.666807,2.4825789 4.574103,5.022473 1.339386,3.1114332 0.988503,2.2148012 3.720782,5.1874372 1.329273,0.728236 3.597051,4.077194 4.668473,5.556244 0.67969,0.502358 0.748961,0.465659 1.499921,0.71998 0.43557,0.230721 0.991205,0.272386 1.407256,0.54695 0.405463,0.267574 0.625993,0.632049 0.99674,0.94453 0.179054,0.150916 0.386466,0.264557 0.579698,0.396836 0.392441,0.208089 0.884335,0.804026 1.40128,0.713747 0.0155,-0.0027 0.0068,-0.03265 0.01804,-0.04362 0.02588,-0.02516 0.05964,-0.04065 0.08946,-0.06097 0.383735,0.734366 0.770193,1.478707 1.28229,2.137219 0.161531,0.207713 0.348644,0.3942 0.522967,0.5913 0.143735,0.138945 1.00808,0.979204 1.17088,1.118293 0.164,0.140111 0.354012,0.247989 0.516395,0.389972 0.115279,0.100796 0.20533,0.227409 0.313571,0.335727 0.242217,0.242387 0.295166,0.272669 0.550634,0.473273 0.216495,0.04584 0.300055,0.266329 0.470219,0.370598 0.0773,0.04737 0.184097,0.03627 0.256244,0.09117 0.214066,0.162893 0.448055,0.64658 0.563368,0.821927 0.117668,0.17893 0.249756,0.347948 0.374636,0.521922 0.457703,0.567319 0.973896,1.076945 1.475873,1.602428 0.332925,0.348517 0.618654,0.723402 0.967035,1.057178 0.451069,0.0081 0.132088,0.181031 0.295129,0.298937 0.02775,0.02005 0.07052,0.0141 0.09572,0.03731 0.07912,0.07285 0.102107,0.189335 0.152632,0.284286 0.01783,0.480068 0.203107,0.929869 0.295484,1.393019 0.115027,0.576698 0.144425,1.122141 0.281072,1.715506 0.0443,0.154403 0.08861,0.308808 0.132913,0.463213 0.01617,0.108193 0.02008,0.21894 0.04848,0.32458 0.02561,0.09524 0.09407,0.176773 0.112435,0.273671 0.01971,0.104056 -0.115869,0.208918 -0.140084,0.283914 -0.02371,0.07344 -0.01421,0.153688 -0.0213,0.230531 -0.331533,1.090598 -0.539643,2.212588 -0.656314,3.345408 -0.0047,1.069466 -0.190169,2.130489 -0.45717,3.16273 -0.02884,0.125383 -0.05769,0.250764 -0.08654,0.376144 -0.04664,0.133673 -0.107029,0.263313 -0.139935,0.401013 -0.0545,0.228057 -0.0427,0.468248 -0.09313,0.69724 -0.05229,0.237476 -0.129312,0.468896 -0.187198,0.705074 -0.08885,0.453545 -0.301934,0.924299 -0.580781,1.299065 -0.549329,0.738292 -0.05144,-0.114091 -0.49776,0.714072 -0.557561,0.65823 -0.951215,1.415294 -1.368232,2.164451 -0.550629,0.981663 -0.982447,2.016384 -1.193426,3.124833 0.02426,0.437755 -0.19418,0.78697 -0.331104,1.178619 -0.110233,0.315312 -0.136922,0.659741 -0.184848,0.987892 -0.01429,0.11411 -0.02096,0.229431 -0.04287,0.342326 -0.138279,0.712789 -0.08355,0.139411 -0.212513,0.909834 -0.08726,0.521308 -0.06584,1.044132 -0.0646,1.570136 0.01326,0.175808 0.03909,0.351118 0.03974,0.527423 0.0026,0.706931 -0.09533,0.39498 -0.0094,1.106242 0.06184,0.5119 0.22574,1.016991 0.386987,1.503636 0.299638,0.958619 0.922366,1.754733 1.377049,2.633831 0.375962,0.565281 0.713898,1.195936 1.236227,1.646209 0.201403,0.173619 0.435596,0.305281 0.647998,0.465256 0.461475,0.348593 0.874796,0.77059 1.366375,1.078877 0.05414,0.03395 0.664723,0.356332 0.711509,0.381139 0.178659,0.04946 0.536931,0.252098 0.743047,0.145629 0.126238,-0.06521 -0.06756,-0.154707 -0.229452,-0.41291 -0.256812,-0.409593 -0.487907,-0.83476 -0.731863,-1.252139 -0.105502,-0.778986 -0.355486,-1.560514 -0.01606,-2.329759 0.09396,-0.212937 -0.07129,0.463319 -0.05894,0.695734 0.05257,0.989323 0.143851,1.286511 0.621619,2.03105 0.186002,0.238101 0.271327,0.216373 0.413914,0.524242 0.191372,0.485801 0.648641,0.814132 0.879301,1.266694 0.366228,0.692133 0.933245,1.192316 1.523027,1.687266 0.307141,0.305514 0.733662,0.410416 1.088672,0.634957 0.262863,0.166262 0.358441,0.27563 0.671993,0.373099 0.08433,0.06123 0.160023,0.136615 0.252997,0.183708 0.181628,0.092 0.389998,0.120634 0.575645,0.204232 0.273008,0.122936 0.528727,0.242334 0.813479,0.338155 0.117642,0.01304 0.494453,0.256889 0.569864,0.07596 0.438073,0.621148 0.962066,0.982724 1.577841,1.410243 0.649906,0.326477 1.264696,0.72347 1.988936,0.86779 0.312483,0.06227 0.527534,0.05911 0.836495,0.06998 0.08755,-0.01466 0.176832,-0.02127 0.262639,-0.044 0.06227,-0.01651 -0.138552,-0.352629 -0.02019,-0.13067 0.315139,0.35979 0.687479,0.691585 0.95983,1.086452 0.719063,1.042533 -0.222956,-0.06262 0.693774,0.947413 0.683272,0.28435 1.148155,0.952631 1.861264,1.170142 0.198575,0.06057 0.41211,0.05592 0.614082,0.103963 -0.614262,-0.63447 -0.02453,0.666386 0.01376,0.775889 0.162861,0.559935 0.536452,1.004299 0.824983,1.495577 0.08909,0.151698 0.152225,0.317388 0.236357,0.471894 0.239964,0.440682 0.285141,0.477713 0.577646,0.888388 l 0.324447,0.521794 c 0.130172,0.191056 0.266888,0.377812 0.390514,0.573164 0.134607,0.212706 0.22969,0.451323 0.38378,0.650366 0.141962,0.183375 0.333031,0.32285 0.496779,0.487066 0.514169,0.515643 0.339502,0.31375 0.722502,0.858436 0.09786,0.263216 0.361097,0.436158 0.469058,0.693509 0.06159,0.146815 0.04807,0.318251 0.110691,0.464629 0.06384,0.149225 0.186787,0.266454 0.263321,0.409585 0.248596,0.464928 0.487801,1.105156 0.678075,1.576761 0.271796,0.399314 0.738989,1.047529 0.94825,1.497553 0.104097,0.223867 0.151527,0.47018 0.239405,0.700894 0.07768,0.203951 0.188158,0.395088 0.256939,0.602212 0.07111,0.214143 0.107569,0.438274 0.161354,0.657409 0.08039,0.240392 0.160789,0.480785 0.241183,0.721177 0.16873,0.444375 0.470955,0.822104 0.663579,1.254023 0.07924,0.177675 0.125127,0.368426 0.189992,0.551838 0.05314,0.150264 0.148063,0.290562 0.164005,0.44915 0.01998,0.198692 -0.0453,0.396949 -0.05892,0.596177 -0.01638,0.239329 -0.02069,0.479329 -0.03102,0.718994 0.03394,0.253526 0.05192,0.509706 0.10183,0.760578 0.05108,0.25677 0.135998,0.505653 0.200548,0.759372 0.143745,0.564996 0.21699,0.996721 0.441724,1.537513 0.534124,1.28531 0.162047,-0.0734 0.479422,1.31229 0.06667,0.23063 0.113093,0.46811 0.200003,0.6919 0.08082,0.20811 0.211826,0.39363 0.301024,0.59828 0.550264,1.26249 0.02714,0.26474 0.603414,1.51494 0.231801,0.50287 0.422769,0.80658 0.697755,1.27898 0.196104,0.23339 0.446632,0.45715 0.524695,0.76973 0.02281,0.0913 -0.0032,0.1882 -0.0049,0.28229 0.0245,0.11302 0.04021,0.2283 0.07348,0.33905 0.114329,0.38062 0.20819,0.54449 0.378242,0.90636 0.228476,0.79186 0.324138,1.28364 0.73525,2.02063 0.50864,0.91183 1.334485,1.73589 2.145548,2.38003 0.265261,0.21067 0.556873,0.38584 0.83531,0.57876 0.84067,0.66676 1.769256,1.43693 2.889357,1.52683 0.1988,0.53145 0.647951,0.97593 1.030085,1.37877 0.865184,0.91206 0.632851,0.66542 1.625418,1.58169 1.036885,0.76882 2.222174,1.32914 3.424267,1.79051 0.258919,0.0994 0.527494,0.17461 0.780454,0.2883 0.28725,0.12911 0.557881,0.2924 0.836823,0.4386 0.301387,0.13744 0.606718,0.26654 0.90416,0.41232 0.655356,0.3212 0.981246,0.55604 1.655629,0.8254 0.95088,0.3798 0.71439,0.20419 1.66681,0.47917 0.2983,0.0861 0.58917,0.19621 0.88375,0.29431 0.58614,0.10052 1.15969,0.26707 1.74589,0.36724 0.35821,0.0612 0.74732,0.29586 1.07991,0.14943 0.67752,-0.29829 1.1557,-0.92541 1.73355,-1.38812 0.46375,0.12248 2.19578,-6.43604 1.73202,-6.55851 v 0 c -0.10893,-0.55493 -0.0687,-1.16159 -0.3268,-1.66479 -0.0826,-0.16106 -1.47533,-0.32654 -1.62466,-0.59477 -0.19232,-0.0673 -0.39177,-0.11687 -0.57696,-0.20183 -1.18311,-0.54276 -0.0799,-0.19431 -1.37535,-0.69371 -0.97445,-0.37565 -0.62902,-0.16571 -1.56131,-0.45133 -0.18288,-0.056 -0.35774,-0.13549 -0.53661,-0.20324 -0.19052,-0.0811 -0.39298,-0.1384 -0.57154,-0.24319 -0.20972,-0.12307 -0.38786,-0.29344 -0.58515,-0.43559 -0.91557,-0.65968 -1.89499,-1.28425 -2.963583,-1.65752 -0.336581,-0.0476 -0.782123,-0.0877 -1.109248,-0.21429 -0.16297,-0.063 -0.306824,-0.16753 -0.463719,-0.24446 -0.600328,-0.29434 -1.196187,-0.57403 -1.678316,-1.05829 -1.11133,-0.95339 0.122489,0.0874 -0.957012,-0.77201 -0.376883,-0.30003 -0.743859,-0.65944 -1.260373,-0.66415 0.2253,-0.20605 -0.456202,-0.87886 -0.597455,-1.00305 -0.181176,-0.77973 -0.40247,-1.51464 -0.795979,-2.22091 -0.635275,-1.140209 -0.375843,-0.45963 -0.928382,-1.428408 -0.08192,-0.143634 -0.138554,-0.300281 -0.20783,-0.450418 -0.1392,-0.192535 -0.325845,-0.462941 -0.48832,-0.64653 -0.0044,-0.005 -0.276661,-0.257929 -0.293819,-0.314944 -0.03034,-0.100819 -0.01767,-0.209825 -0.02651,-0.314737 -0.03931,-0.11113 -0.07862,-0.222263 -0.117925,-0.333393 -0.194323,-0.592187 -0.10147,-0.106402 -0.02024,-0.765796 0.04317,-0.350437 0.0052,-0.80665 0.0036,-1.149557 -0.0059,-1.229306 0.05994,-0.302551 -0.08897,-1.647582 -0.08618,-0.319577 -0.162438,-0.641998 -0.25855,-0.95873 -0.09708,-0.319923 -0.241213,-0.625585 -0.320762,-0.950311 -0.07821,-0.319269 -0.08593,-0.652281 -0.150786,-0.974528 -0.06618,-0.328815 -0.16392,-0.650495 -0.241905,-0.97671 -0.373967,-1.564318 -0.08363,-0.551145 -0.593931,-2.149023 -0.690953,-1.339448 -0.437782,-0.95938 -1.315538,-2.208812 -0.219493,-0.312433 -0.42595,-0.636108 -0.675444,-0.925147 C 85.985984,84.456811 85.514545,84.105333 85.13008,83.671981 85.012838,83.53983 84.912087,83.39392 84.80309,83.254892 84.369271,82.938237 84.342657,82.989214 84.072838,82.5005 c -0.119621,-0.216664 -0.177652,-0.465454 -0.309549,-0.674872 -0.15167,-0.240805 -0.370038,-0.433477 -0.534722,-0.665579 -1.936401,-2.729097 1.064864,1.282219 -0.938873,-1.368037 -0.580934,-0.66376 -0.447161,-0.490074 -0.952403,-1.141316 -0.132279,-0.170503 -0.238739,-0.363447 -0.392562,-0.514796 -0.160581,-0.158001 -0.366831,-0.262118 -0.541562,-0.404315 -0.06975,-0.05677 -0.801628,-0.724344 -0.86543,-0.78239 -0.694691,-0.750747 -1.48921,-1.434249 -2.377108,-1.945204 -0.593526,-0.352398 -0.03674,-2.64e-4 -0.584017,-0.410659 -0.112617,-0.08444 -0.243419,-0.145092 -0.347683,-0.239657 -0.425876,-0.386249 -0.747317,-0.898113 -1.276727,-1.168224 -0.09989,-0.08092 -0.199786,-0.161837 -0.299677,-0.242754 -0.06849,-0.0933 -0.120544,-0.201279 -0.205483,-0.279905 -0.458737,-0.42464 -1.168401,-0.42609 -1.633678,-0.852942 -0.158115,-0.03643 -0.313264,-0.08981 -0.474347,-0.109291 -0.507418,-0.06137 -0.719476,0.119372 -1.075099,-0.287223 -0.357097,-0.318416 -0.671972,-0.679942 -1.064184,-0.958574 -0.498004,-0.353787 -0.471688,-0.265887 -1.008691,-0.535931 -0.114679,-0.05767 -0.222515,-0.128045 -0.333772,-0.192069 -0.588231,-0.239495 -1.165313,-0.431598 -1.799743,-0.263855 -0.03397,0.01545 -0.06499,0.0518 -0.101907,0.04632 -0.06358,-0.0094 -0.113615,-0.06031 -0.172101,-0.08696 -0.23695,-0.107995 -0.497186,-0.141976 -0.72306,-0.273341 -0.442994,-0.39552 -0.884734,-0.797869 -1.415315,-1.074313 -0.199602,-0.117951 -0.405908,-0.207425 -0.60901,-0.315721 -0.156723,-0.08357 -0.277544,-0.225568 -0.435064,-0.307626 -0.102446,-0.05337 -0.218307,-0.0756 -0.327461,-0.113392 -0.08887,-0.0617 -0.170929,-0.134593 -0.266607,-0.185089 -0.06868,-0.03625 -0.90235,-0.319471 -0.913502,-0.302913 -0.014,0.02077 0.01961,0.04606 0.02939,0.0691 0.01871,0.02654 0.0598,0.09362 0.07338,0.06411 0.04991,-0.108465 -0.320867,-0.260923 -0.205459,-0.379554 -0.228131,-0.365974 -0.370855,-0.767445 -0.556264,-1.155572 -0.117769,-0.199294 -0.150731,-0.39748 -0.236927,-0.608332 -0.04439,-0.108595 -0.137384,-0.19663 -0.165814,-0.310454 -0.0042,-0.01688 0.02792,0.0208 0.04188,0.0312 0.429747,0.650231 0.469175,0.89746 0.517205,1.786433 0.01154,0.213256 -0.127561,0.836955 -0.04756,0.638936 0.355883,-0.880927 0.126966,-1.49055 0.0077,-2.42221 -1.224088,-2.114232 -0.296664,-0.696552 -1.070627,-1.668275 -0.157228,-0.1974 -0.204382,-0.460594 -0.424005,-0.609811 -0.112858,-0.07924 -0.216818,-0.170934 -0.331652,-0.247276 -0.231984,-0.15422 -0.510246,-0.227042 -0.713467,-0.428241 -0.335464,-0.358214 -0.450246,-0.603678 -0.966415,-0.71824 -0.191752,-0.01537 -0.0044,-0.180263 -0.02771,-0.321098 -0.0024,-0.257434 -0.005,-0.536235 -0.04692,-0.790103 -0.14461,-0.87514 0.0035,0.228881 -0.178323,-0.514389 -0.01122,-0.04589 0.0079,-0.09415 0.01183,-0.141226 0.02273,-0.312367 -0.01056,0.02633 0.05282,-0.312957 0.05405,-0.28944 -0.0068,-0.590554 0.154593,-0.856325 0.124634,-0.337857 0.265334,-0.67629 0.321563,-1.034491 0.03262,-0.207787 -0.01397,-0.42714 0.04337,-0.629509 0.01027,-0.03623 0.05205,-0.05443 0.07808,-0.08165 0.366305,-0.210396 0.559525,-0.608077 0.866806,-0.885207 0.784142,-0.951853 1.518309,-1.934533 1.876766,-3.134575 0.07205,-0.163166 0.161028,-0.31986 0.216149,-0.489495 0.0575,-0.176969 0.07182,-0.365452 0.120057,-0.545168 0.135382,-0.504374 0.312451,-1.03644 0.59596,-1.472848 0.393292,-0.677608 0.03862,-0.04891 0.441174,-0.822983 0.158956,-0.305657 0.470751,-0.845816 0.586048,-1.155542 0.05865,-0.157557 0.358772,-1.340621 0.396346,-1.486462 0.116218,-0.72464 0.188854,-1.442382 0.236164,-2.174782 0.02471,-0.382561 0.0027,-0.767939 0.04154,-1.149325 0.01656,-0.162544 0.06094,-0.321037 0.0914,-0.481557 0.01934,-0.16229 0.03866,-0.32458 0.05798,-0.486869 0.0085,-0.157538 0.0078,-0.315846 0.02553,-0.472614 0.08448,-0.747146 0.236373,-1.490047 0.302598,-2.240394 0.03632,-0.251962 0.09849,-0.501535 0.108953,-0.755884 0.01889,-0.459256 -0.08712,-1.250798 -0.115073,-1.711918 -0.01381,-0.227854 0.0099,-0.458105 -0.01892,-0.684553 -0.01442,-0.113334 -0.25234,-1.118202 -0.294115,-1.296523 -0.05468,-0.171997 -0.100341,-0.347125 -0.164034,-0.51599 -0.103693,-0.274923 -0.276383,-0.522731 -0.361433,-0.80398 -0.03894,-0.128786 -0.03771,-0.266636 -0.0654,-0.398301 -0.02785,-0.132431 -0.209041,-0.810396 -0.238209,-0.920717 -0.121303,-0.844601 -0.295092,-1.723419 -0.647255,-2.508037 -0.418636,-0.932719 -1.100728,-1.674946 -1.794645,-2.407404 -0.487944,-0.379638 -0.967934,-0.77656 -1.583836,-0.928853 -0.227872,-0.05635 -0.05699,0.04087 -0.229817,0.03849 -0.01381,-1.9e-4 -0.01852,-0.0205 -0.02779,-0.03075 -0.03972,-0.04903 -0.217556,-0.265182 -0.236828,-0.305517 -0.57876,-1.211247 0.379155,0.511785 -0.394607,-1.19419 -0.159613,-0.351912 -0.772726,-1.239432 -0.981445,-1.551442 -0.224157,-0.250559 -0.430542,-0.518229 -0.672469,-0.751676 -0.570827,-0.550822 -0.820943,-0.671258 -1.488814,-1.054798 -0.157728,-0.09058 -0.311279,-0.190851 -0.478768,-0.261782 -0.190934,-0.08086 -0.407336,-0.08693 -0.60055,-0.162137 -0.145248,-0.0578 -0.303411,-0.0844 -0.442074,-0.156588 -0.450558,-0.234563 -0.710609,-0.791991 -0.991707,-1.175645 -0.114112,-0.213867 -0.204917,-0.441909 -0.342333,-0.641601 -0.162057,-0.235497 -0.362651,-0.442144 -0.551267,-0.656958 -0.540574,-0.615653 -1.093778,-1.205061 -1.878743,-1.500742 -0.09642,-0.05028 -0.186652,-0.114809 -0.289247,-0.150848 -0.336936,-0.118358 -0.330964,0.03693 -0.592888,-0.266918 -0.120483,-0.139767 -0.196612,-0.312489 -0.302172,-0.463843 -0.362217,-0.519353 -0.523174,-0.700972 -0.928864,-1.205763 -0.509994,-0.65431 -0.517638,-0.770403 -1.245109,-1.244928 -1.370833,-0.894186 -0.354909,-0.08996 -1.70401,-0.770365 -0.459429,-0.231708 -0.810285,-0.646768 -1.27371,-0.872089 C 43.311786,11.684454 43.163347,11.450411 42.972337,11.253624 42.47763,10.743951 41.972277,10.42915 41.388369,10.031101 40.532181,9.4474406 39.650691,8.9171949 38.704111,8.4893115 38.223848,8.1063933 37.756205,7.7074561 37.267976,7.3347489 36.724961,6.920218 36.293755,6.7098936 35.85923,6.1719366 35.61828,5.8736299 35.471666,5.5065126 35.229374,5.2092938 34.93632,4.8498054 33.20631,3.7503704 34.26044,4.2107052 32.49044,2.1312355 33.315816,3.2031093 31.922008,2.45999 c -1.98684,0.2898671 -3.841776,0.2434505 -5.04058,2.2517298 z"
       sodipodi:nodetypes="cccccsscsccscssscssscsccccsccsssccccsscscccsccscssccscscsscssccccscsscccscscscsccssccssscssscsssccsssscssscssscscscssccscsscssscsscssscssscssccscsccsscssccsccsssscssscssscsssccssccscscssccccccsscsscsccsscsscscsccccscccsscccsscsscssccccssscssscscssccscssscscsscssscsscsscsssccc"
       transform="rotate(-1.6436798,67.862805,79.852004)" />
    <path
       style="opacity:0.65;fill:#f9a8d4;fill-opacity:1;stroke-width:270.621;filter:url(#filter5478)"
       id="path5406"
       d="m 31.530404,24.225333 c -0.09931,0.213286 -0.23463,0.413261 -0.297942,0.639857 -0.378023,1.352981 0.150265,2.86979 0.611004,4.130239 0.09847,0.221234 0.219776,0.433657 0.295418,0.663699 0.06816,0.207293 0.07816,0.429802 0.133543,0.640865 0.1037,0.395197 0.282429,0.768526 0.380708,1.165104 0.438435,1.769171 -0.238418,-0.409072 0.360272,1.417173 0.0978,0.698702 0.113564,1.183982 0.430244,1.840219 0.333284,0.690649 1.208094,1.626987 1.786938,2.135021 0.190925,0.167568 0.409445,0.300799 0.614168,0.451198 0.05243,0.04091 0.594952,0.477557 0.731951,0.545208 0.262535,0.129643 0.203035,-0.02667 0.364635,0.166769 0.182763,0.218766 0.188986,0.371038 0.292438,0.673385 0.225933,0.50433 0.360695,0.884594 0.708627,1.327844 0.149228,0.190108 0.347374,0.336423 0.512037,0.513326 0.306088,0.328837 0.672602,0.819448 1.034371,1.102792 0.174376,0.136575 0.379756,0.228089 0.569634,0.342135 -0.01077,-0.06271 1.266837,0.80511 1.217857,0.482361 -0.01511,-0.09947 -0.09097,-0.179477 -0.136369,-0.269261 -0.06647,-0.13146 -0.132823,-0.262982 -0.199233,-0.394474 -0.03155,-0.0927 -0.03453,-0.200824 -0.09466,-0.278119 -0.0205,-0.02638 -0.0514,0.04885 -0.05826,0.08155 -0.01775,0.08466 -0.0039,0.173164 -0.0132,0.259159 -0.04077,0.376036 -0.108905,0.738959 -0.124603,1.117932 -0.105216,0.161977 -0.301053,0.444153 -0.356904,0.621677 -0.04797,0.152469 -0.03705,0.31855 -0.07728,0.473241 -0.138329,0.531928 -0.192331,0.34394 -0.294243,0.892436 -0.02506,0.134784 -0.01741,0.273629 -0.02611,0.410445 0.02408,0.08603 -0.07013,0.465187 0.100362,0.513884 0.01341,0.0038 0.149105,-0.06408 0.167126,-0.07184 -0.666953,0.397885 -1.062216,1.053906 -1.561352,1.620124 -0.103661,0.01254 -0.490896,0.286797 -0.559191,0.303791 -0.126396,0.03145 -0.255364,-0.07406 -0.385304,-0.06504 -0.06251,0.0043 -0.119176,0.03878 -0.178763,0.05817 -0.05645,0.03777 -0.112892,0.07553 -0.169341,0.1133 -0.04738,0.01334 -0.100557,0.01365 -0.142147,0.03999 -0.181292,0.114773 0.04376,0.04099 -0.06576,0.149926 -0.08522,0.08476 -0.226769,0.07977 -0.34059,0.118377 -0.32844,0.103944 -0.695988,0.139178 -1.040385,0.09991 -0.134969,-0.0154 -0.263316,-0.07259 -0.398611,-0.08478 -0.445383,-0.04011 -0.710209,0.02289 -1.157291,0.08258 -0.636817,0.175365 -1.363758,0.445166 -1.893993,0.854621 -0.120192,0.09281 -0.215043,0.214768 -0.32911,0.315013 -0.134389,0.118107 -0.277127,0.226364 -0.415691,0.339545 -0.391557,0.349993 -0.740314,0.739268 -1.112122,1.108137 -0.05187,0.05146 -0.08194,0.127441 -0.144949,0.164446 -0.02674,0.01569 -0.05885,-0.01984 -0.08901,-0.02704 -0.04804,-0.01148 -0.09689,-0.01934 -0.145328,-0.02901 -0.365582,0.175926 -0.747113,0.375856 -1.053471,0.64613 -0.188024,0.165877 -0.751313,0.843477 -0.842298,0.949861 -0.411754,0.635832 -0.757345,1.315736 -0.948257,2.052431 -0.127693,0.492743 -0.151651,1.013289 -0.221731,1.51606 -0.02278,0.624781 -0.145698,1.23429 -0.221014,1.85329 -0.0034,0.72368 -0.231434,1.429132 -0.159724,2.154579 0.01746,0.176614 0.18174,0.91551 0.216736,1.078202 0.04762,0.193473 0.07831,0.391913 0.142851,0.580418 0.04704,0.13738 0.375136,0.794167 0.442629,0.930094 0.271592,0.546959 0.558243,1.008916 0.939047,1.48676 0.135792,0.180793 0.276878,0.357727 0.407378,0.542377 0.274135,0.387884 0.152178,0.306525 0.469596,0.662532 0.269776,0.302577 0.589869,0.570134 0.876238,0.857346 0.279349,0.148699 0.550917,0.344006 0.849433,0.456737 0.224207,0.08467 0.331329,0.06692 0.502382,0.246507 0.04669,0.04066 0.100055,0.07473 0.140054,0.121978 0.329962,0.38977 0.07579,0.234452 0.530545,0.693747 0.337676,0.341047 0.801628,0.588639 1.206853,0.836537 0.575629,0.363979 1.181013,0.721351 1.842971,0.906908 0.204985,0.05746 0.592629,0.102399 0.815627,0.131892 0.590377,0.08235 0.364164,-0.195153 0.05403,-0.338486 -0.01532,-0.004 -0.03108,-0.0066 -0.04593,-0.01212 -0.03944,-0.01455 0.02997,0.0047 0.162542,0.160771 0.355708,0.418806 0.113522,0.188108 0.511306,0.521319 0.455678,0.382608 1.001084,0.650855 1.542802,0.891171 0.204835,0.105722 0.479372,0.128791 0.673956,0.25433 0.15398,0.09934 0.274037,0.243366 0.412599,0.363283 0.337492,0.268174 0.721999,0.606395 1.167443,0.66472 0.173064,0.09391 0.360188,0.154816 0.519628,0.276825 0.361045,0.482248 0.872463,0.826433 1.343193,1.195415 0.196106,0.19976 0.501276,0.23953 0.717782,0.403664 0.02891,0.02191 0.0377,0.06426 0.06678,0.08594 0.06086,0.04538 0.142253,0.0531 0.212682,0.08143 0.262514,0.0249 0.391247,0.301923 0.571632,0.462647 0.08466,0.07543 0.179096,0.139109 0.268647,0.208666 0.476934,0.330818 0.989818,0.594817 1.528845,0.805628 0.261964,0.120145 0.242075,-0.06856 0.290925,0.05821 0.232722,0.493903 0.653636,0.828547 0.990387,1.246305 0.110024,0.112855 0.223652,0.222305 0.330072,0.338563 0.250312,0.273439 0.364818,0.45417 0.634809,0.684794 0.294396,0.251465 0.609642,0.488634 0.909004,0.736152 0.399803,0.314314 0.892886,0.465385 1.331278,0.705259 0.423219,0.273457 0.216196,0.151577 0.618389,0.370152 0.08014,0.04901 0.551486,0.200969 0.437673,-0.0154 0.333401,0.461784 0.699304,0.897142 1.049678,1.346558 0.07677,0.08561 0.166113,0.161417 0.230311,0.256815 0.443317,0.658745 -0.284178,-0.185346 0.314687,0.548668 0.275749,0.337978 0.639537,0.600355 0.962188,0.890557 0.518704,0.294156 0.914457,0.750093 1.403962,1.084462 0.37602,0.256852 0.194452,0.0682 0.375425,0.276696 0.174566,0.371382 0.33815,0.772805 0.446343,1.172835 0.328837,0.597011 0.624038,1.212214 1.05295,1.747119 0.276934,0.34537 0.554397,0.605913 0.866547,0.918349 0.200816,0.395855 0.604889,0.558206 0.875645,0.88377 0.01654,0.01987 0.203049,0.23118 0.150013,0.281458 -0.034,0.0651 -0.136162,0.04815 -0.172166,0.104886 -0.01815,0.0286 0.0259,0.06578 0.02138,0.09935 -0.008,0.0594 -0.04384,0.111987 -0.0577,0.170301 -0.08573,0.360751 -0.06229,0.267692 7.94e-4,0.643056 0.06741,0.288478 0.01116,0.589438 0.06046,0.878942 0.239004,1.403256 0.05061,-0.507446 0.225068,0.934383 0.129953,1.074037 -0.08536,-0.07339 0.106487,0.863472 -0.01691,0.125685 -0.02334,0.253221 -0.05069,0.377049 -0.03137,0.141996 -0.09288,0.276145 -0.124965,0.417983 -0.10777,0.476437 -0.05057,0.410297 -0.08568,0.893565 -0.05147,0.708517 -0.07105,0.143595 -0.01455,0.836509 0.08334,0.682473 -0.207521,1.314659 -0.344956,1.967682 -0.03878,0.184269 -0.06101,0.371633 -0.09152,0.55745 0.01505,0.356277 -0.04584,0.710455 -0.04463,1.066148 5.29e-4,0.151188 0.03999,0.301537 0.03133,0.452476 -0.02268,0.39543 -0.122832,0.484978 -0.222353,0.860479 -0.0393,0.14826 -0.06106,0.30064 -0.09159,0.45095 -0.02652,0.47652 -0.215072,0.93391 -0.237387,1.41053 -0.0067,0.14436 0.03185,0.28761 0.03575,0.43208 0.01011,0.37434 -0.02082,0.48659 -0.07161,0.85766 -1.91e-4,0.13727 0.01392,0.2753 -5.3e-4,0.4118 -0.01431,0.13459 -0.0569,0.26465 -0.08535,0.39698 -0.02657,0.16296 -0.06393,0.32454 -0.07971,0.4889 -0.04888,0.50909 0.01307,1.02307 0.0082,1.53341 -0.02871,0.29661 0.118195,0.56638 0.143507,0.85389 0.01328,0.15086 -0.0108,0.3028 -0.0096,0.45424 0.0038,0.4686 0.01368,0.93665 0.01074,1.40575 0.131964,0.75358 0.535625,1.43189 0.734321,2.16807 0.215162,0.62303 0.144357,1.28356 0.208701,1.93077 0.14206,1.06756 0.573671,2.05388 1.068841,2.99956 0.559405,1.02302 1.327214,1.89474 2.062332,2.79027 0.339386,0.30976 0.635031,0.66238 0.958232,0.98662 0.346088,0.34719 0.672239,0.62548 0.982674,1.01169 0.09165,0.0928 0.177192,0.19208 0.27496,0.27842 0.28185,0.24891 0.59985,0.46356 0.886374,0.70798 0.326123,0.2782 0.449384,0.41485 0.759306,0.72513 0.834952,0.73022 1.672183,1.47727 2.685914,1.95217 0.446412,0.20914 1.044325,0.39583 1.513489,0.55326 0.522051,0.0543 1.061213,0.30876 1.597893,0.23222 0.198308,-0.0638 0.107307,-0.0474 0.270097,-0.0634 0.05078,0.005 0.104756,-0.004 0.152344,0.0143 0.261453,0.10086 0.632899,0.38958 0.843144,0.50117 0.56525,0.30001 1.296533,0.55834 1.891258,0.80303 0.241506,0.0605 0.477593,0.14965 0.724518,0.18148 0.403254,0.052 1.155352,0.0191 1.550721,-0.13869 0.300995,-0.12014 0.248753,-0.0996 0.135726,-0.28327 -0.310115,-0.17892 -0.537752,-0.3016 -0.838763,-0.52331 -0.05102,-0.0376 -0.192807,-0.12061 -0.131635,-0.13713 0.0082,-0.002 0.347479,0.22306 0.425105,0.26455 0.08048,0.043 0.166272,0.0753 0.249409,0.11289 0.507846,0.14828 1.01855,0.39936 1.542831,0.47276 0.550166,0.012 1.037123,0.26142 1.556627,0.40622 0.38083,0.0636 0.735633,0.24299 1.121758,0.28121 0.110444,0.0109 0.301862,0.0641 0.330128,-0.0433 0.0081,-0.031 -0.02837,-0.0574 -0.04255,-0.0862 -0.03476,0.0519 -0.134046,-0.22472 -0.205512,-0.17135 -0.0136,0.0101 0.05125,0.11725 0.147343,0.20239 0.12459,0.11038 0.477911,0.37149 0.583768,0.4513 0.10886,0.0827 0.221523,0.16059 0.32658,0.24805 0.383895,0.3196 0.446212,0.43515 0.86611,0.73279 0.429477,0.30443 0.908173,0.56324 1.358115,0.83711 0.06655,1.5e-4 1.434389,0.54933 0.898236,0.024 -0.04955,-0.0485 -0.105458,-0.0902 -0.158187,-0.13524 -0.0084,-0.007 -0.02808,-0.0334 -0.02529,-0.0224 0.178308,0.70297 0.644715,1.37522 1.015705,1.98497 0.551174,0.69167 1.165269,1.37544 1.909504,1.86648 2.098614,1.38463 -0.76528,-0.61746 0.967114,0.60625 0.392768,0.11683 0.603447,0.51348 0.965691,0.67534 0.421221,0.18821 -0.0127,-0.0716 0.272462,0.10817 0.359351,0.26474 -0.0877,-0.0838 0.533233,0.61614 0.679779,0.76634 1.560626,1.54171 2.629081,1.69042 0.529939,0.0738 1.069913,-0.0198 1.604871,-0.0297 0.451188,-0.27283 0.902373,-0.54566 1.353561,-0.81849 0.39512,0.0533 1.149203,-5.53451 0.754083,-5.58783 v 0 c -0.132342,-0.26707 -0.264681,-0.53413 -0.397023,-0.8012 0.0016,-0.0571 0.07464,-0.31112 -0.08737,-0.12668 -0.03803,0.0433 -0.02199,0.13359 -0.0752,0.15569 -0.212595,0.0883 -0.51259,-0.63225 -0.487063,-0.48956 -0.279629,-0.31826 -0.532719,-0.66143 -0.835582,-0.95766 -0.559572,-0.54733 -1.255705,-0.86869 -1.948026,-1.20755 -0.714798,-0.20729 -0.06403,0.0165 -0.351287,-0.1366 -0.04327,-0.0231 -0.103868,0.009 -0.146211,-0.016 -0.07495,-0.0437 -0.07227,-0.17504 -0.170807,-0.19649 -0.512937,-0.42672 -0.672435,-1.1691 -1.044714,-1.69859 -0.807888,-1.05435 -0.217715,-0.32734 -1.100229,-1.30772 -0.149563,-0.16615 -0.277436,-0.3528 -0.44062,-0.5056 -0.456827,-0.42775 -1.025963,-0.71272 -1.533118,-1.07084 -0.455933,-0.15954 -0.95024,-0.35589 -1.436519,-0.41055 -0.664299,-0.0747 0.01148,0.0543 -0.497533,0.0356 -0.04592,-0.002 -0.08805,-0.0263 -0.132069,-0.0395 -0.179065,-0.0688 -0.339976,-0.23309 -0.497308,-0.33358 -0.388534,-0.24817 -0.793029,-0.47351 -1.161072,-0.75424 -0.546718,-0.31613 -1.090722,-0.62814 -1.720451,-0.72879 -0.431574,-0.1823 -0.878047,-0.3182 -1.257584,-0.61114 -0.06259,-0.0381 -0.122311,-0.0815 -0.187782,-0.11443 -0.113181,-0.057 -0.432908,-0.0789 -0.435483,-0.23462 -0.02259,-0.0336 -0.03586,-0.003 -0.0745,-0.0323 -0.502252,-0.38271 -1.015853,-0.75108 -1.621084,-0.9594 -0.516093,-0.22102 -0.809531,-0.44695 -1.358946,-0.5815 -0.09347,-0.0229 -0.183332,-0.0708 -0.279561,-0.0721 -0.0993,-0.001 -0.193897,0.043 -0.290845,0.0645 -0.117126,0.0697 -0.224544,0.15833 -0.350162,0.21127 -0.03229,0.0136 -0.07294,0.001 -0.10359,0.018 -0.03476,0.0193 -0.04334,0.0859 -0.08309,0.0855 -0.211846,-0.002 -0.356399,-0.33829 -0.541623,-0.33257 -0.312416,-0.18772 -0.607056,-0.40488 -0.925058,-0.58298 -0.569753,-0.3191 -1.19468,-0.51023 -1.811735,-0.7102 -0.18002,-0.027 -0.404479,-0.10313 -0.589322,-0.0786 -0.01614,0.002 -0.201146,0.0763 -0.248258,0.0532 -0.06935,-0.0341 -0.121081,-0.0961 -0.181623,-0.1441 -0.803567,-0.67195 -1.326217,-1.64061 -2.223206,-2.21619 -0.367127,-0.22297 -0.739091,-0.45091 -1.116704,-0.65561 -0.08108,-0.044 -0.17345,-0.0662 -0.251528,-0.11529 -0.142277,-0.0895 -0.239035,-0.24062 -0.387787,-0.32223 -0.278058,-0.10777 -0.12224,0.0339 -0.145121,-0.2656 -0.111638,-0.69289 -0.258513,-1.38689 -0.555232,-2.02802 -0.05448,-0.11298 -0.293269,-0.61061 -0.351539,-0.72175 -0.149925,-0.28598 -0.350971,-0.54416 -0.389275,-0.87438 -0.01273,-0.0573 -0.03746,-0.11319 -0.0382,-0.17188 -0.0035,-0.2792 0.335195,-0.80098 0.169973,-1.11548 -0.05352,-0.20649 -0.137239,-0.40477 -0.184121,-0.61286 -0.02289,-0.1016 -0.0191,-0.20764 -0.03687,-0.31026 -0.01299,-0.075 -0.05604,-0.14552 -0.05523,-0.22166 0.0016,-0.15869 0.128609,-0.3 0.107858,-0.46371 0.0049,-0.29346 0.08663,-0.55259 0.105457,-0.84425 0.0068,-0.10558 -0.003,-0.65865 0.008,-0.74699 0.01455,-0.11662 0.05757,-0.22788 0.08635,-0.34183 0.03922,-0.35974 0.02821,-0.40975 0.134556,-0.76217 0.04403,-0.1459 0.11907,-0.28231 0.152712,-0.43095 0.110088,-0.48637 0.0575,-1.00498 0.149479,-1.49452 0.0071,-0.16756 0.02379,-0.33499 0.02119,-0.50268 -0.0041,-0.26491 -0.07443,-0.64202 -0.03098,-0.915109 0.01945,-0.122219 0.08403,-0.23309 0.116652,-0.352467 0.03248,-0.118838 0.05226,-0.240787 0.07839,-0.36118 0.0387,-0.140057 0.0774,-0.280111 0.116105,-0.420165 0.06675,-0.480404 0.06623,-0.959741 0.120975,-1.439692 0.0658,-0.576793 0.177265,-1.153288 0.270261,-1.726248 0.03459,-0.21261 0.08773,-0.423025 0.103782,-0.637835 0.08552,-1.144361 -0.102443,-2.25816 -0.444226,-3.345911 -0.07032,-1.152992 0.03544,0.168889 -0.125548,-0.910393 -0.122592,-0.821885 0.0695,0.0881 0.0047,-0.828304 -0.02698,-0.381623 -0.192416,-0.745512 -0.189711,-1.131946 -0.03239,-0.217329 -0.04193,-0.439317 -0.09718,-0.651986 -0.07256,-0.279283 -0.443832,-1.165162 -0.543451,-1.42425 -0.08858,-0.230399 -0.142573,-0.47563 -0.255994,-0.694872 -0.113165,-0.218738 -0.726643,-1.06811 -0.890491,-1.298517 -0.326467,-0.405918 -0.469953,-0.614783 -0.83594,-0.964022 -1.0168,-0.97027 0.179308,0.229624 -0.649358,-0.538415 -0.06362,-0.05896 -0.103859,-0.142023 -0.173042,-0.194342 -0.05056,-0.03823 -0.117827,-0.04678 -0.176742,-0.07017 -0.366278,-0.481144 -0.745356,-0.950337 -1.061808,-1.468435 -0.757946,-0.801028 -1.413966,-1.702848 -2.292363,-2.387367 -0.350223,-0.263739 -0.71257,-0.518807 -0.865398,-0.943008 -0.156165,-0.216667 -0.291922,-0.44796 -0.454445,-0.659902 -0.453479,-0.591372 -1.050244,-1.013789 -1.650379,-1.442149 -0.09591,-0.05297 -0.191812,-0.105944 -0.287718,-0.158916 -0.06343,-0.0245 -0.130614,-0.04089 -0.190285,-0.07348 -0.313531,-0.171264 -0.548065,-0.445738 -0.813559,-0.678171 -0.552883,-0.48832 -1.069595,-1.035795 -1.707782,-1.414193 -0.06674,-0.02596 -0.131553,-0.05759 -0.200229,-0.0779 -0.04565,-0.01349 -0.09819,-0.0021 -0.140935,-0.02299 -0.229097,-0.112241 -0.392694,-0.358129 -0.620074,-0.475654 -0.100595,-0.05248 -0.338624,-0.171939 -0.430413,-0.238952 -0.157819,-0.115216 -0.243575,-0.255963 -0.438369,-0.317913 -0.397618,-0.126452 0.08456,0.136229 -0.153673,-0.0016 -0.184459,-0.10723 -0.262003,-0.390382 -0.400851,-0.551526 -0.238474,-0.27677 -0.528369,-0.521909 -0.799741,-0.764724 -0.593971,-0.537816 -1.121795,-1.146491 -1.83146,-1.54244 -0.370254,-0.217241 -0.75182,-0.406762 -1.155211,-0.548422 -0.150503,-0.04096 -0.335936,-0.03616 -0.475556,-0.107704 -0.208032,-0.106608 -0.385469,-0.280016 -0.566716,-0.423806 -0.227012,-0.158604 -0.367649,-0.242377 -0.62916,-0.335896 -0.114636,-0.041 -0.135025,-0.08804 -0.0902,-0.0217 0.02802,0.0426 0.03543,0.113284 0.08437,0.127582 0.01291,0.0038 0.02148,-0.02514 0.01561,-0.03723 -0.076,-0.156509 -0.347167,-0.206602 -0.395768,-0.380388 -0.381103,-0.415353 -0.740391,-0.848272 -1.178577,-1.205028 -0.378984,-0.377469 -0.831828,-0.763298 -1.358586,-0.899836 -0.09463,-0.02617 -0.230045,-0.05564 -0.310025,-0.114704 -0.264814,-0.195556 -0.47539,-0.538255 -0.765447,-0.714134 -0.395091,-0.305297 -0.802623,-0.613914 -1.254639,-0.828536 -0.05349,-0.02114 -0.106987,-0.04226 -0.16048,-0.06339 -0.0491,0.0064 -0.100306,0.03462 -0.147291,0.01902 -0.299796,-0.09952 -0.646823,-0.544308 -0.962971,-0.635981 -0.505528,-0.2723 -1.001137,-0.563622 -1.491211,-0.862135 -0.05042,-0.03419 -0.08783,-0.08902 -0.144063,-0.112461 -0.178418,-0.07438 -0.39562,-0.04025 -0.573065,-0.121783 -0.153083,-0.077 -0.334555,-0.2272 -0.497326,-0.270663 -0.06727,-0.01797 -0.140891,0.01265 -0.208865,-0.0024 -0.222382,-0.04935 -0.263135,-0.126097 -0.427957,-0.274272 -0.283649,-0.215966 -0.32617,-0.360865 -0.540091,-0.629924 -0.217929,-0.274098 -0.495323,-0.504764 -0.735461,-0.758115 -0.273698,-0.14791 -0.797144,-0.5086 -1.083089,-0.564382 -0.05823,-0.01135 -0.166769,-0.06069 -0.177959,-0.0024 -0.019,0.09889 0.08378,0.183133 0.125669,0.2747 0.121759,0.151503 0.348707,0.65162 0.366186,0.150431 0.0021,-0.06005 -0.01905,-0.118662 -0.02857,-0.177992 -0.0154,-0.295487 0.01603,-0.596839 -0.08445,-0.881898 -0.02984,-0.08466 -0.08333,-0.159088 -0.128716,-0.236529 -0.02156,-0.03679 -0.06434,-0.06384 -0.07192,-0.105799 -0.01363,-0.07538 0.0075,-0.153019 0.0113,-0.229528 0.0058,-0.522911 0.04099,-1.041711 0.111127,-1.559489 0.01775,-0.19281 0.06566,-0.184002 0.06056,-0.08339 -0.0075,0.148958 -0.118089,0.270309 -0.124923,0.419679 -0.02577,0.03592 -0.114141,0.08338 -0.07728,0.107778 0.07657,0.05067 0.966855,-0.806978 1.050188,-0.898058 0.02185,-0.02954 0.877121,-1.237378 0.417795,-0.491029 -0.04412,0.07168 -0.0858,0.144835 -0.128699,0.217251 0.0024,0.04607 -0.0232,0.103272 0.0069,0.138203 0.289417,0.335631 1.674805,0.0433 2.019605,-0.04966 0.722642,-0.300955 1.383046,-0.697343 2.0101,-1.16343 0.366109,-0.03299 1.026439,-0.120541 1.35059,-0.225083 0.372983,-0.120293 0.705066,-0.348977 1.082549,-0.458657 0.196646,-0.119034 0.406519,-0.218551 0.589938,-0.3571 0.504293,-0.38092 0.611452,-0.592957 1.025707,-1.049643 0.350726,-0.386654 0.704558,-0.762145 0.959137,-1.225453 0.135821,-0.174265 0.253658,-0.362606 0.396549,-0.531124 0.04231,-0.0499 0.10306,-0.08217 0.144573,-0.132731 0.133488,-0.162586 0.150392,-0.394787 0.330372,-0.526679 1.096802,-0.982216 1.960877,-2.18745 2.448231,-3.586139 0.08351,-0.292131 0.197792,-0.577172 0.250536,-0.876391 0.119071,-0.67547 0.06571,-1.210925 0.02336,-1.887186 -0.01624,-0.259445 -0.01333,-0.521654 -0.05843,-0.777668 -0.102521,-0.582103 -0.28893,-0.991011 -0.498503,-1.532814 -0.160634,-0.478334 -0.09497,-0.399607 -0.356396,-0.782117 -0.05596,-0.08188 -0.132718,-0.149529 -0.180869,-0.236228 -0.250642,-0.451315 -0.302863,-1.014358 -0.492508,-1.48398 -0.137536,-0.279775 -0.25528,-0.570179 -0.412604,-0.839326 -0.519792,-0.889239 -1.249586,-1.575496 -2.177637,-2.015532 -0.370392,-0.187854 -0.363466,-0.227647 -0.793053,-0.264697 -0.09817,-0.0085 -0.197943,0.03311 -0.295116,0.0168 -0.06941,-0.01164 -0.119925,-0.07692 -0.187158,-0.09774 -0.158623,-0.04912 -0.33428,-0.0236 -0.491011,-0.08412 -0.08174,-0.06901 -0.183771,-0.119478 -0.245226,-0.207044 -0.0978,-0.139351 -0.146454,-0.307408 -0.222673,-0.459639 -0.09456,-0.188854 -0.199151,-0.372699 -0.28962,-0.563543 -0.09867,-0.20815 -0.162007,-0.433588 -0.277534,-0.632875 -0.122145,-0.210703 -0.277786,-0.400679 -0.43125,-0.589792 -0.142181,-0.175212 -0.302979,-0.334462 -0.454468,-0.501692 -0.680233,-0.77967 -0.111554,-0.17889 -0.866404,-0.846067 -0.251428,-0.222224 -0.616309,-0.617492 -0.906337,-0.795686 -0.0064,-0.0039 -1.130568,-0.512098 -1.150171,-0.520964 -0.04712,-0.05657 -0.528812,-0.629983 -0.555106,-0.681912 -0.05895,-0.116417 -0.221035,-0.851706 -0.251727,-0.963014 -0.05239,-0.190012 -0.143054,-0.370559 -0.173426,-0.565308 -0.03305,-0.211957 -0.01005,-0.42892 -0.01508,-0.643378 -0.133937,-1.543707 -0.415684,-3.225154 -1.548419,-4.38547 -0.202784,-0.207722 -0.460168,-0.354014 -0.690249,-0.531021 -0.06504,-0.235415 -3.394312,0.684361 -3.329272,0.919776 z"
       transform="rotate(-1.6436798,67.862805,79.852004)" />
    <path
       style="opacity:0.65;fill:#f9a8d4;fill-opacity:1;stroke-width:270.621;filter:url(#filter5482)"
       id="path5416"
       d="m 50.591517,124.1759 c -0.466108,0.94936 -0.380684,1.80936 -0.0425,2.78502 0.125333,0.3616 0.244916,0.73144 0.441369,1.05987 0.186108,0.31114 0.464912,0.55648 0.693689,0.83774 0.241104,0.29641 0.477271,0.5968 0.715906,0.89521 0.726759,0.98121 1.712058,1.57536 2.784882,2.10315 0.271605,0.13362 0.538095,0.28327 0.825369,0.37866 0.383632,0.12739 0.857101,0.14807 1.261209,0.18152 0.49518,0.12432 1.028495,0.0935 1.450663,0.4205 0.174868,0.13546 0.33283,0.29144 0.499245,0.43717 0.794846,0.65674 1.697585,1.02353 2.728956,1.04766 0.348038,0.008 0.696131,-0.0225 1.04424,-0.0183 0.248494,0.0619 0.506962,-0.0247 0.75608,0.0138 0.118457,0.0183 0.563705,0.21428 0.651057,0.24712 0.771813,0.2902 0.07857,-0.011 0.858323,0.34651 0.341146,0.20254 0.731194,0.24359 1.103412,0.34537 0.0086,0.002 -0.01408,0.0161 -0.02278,0.0141 -0.178027,-0.042 -0.0336,-0.0669 -0.192113,-0.017 -0.04362,0.0811 -0.118706,0.15208 -0.130847,0.24338 -0.01701,0.128 0.03536,0.2559 0.04736,0.38446 0.02003,0.21459 0.03818,0.42947 0.0487,0.64474 0.01442,0.29513 -0.0049,0.59221 0.02609,0.88607 0.05083,0.48163 0.300712,1.5701 0.397909,2.01944 0.06735,0.41908 0.07813,0.85128 0.202046,1.25725 0.116054,0.38022 0.359055,0.71025 0.510677,1.07772 0.649668,1.57455 0.143825,0.56962 0.654364,2.07914 0.208703,0.61708 0.435006,1.0255 0.72087,1.59737 0.07833,0.21218 0.33311,0.94751 0.473944,1.17296 0.07676,0.12289 0.226015,0.19278 0.292566,0.32148 0.07824,0.15131 0.0872,0.32935 0.12932,0.49441 0.242099,0.94862 0.142764,0.53156 0.351422,1.72304 0.234976,0.96012 0.316047,1.53078 0.751508,2.41483 0.149577,0.30366 0.358105,0.57458 0.542078,0.85872 0.190282,0.29388 0.373207,0.59319 0.580619,0.87525 0.375266,0.51033 0.800657,0.98184 1.197024,1.47595 0.731773,1.0202 1.857674,1.4972 2.904174,2.10282 1.359535,0.50063 0.603397,0.3605 2.290166,0.27854 0.186177,0.25904 3.849521,-2.37389 3.663345,-2.63293 v 0 c 0.937349,-0.99993 0.580019,-0.5093 1.143099,-1.41734 -0.357322,-1.89202 -0.83413,-3.56615 -2.297623,-4.9256 -1.476989,-1.21392 0.296357,0.2655 -0.878638,-0.77312 -0.102142,-0.0903 -0.222149,-0.15977 -0.31996,-0.25473 -0.07863,-0.0763 -0.226922,-0.40775 -0.438713,-0.31095 -0.07038,0.0322 -0.07905,0.13305 -0.11857,0.19958 -0.01151,0.0812 -0.08917,0.58968 0.10383,-0.24305 0.05002,-0.21582 0.06809,-0.43796 0.11189,-0.65513 0.06945,-0.34436 0.189923,-0.67973 0.227758,-1.02898 0.10432,-0.963 -0.0294,-1.6005 -0.142512,-2.56355 -0.203451,-1.23401 -0.221184,-1.79086 -0.725765,-2.96715 -0.403208,-0.93998 -0.985397,-1.73516 -1.531348,-2.58844 -0.230248,-0.35986 -0.403002,-0.76148 -0.681555,-1.0854 -0.284347,-0.33065 -0.659124,-0.57123 -0.988686,-0.85684 -0.344725,-0.30888 -1.05236,-0.96414 -1.454298,-1.24965 -0.208227,-0.1479 -0.44777,-0.24779 -0.657031,-0.39423 -0.586467,-0.41041 -0.877217,-1.03983 -1.447066,-1.47275 -0.416821,-0.47348 -0.67449,-0.80718 -1.176902,-1.20459 -0.210259,-0.16631 -0.44719,-0.29579 -0.671477,-0.44264 -0.496963,-0.32536 -0.991969,-0.64012 -1.580097,-0.77704 -1.606032,-0.41092 0.47305,0.13188 -1.053311,-0.30025 -0.375477,-0.1063 -0.763721,-0.16489 -1.137283,-0.27774 -0.163287,-0.0493 -0.318701,-0.1217 -0.478051,-0.18256 -0.176879,-0.048 -0.353756,-0.0959 -0.530635,-0.14387 -0.918486,-0.22657 -1.848061,-0.65127 -2.742717,-0.0998 -0.06693,0.0474 -0.11898,0.1362 -0.200784,0.14229 -0.186544,0.0139 -0.624167,-0.49508 -0.735969,-0.59591 -0.314354,-0.28353 -0.490627,-0.38141 -0.850103,-0.62237 -0.15273,-0.13135 -0.653665,-0.57469 -0.82733,-0.67284 -0.163941,-0.0927 -0.351358,-0.13578 -0.524911,-0.20886 -0.408895,-0.17218 -0.795633,-0.38898 -1.202427,-0.56573 -1.035247,-1.01968 0.289854,0.36529 -0.733969,-1.0324 -0.16765,-0.22887 -0.391527,-0.41069 -0.585617,-0.61762 -0.67973,-0.72468 -1.238442,-1.32745 -2.241375,-1.59804 -0.101441,-0.27168 -3.943631,1.16291 -3.842189,1.4346 z"
       transform="rotate(-1.6436798,67.862805,79.852004)" />
  </g>
</svg>
