<?xml version="1.0" encoding="UTF-8" standalone="no"?>
<!-- Created with Inkscape (http://www.inkscape.org/) -->

<svg
   width="500"
   height="600"
   viewBox="0 0 132.29149 158.74929"
   version="1.1"
   id="svg5"
   inkscape:version="1.2.2 (732a01da63, 2022-12-09)"
   sodipodi:docname="waterfall.svg"
   xmlns:inkscape="http://www.inkscape.org/namespaces/inkscape"
   xmlns:sodipodi="http://sodipodi.sourceforge.net/DTD/sodipodi-0.dtd"
   xmlns="http://www.w3.org/2000/svg"
   xmlns:svg="http://www.w3.org/2000/svg">
  <sodipodi:namedview
     id="namedview7"
     pagecolor="#505050"
     bordercolor="#eeeeee"
     borderopacity="1"
     inkscape:showpageshadow="0"
     inkscape:pageopacity="0"
     inkscape:pagecheckerboard="0"
     inkscape:deskcolor="#505050"
     inkscape:document-units="mm"
     showgrid="false"
     inkscape:zoom="0.83972969"
     inkscape:cx="309.62345"
     inkscape:cy="338.7995"
     inkscape:window-width="1368"
     inkscape:window-height="842"
     inkscape:window-x="-6"
     inkscape:window-y="-6"
     inkscape:window-maximized="1"
     inkscape:current-layer="layer1"
     showguides="false" />
  <defs
     id="defs2" />
  <g
     inkscape:label="Layer 1"
     inkscape:groupmode="layer"
     id="layer1">
    <path
       style="opacity:1;fill:#000000;stroke-width:270.621"
       id="path640"
       d="m 18.033895,81.087719 c 4.433111,1.230571 9.032815,1.758751 13.567249,2.488711 3.884652,0.53095 7.831235,1.19405 11.234455,3.26717 2.076087,1.26467 2.172739,1.58341 3.781452,3.28375 1.189197,1.75194 2.137761,3.69959 2.418566,5.82361 0.229444,1.73553 -0.11671,3.36268 -0.525732,5.03203 -0.704431,2.12965 -1.630786,4.17798 -2.250339,6.33659 -0.402566,1.4026 -0.381931,1.51033 -0.6332,2.94752 -0.440533,3.21492 0.228586,6.03534 1.268482,9.04475 1.276386,3.00244 2.315144,6.16794 4.1035,8.92408 0.320875,0.49452 0.701314,0.94774 1.051974,1.42161 0.430796,0.43462 0.83491,0.89743 1.292395,1.30387 0.912912,0.81105 1.808573,1.37441 2.831384,2.02666 1.51763,0.9678 3.069425,1.87989 4.620482,2.79248 2.770628,1.84128 4.904731,4.43335 5.916711,7.63097 0.20041,0.63325 0.3047,1.29298 0.45706,1.93947 0.24188,1.35746 0.46374,2.9658 0.96682,4.25872 0.25073,0.64438 0.64411,1.22373 0.96616,1.83559 0.0238,0.0625 0.90714,-0.27339 0.88339,-0.33586 v 0 c -0.56063,-2.01331 -1.19363,-4.01428 -1.50377,-6.08713 -0.44438,-1.73598 -0.52909,-2.44578 -1.32925,-4.06298 -1.26155,-2.54971 -3.231872,-4.60415 -5.621202,-6.12035 -2.962618,-1.72269 -6.114433,-3.25643 -8.517612,-5.76121 -0.314827,-0.45226 -0.655102,-0.88783 -0.944484,-1.35678 -0.747333,-1.21107 -1.136011,-2.12773 -1.732878,-3.42562 -0.571291,-1.24228 -1.147621,-2.48228 -1.709799,-3.72871 -0.237074,-0.52563 -0.462928,-1.05626 -0.694393,-1.58439 -0.441012,-1.14549 -0.682571,-1.64484 -0.953395,-2.82398 -0.431345,-1.87805 -0.522663,-3.84187 -0.313489,-5.75281 0.08343,-0.46895 0.140552,-0.94335 0.250277,-1.40686 0.213376,-0.90135 0.649287,-2.07512 0.948752,-2.9362 0.565401,-1.62576 1.18488,-3.23117 1.704658,-4.87246 0.369977,-1.433 0.587303,-1.97667 0.652102,-3.49125 0.13303,-3.10945 -0.807777,-5.79773 -2.602983,-8.31968 -1.651472,-1.81268 -1.843771,-2.27149 -4.00694,-3.59534 -3.476822,-2.1278 -7.560922,-2.84654 -11.508251,-3.53751 -4.628305,-0.61971 -9.26845,-1.084854 -13.919531,-1.494162 -0.02373,-0.0105 -0.172357,0.325191 -0.148621,0.335701 z" />
    <path
       style="opacity:1;fill:#000000;stroke-width:270.621"
       id="path656"
       d="m 36.399849,15.229784 c -0.02437,2.867566 0.542252,5.757749 1.577152,8.431926 0.304681,0.787288 0.692776,1.539698 1.039163,2.309547 1.511639,2.798045 3.538115,5.277788 6.108591,7.1669 1.093604,0.803718 2.144647,1.354691 3.31958,2.020572 2.040766,1.154143 4.745918,2.342949 5.201434,4.960209 0.08344,0.479406 0.01246,0.973144 0.01868,1.459717 -0.101529,0.5114 -0.150217,1.036195 -0.304583,1.534201 -0.839479,2.708324 -2.950597,4.720737 -4.970696,6.579475 -1.695961,1.501238 -3.373021,3.118827 -3.857559,5.429121 -0.303212,1.445715 -0.09462,1.845302 0.146502,3.286882 0.248195,0.576725 0.440163,1.181051 0.744584,1.730177 1.558611,2.811472 4.22375,4.747481 6.823471,6.505688 0.49351,0.32286 0.98645,0.646593 1.480532,0.96858 0.92649,0.603781 1.958314,1.249414 2.8514,1.906739 1.286434,0.946831 2.495351,2.007655 3.726214,3.024313 2.59586,2.076008 5.25373,4.069442 7.69541,6.328299 2.12569,1.90778 3.10335,4.43284 3.3763,7.24188 0.0624,0.64234 0.0532,1.28963 0.0798,1.93444 0.004,2.59605 -0.16074,5.20106 0.20491,7.78256 0.24562,1.73402 0.40306,2.09763 0.86796,3.81353 0.87424,2.77194 2.42272,5.20545 4.39569,7.32363 0.81826,0.87849 2.39005,2.27407 3.24247,3.05096 0.68235,0.57407 1.3653,1.14743 2.04705,1.72221 2.49835,2.10639 2.32076,1.907 4.8719,4.33117 0.98256,0.93367 1.92834,1.9057 2.91629,2.83366 1.07595,1.01062 2.18305,1.98755 3.27458,2.98133 0.078,0.0931 1.39494,-1.00933 1.31698,-1.10245 v 0 c -1.04889,-1.03388 -2.07507,-2.09132 -3.14668,-3.10164 -3.24994,-3.06403 -6.78239,-5.7981 -10.32115,-8.51537 -0.60171,-0.49137 -1.22838,-0.95368 -1.80514,-1.47411 -0.49053,-0.44263 -0.9425,-0.92684 -1.39216,-1.41093 -1.87696,-2.0207 -3.42496,-4.24531 -4.27465,-6.89675 -0.4807,-1.57777 -0.6865,-2.01007 -0.89758,-3.62575 -0.3361,-2.57261 -0.1167,-5.16836 -0.15186,-7.7502 -0.0479,-0.67685 -0.0636,-1.35674 -0.14361,-2.03055 -0.3606,-3.03862 -1.47507,-5.59275 -3.7358,-7.688031 -2.43339,-2.288069 -4.97989,-4.434871 -7.70778,-6.368743 -1.23613,-1.042708 -2.446086,-2.122791 -3.736338,-3.099327 -1.142001,-0.864335 -1.643071,-1.172026 -2.85757,-1.950668 -0.490971,-0.314771 -0.98513,-0.624542 -1.477696,-0.936816 -2.440805,-1.695107 -4.948665,-3.574572 -6.547027,-6.139709 -0.297793,-0.477917 -0.506081,-1.006093 -0.759123,-1.509139 -0.267874,-1.313052 -0.458551,-1.553134 -0.184419,-2.879952 0.453969,-2.197256 2.148477,-3.604771 3.743748,-5.020515 2.073056,-2.033614 4.320058,-4.204882 5.118895,-7.102042 0.154339,-0.559749 0.187563,-1.146028 0.281345,-1.719043 -0.115435,-1.408209 0.0026,-1.811671 -0.649737,-3.057103 -1.027209,-1.961205 -3.039045,-3.015836 -4.870285,-4.083116 -1.228617,-0.700804 -2.031542,-1.106703 -3.165949,-1.964634 -2.427782,-1.836087 -4.287028,-4.249383 -5.7984,-6.871927 -0.34673,-0.733763 -0.731963,-1.450542 -1.040189,-2.201291 -1.079578,-2.629526 -1.709675,-5.420527 -2.349489,-8.178606 -0.0016,-0.02299 -0.326623,-0.0024 -0.325159,0.02069 z" />
    <path
       style="opacity:1;fill:#000000;stroke-width:270.621"
       id="path752"
       d="m 6.3374406,144.96937 c 2.8598975,-1.4257 5.8205594,-2.734 8.9266544,-3.52915 0.841802,-0.2155 1.70263,-0.34833 2.553945,-0.52249 2.821177,-0.42848 5.746263,-0.56684 8.542115,0.12672 1.225543,0.30401 1.816728,0.61836 2.956671,1.11718 1.918308,1.09952 4.152804,2.20228 5.278189,4.22213 0.160737,0.2885 0.251012,0.61095 0.37652,0.91642 0.03065,0.34864 0.116821,0.69682 0.09195,1.04592 -0.14614,2.05114 -1.322169,4.21675 -2.71913,5.67276 -0.386792,0.40314 -0.835628,0.74178 -1.253441,1.11267 -0.501329,0.26158 -0.983037,0.56481 -1.503982,0.78474 -0.417385,0.17621 -0.859461,0.29035 -1.299355,0.39876 -2.53284,0.62418 -5.124724,0.48742 -7.707184,0.38801 -3.358641,-0.17635 -6.77728,-0.43578 -10.040074,-1.31473 -0.5651741,-0.15225 -1.1144518,-0.35833 -1.6716773,-0.53749 -1.8848815,-0.78871 -4.5601157,-1.76676 -5.4099216,-3.84161 -0.1354039,-0.3306 -0.1658406,-0.69499 -0.2487609,-1.04249 0.028477,-0.37845 0.00704,-0.76403 0.085432,-1.13538 0.2644081,-1.25253 1.0329526,-2.55423 2.0162218,-3.37724 0.9860835,-0.82537 1.387005,-0.84824 2.5464915,-1.24166 2.2797085,-0.543 1.1197247,-0.31344 3.4810105,-0.68329 0.09261,0.006 0.175323,-1.30386 0.08271,-1.3097 v 0 c -2.5322969,0.26695 -1.274018,0.0636 -3.7744743,0.61241 -0.6909984,0.30809 -1.4166011,0.54805 -2.0729948,0.92427 -1.8317955,1.04994 -3.2151908,3.03504 -3.5100739,5.1321 -0.066315,0.47159 -0.010752,0.95241 -0.016127,1.42861 0.120683,0.43711 0.1843005,0.89414 0.3620489,1.3113 1.0175685,2.38818 3.6137477,3.58891 5.8429408,4.53334 1.321761,0.4448 2.1985813,0.77563 3.5635793,1.08973 2.776258,0.63885 5.622706,0.75686 8.452833,0.967 3.443995,0.0749 7.077998,0.22766 10.282727,-1.26762 0.584356,-0.27265 1.105531,-0.66411 1.658298,-0.99617 0.462909,-0.42433 0.970382,-0.80466 1.388727,-1.27299 1.560159,-1.74652 2.631913,-4.15762 2.572186,-6.52932 -0.01079,-0.42882 -0.132016,-0.8477 -0.198024,-1.27155 -0.151128,-0.36694 -0.263856,-0.75217 -0.453382,-1.10083 -1.186361,-2.18253 -3.50936,-3.4818 -5.610045,-4.61591 -1.329328,-0.60873 -1.700828,-0.83879 -3.135292,-1.24398 -2.918169,-0.82428 -5.96563,-0.83967 -8.949003,-0.39452 -0.88698,0.1977 -1.784152,0.35422 -2.660941,0.59309 -3.311406,0.90215 -6.541566,2.36343 -9.2449113,4.4927 -0.025334,0.0295 0.392208,0.38779 0.4175409,0.35826 z" />
    <path
       style="opacity:1;fill:#000000;stroke-width:270.621"
       id="path756"
       d="m 35.27766,145.92083 c 2.116407,-0.30375 3.938008,-1.53323 5.93167,-2.21326 0.541099,-0.18457 1.10402,-0.29756 1.65603,-0.44634 3.418883,-0.93285 7.051242,-0.91421 10.456492,0.0984 0.709907,0.21111 1.393593,0.50204 2.09039,0.75306 2.103538,1.07129 4.847602,2.05652 5.818688,4.45299 0.429439,1.05977 0.246898,1.57376 0.137721,2.65311 -0.403857,1.19055 -0.982487,2.32944 -2.058387,3.05716 -1.328889,0.89885 -3.015717,1.30002 -4.51995,1.77104 -3.44695,0.82379 -6.999697,1.05562 -10.533178,1.05017 -1.541432,-0.0987 -3.10513,0.0421 -4.643837,-0.10442 -1.082083,-0.10303 -1.444829,-0.24771 -2.519377,-0.52966 -1.900061,-0.6792 -0.960892,-0.29616 -2.816219,-1.15227 -0.06397,-0.0406 -0.638031,0.8641 -0.57406,0.90469 v 0 c 1.923346,1.01088 0.938756,0.57288 2.951714,1.31862 0.477085,0.11719 0.948723,0.25936 1.431259,0.35158 1.960041,0.3746 3.963196,0.17422 5.940822,0.31343 1.502609,0.0889 3.016963,0.20619 4.523234,0.14523 2.13941,-0.0866 4.262458,-0.41471 6.33219,-0.96101 0.624945,-0.1956 1.264577,-0.34932 1.874835,-0.58681 2.069304,-0.8053 4.197553,-1.99571 5.213258,-4.08154 0.227947,-0.46811 0.345832,-0.98222 0.518747,-1.47333 0.10368,-1.41698 0.294534,-1.84998 -0.263866,-3.23073 -1.06419,-2.63141 -3.783486,-3.96189 -6.191408,-5.07144 -0.737393,-0.26049 -1.462094,-0.56016 -2.212173,-0.78146 -3.606973,-1.06422 -7.405633,-1.11025 -11.03042,-0.11626 -0.747354,0.26687 -1.505816,0.50448 -2.242065,0.80062 -1.82784,0.73522 -3.488847,1.8166 -5.266916,2.65032 -0.03027,-2.6e-4 -0.03547,0.42774 -0.0052,0.42811 z" />
    <path
       style="opacity:1;fill:#000000;stroke-width:270.621"
       id="path772"
       d="m 24.427648,139.16495 c -1.551666,0.28939 -3.09425,0.58758 -4.681794,0.52758 -0.362704,-0.0137 -0.723262,-0.0621 -1.084893,-0.0932 -2.099373,-0.34719 -4.168831,-0.95001 -5.994893,-2.05813 -0.138299,-0.16567 -0.322757,-0.30186 -0.414898,-0.49701 -0.451319,-0.95587 1.145951,-2.14476 1.774663,-2.51703 0.447757,-0.26513 0.940441,-0.44574 1.410662,-0.66861 3.652189,-1.42025 6.628481,-1.17453 10.357476,-0.33558 0.448614,0.14852 0.901746,0.28402 1.345842,0.44555 0.5786,0.21044 1.667707,0.69199 2.246511,0.90887 1.256075,0.47067 2.538202,0.80717 3.839821,1.1221 2.175208,0.50576 4.424227,0.65349 6.586706,1.21632 0.417091,0.10856 0.825173,0.24918 1.237761,0.37376 0.720004,0.33847 2.755933,1.06614 3.023535,1.95915 0.07971,0.26601 -0.230893,0.53296 -0.354856,0.68389 -1.38932,1.14442 -2.900009,2.13331 -4.368058,3.17283 -0.05009,0.0487 0.639235,0.75717 0.689328,0.70843 v 0 c 0.351409,-0.18658 0.71515,-0.35158 1.054226,-0.55973 1.300161,-0.79811 2.509646,-1.80863 3.484595,-2.98022 0.108413,-0.24023 0.274581,-0.46204 0.325241,-0.72069 0.342389,-1.74809 -2.175679,-2.75093 -3.372697,-3.27434 -1.268485,-0.40087 -1.339579,-0.4607 -2.652852,-0.72434 -1.734162,-0.34812 -3.511175,-0.45312 -5.225837,-0.90083 -1.253187,-0.28961 -2.524037,-0.55021 -3.732329,-1.00201 -1.294097,-0.48389 -0.930837,-0.44931 -2.237722,-1.01423 -0.460439,-0.19904 -0.933534,-0.36742 -1.4003,-0.55112 -0.549033,-0.16115 -1.088613,-0.35895 -1.647097,-0.48345 -2.598929,-0.5794 -5.433108,-0.60342 -7.988377,0.21278 -0.696615,0.22251 -1.355119,0.55026 -2.032679,0.82539 -0.485463,0.29974 -0.997958,0.55957 -1.456389,0.89921 -1.103349,0.81746 -2.362829,2.27977 -1.68833,3.75497 0.127727,0.27936 0.365643,0.49368 0.548465,0.74052 0.276808,0.19723 0.53672,0.42064 0.830424,0.5917 1.673661,0.97479 3.671956,1.2749 5.531982,1.68729 0.391839,0.0378 0.782142,0.0984 1.175516,0.11334 1.681211,0.0637 3.375691,-0.29427 4.939818,-0.89108 0.04752,-0.005 -0.02105,-0.67691 -0.06857,-0.67206 z" />
    <path
       style="opacity:1;fill:#000000;stroke-width:270.621"
       id="path790"
       d="m 52.393707,142.49528 c 1.347889,-1.0606 2.389098,-2.54333 2.76753,-4.23463 0.079,-0.35307 0.08888,-0.71811 0.133323,-1.07715 -0.0172,-1.58191 -0.645164,-3.09089 -1.940932,-4.0514 -0.198138,-0.14688 -0.422374,-0.25479 -0.633561,-0.38219 -1.625585,-0.70379 -3.421182,-0.65867 -5.15661,-0.61302 -0.710028,-0.0665 -1.436787,0.24198 -2.144044,0.13268 -0.251258,-0.0389 -0.431184,-0.12636 -0.668554,-0.21933 -1.186332,-0.52785 -2.401612,-0.98829 -3.611199,-1.45967 -1.571431,-0.6294 -3.228832,-0.96378 -4.898107,-1.20129 -2.015041,-0.27903 -3.763789,-0.15848 -5.650077,0.63133 -1.047823,0.54175 -2.599968,1.16113 -2.641092,2.57649 -0.0097,0.33178 0.125718,0.65185 0.188571,0.97776 0.01049,0.0633 0.904962,-0.0845 0.894469,-0.14802 v 0 c -0.03279,-0.41144 -0.130653,-0.71805 0.08392,-1.09606 0.415171,-0.73144 1.441198,-0.99431 2.119159,-1.37405 0.04905,-0.0175 0.977905,-0.35666 1.14076,-0.39322 1.145856,-0.25718 2.330191,-0.13464 3.487673,-0.0496 1.608514,0.20146 3.215886,0.44203 4.750018,0.98835 1.224932,0.4507 2.422992,0.97499 3.67152,1.36117 1.076128,0.38732 1.917758,0.41463 3.066194,0.34539 1.579745,-0.0482 3.275621,-0.22019 4.796238,0.27352 1.448128,0.81319 2.085942,1.96487 2.170324,3.62327 -0.118311,0.79486 -0.129572,1.17159 -0.436683,1.93906 -0.446016,1.11458 -1.226823,2.06474 -1.984254,2.97752 -0.03346,0.035 0.461956,0.50821 0.495414,0.47318 z" />
    <path
       style="opacity:1;fill:#000000;stroke-width:270.621"
       id="path826"
       d="m 18.898818,131.84265 c -0.510396,-0.36153 -1.523415,-0.64916 -1.55563,-1.42178 -0.019,-0.45581 0.30982,-0.84486 0.526489,-1.19567 1.351567,-1.49434 3.257647,-1.64924 5.156443,-1.77068 1.418869,-0.0892 2.837946,0.0164 4.238758,0.23987 1.181173,0.25275 2.354215,0.53956 3.543952,0.75012 0.561249,0.16969 1.271247,0.12891 1.770639,0.48597 0.13158,0.0941 0.230217,0.26521 0.317735,0.39257 0.210082,0.33679 0.349866,0.70804 0.494342,1.07552 0.01961,0.0556 0.806359,-0.22175 0.786743,-0.27738 v 0 c -0.137136,-0.45789 -0.287414,-0.88333 -0.586385,-1.26619 -0.683026,-0.89622 -1.414058,-1.04866 -2.500563,-1.22871 -1.197677,-0.20243 -2.395252,-0.40153 -3.587079,-0.6369 -1.440989,-0.26688 -2.887854,-0.4979 -4.360925,-0.43557 -2.245137,0.14798 -4.576309,0.462 -5.996138,2.42187 -0.294413,0.66782 -0.544921,0.95182 -0.406923,1.70839 0.173758,0.95263 1.140093,1.34221 1.93319,1.63056 0.03337,0.0159 0.258726,-0.45605 0.225352,-0.47199 z" />
    <path
       style="opacity:1;fill:#000000;stroke-width:270.621"
       id="path842"
       d="m 27.440722,126.80777 c -0.04248,-0.16756 -0.181165,-0.65875 -0.15177,-0.81167 0.195384,-1.01638 2.165417,-1.65989 2.929866,-1.98229 1.514351,-0.44684 3.176583,-0.88957 4.748497,-0.41892 0.778263,0.23302 0.997192,0.50191 1.605421,0.98997 1.058583,1.05289 1.635718,2.52869 2.953373,3.29219 0.494037,0.18316 0.969778,-8e-4 1.464485,-0.0445 0.252047,-0.0223 0.538016,-0.0182 0.789275,-0.0196 1.124427,-0.01 1.771436,0.2691 2.586354,1.04861 0.405275,0.50633 0.899236,1.26731 0.557418,1.94381 -0.11327,0.22418 -0.496463,0.51539 -0.662645,0.65821 -0.152366,0.12478 -0.304734,0.24957 -0.457099,0.37435 -0.03415,0.0301 0.391445,0.51306 0.425598,0.48296 v 0 c 0.24634,-0.0887 0.492679,-0.17748 0.739019,-0.26622 0.215691,-0.16375 0.466124,-0.28976 0.647075,-0.49124 0.962754,-1.07195 0.344426,-2.52515 -0.47563,-3.44179 -0.201588,-0.16869 -0.388334,-0.3569 -0.604768,-0.50607 -0.75929,-0.52333 -1.676609,-0.67937 -2.577229,-0.71357 -0.645143,0.004 -1.27975,0.0322 -1.893567,0.24856 -0.411895,-0.23253 -0.639817,-0.62761 -0.904387,-1.01355 -0.559231,-0.81576 -1.077517,-1.66443 -1.79097,-2.36163 -0.794805,-0.65984 -0.974623,-0.92732 -1.991977,-1.27371 -1.970116,-0.67078 -4.024788,-0.13837 -5.879857,0.60546 -1.248579,0.64 -2.984439,1.40726 -3.037102,3.06407 -0.01208,0.38004 0.204387,0.72352 0.363772,1.04422 0.02882,0.0436 0.645674,-0.36404 0.616848,-0.40766 z" />
  </g>
</svg>
