<?xml version="1.0" encoding="UTF-8" standalone="no"?>
<!-- Created with Inkscape (http://www.inkscape.org/) -->

<svg
   width="48"
   height="48"
   viewBox="0 0 12.7 12.7"
   version="1.1"
   id="svg5"
   inkscape:version="1.2.2 (732a01da63, 2022-12-09)"
   sodipodi:docname="favicon.svg"
   xmlns:inkscape="http://www.inkscape.org/namespaces/inkscape"
   xmlns:sodipodi="http://sodipodi.sourceforge.net/DTD/sodipodi-0.dtd"
   xmlns="http://www.w3.org/2000/svg"
   xmlns:svg="http://www.w3.org/2000/svg">
  <sodipodi:namedview
     id="namedview7"
     pagecolor="#505050"
     bordercolor="#eeeeee"
     borderopacity="1"
     inkscape:showpageshadow="0"
     inkscape:pageopacity="0"
     inkscape:pagecheckerboard="0"
     inkscape:deskcolor="#505050"
     inkscape:document-units="mm"
     showgrid="false"
     inkscape:zoom="5.7875767"
     inkscape:cx="32.396979"
     inkscape:cy="35.161521"
     inkscape:window-width="1368"
     inkscape:window-height="842"
     inkscape:window-x="-6"
     inkscape:window-y="-6"
     inkscape:window-maximized="1"
     inkscape:current-layer="layer1"
     showguides="false" />
  <defs
     id="defs2">
    <filter
       inkscape:collect="always"
       style="color-interpolation-filters:sRGB"
       id="filter14754"
       x="-1.7971362"
       y="-9.3522493"
       width="4.5942723"
       height="19.704499">
      <feGaussianBlur
         inkscape:collect="always"
         stdDeviation="1.1155947"
         id="feGaussianBlur14756" />
    </filter>
  </defs>
  <g
     inkscape:label="Layer 1"
     inkscape:groupmode="layer"
     id="layer1">
    <path
       style="opacity:0.69;fill:#ff5599;stroke-width:21.0383"
       d="M 4.7555417,4.9093428 C 3.0735916,4.5709865 3.4015639,3.000488 4.0685598,1.905951 4.3137993,1.5035156 4.7074158,1.0133099 4.8169806,0.55016644 4.8367604,0.46654691 4.8651658,0.21025654 4.8602633,0.29604419 4.7845825,1.6204388 6.7052697,1.2152575 7.2898338,2.2647944 7.6061883,2.8327863 7.5757233,3.4962993 7.481126,4.1190502 7.4374629,4.4064936 7.3166798,5.2624141 7.2996071,4.9721747 7.224929,3.7026547 8.4595008,2.6297559 9.6607574,2.8456457 10.692759,3.0311169 10.580932,3.9987155 11.213447,4.486271 c 0.319189,0.2460367 1.133081,-0.1949138 1.274826,-0.076796 0.04217,0.03514 -0.743262,0.8753682 -0.597618,1.13238 0.08497,0.1499379 0.319824,0.099998 0.411909,0.2625001 0.410714,0.7247738 -0.06203,1.730026 -0.710717,2.1223418 -1.108788,0.6705693 -2.425737,0.2403293 -3.6108433,0.3043881 -0.35115,0.018982 0.705319,-0.084567 1.0542085,-0.040492 0.8020903,0.1013122 1.4797288,0.3709998 1.9548268,1.0653599 0.375393,0.5486427 -0.137201,1.3365911 -0.04747,1.7634991 0.08794,0.418435 0.585664,0.801294 0.330924,0.92992 -0.255311,0.12891 -0.944764,-0.348688 -1.8947847,-0.261107 C 8.8530585,11.886556 7.3157833,11.848783 6.9058525,11.32663 6.1924738,10.407938 6.2100097,9.8621767 6.1909424,9.8717094 5.6701003,10.132127 6.0919479,11.594455 5.2498333,11.980089 3.9947952,12.554815 3.6071143,12.093537 2.4823592,11.667322 1.9147556,11.452235 1.1838565,11.649417 1.190778,11.624035 2.0173479,10.902779 2.2636312,10.475504 2.2100784,10.257079 2.0857345,9.7499151 2.0792989,9.3990939 2.6122148,8.6834761 3.1825979,7.9175472 3.8758712,8.0076779 3.8758712,8.0076779 3.5101302,7.8630081 2.7396761,8.5236693 1.693447,7.9378677 1.2027971,7.6631456 0.85725892,7.1148421 0.98412543,6.6351412 1.1110903,6.1550611 0.44138492,6.0695995 0.07373537,5.554423 0.60212893,5.2195505 1.115396,5.4442904 1.6766909,4.7836783 2.0371016,4.3594965 3.1675405,3.8207883 4.1132423,4.7306198"
       id="path2074"
       sodipodi:nodetypes="csscsssssssssssssscccsscssssscsc" />
    <path
       style="opacity:0.77;fill:#d40055;stroke-width:12.1873"
       d="M 5.3515914,5.8178835 C 4.3772466,5.6218756 4.56724,4.7120938 4.9536271,4.0780341 5.0956935,3.8449049 5.3237139,3.560931 5.3871826,3.2926347 5.3986425,3.2441947 5.4150971,3.0957267 5.4122565,3.145423 5.3684156,3.9126378 6.4810575,3.6779183 6.8196921,4.2859107 7.0029558,4.6149446 6.9853072,4.9993146 6.9305082,5.3600712 6.9052119,5.5265853 6.8352461,6.0224164 6.8253551,5.8542819 6.7820945,5.1188558 7.4972763,4.4973302 8.1931567,4.6223938 8.7909896,4.7298367 8.7262096,5.2903617 9.0926231,5.5727999 9.277527,5.7153276 9.7490092,5.4598871 9.8311232,5.5283135 9.8555549,5.5486702 9.4005547,6.0354096 9.4849247,6.1842954 9.5341434,6.2711528 9.6701967,6.2422234 9.7235415,6.3363602 9.9614655,6.7562181 9.6876085,7.3385553 9.3118262,7.5658214 8.6695111,7.9542803 7.9066105,7.7050432 7.220084,7.7421519 7.0166652,7.7531499 7.6286718,7.6931682 7.8307811,7.7186925 8.2954285,7.7773807 8.6879815,7.9336109 8.9632022,8.3358507 9.1806662,8.6536768 8.8837223,9.1101308 8.9356988,9.357435 8.986647,9.5998336 9.2749721,9.8216207 9.1274016,9.8961339 8.979503,9.9708106 8.5801094,9.6941421 8.0297653,9.744878 7.7252606,9.8597451 6.8347258,9.837864 6.5972527,9.5353833 6.1840005,9.0031901 6.1941574,8.6870333 6.1831116,8.6925561 5.8813904,8.8434133 6.1257657,9.6905331 5.6379319,9.9139285 4.9108946,10.246865 4.6863137,9.9796505 4.0347484,9.732745 3.7059381,9.6081453 3.2825325,9.7223704 3.2865424,9.7076701 3.7653703,9.289849 3.9080405,9.0423314 3.8770191,8.9157983 3.8049852,8.6220011 3.801257,8.4187718 4.1099737,8.004218 4.4403929,7.5605194 4.8420028,7.6127315 4.8420028,7.6127315 4.6301311,7.5289235 4.1838119,7.9116417 3.5777356,7.5722918 3.2935043,7.413146 3.0933365,7.0955169 3.1668297,6.8176287 3.2403793,6.5395205 2.8524237,6.4900131 2.6394447,6.1915744 2.9455404,5.9975844 3.2428735,6.1277743 3.5680295,5.7450858 3.7768138,5.4993591 4.4316707,5.1872888 4.9795102,5.7143489"
       id="path2074-0-9"
       sodipodi:nodetypes="csscsssssssssssssscccsscssssscsc" />
    <path
       style="opacity:0.81;fill:#e9afc6;stroke-width:8.09525"
       d="M 5.6076322,6.3134108 C 4.9604358,6.183215 5.0866369,5.5789053 5.3432882,5.1577402 5.4376546,5.0028875 5.5891138,4.8142617 5.6312727,4.6360498 c 0.0076,-0.032176 0.018539,-0.1307934 0.016652,-0.097784 -0.029124,0.509612 0.709936,0.3537035 0.9348691,0.7575531 0.1217299,0.2185564 0.110008,0.4738688 0.073607,0.7134959 -0.016793,0.1106052 -0.063276,0.4399535 -0.069846,0.328273 -0.028734,-0.4884969 0.4463145,-0.9013362 0.9085429,-0.8182644 0.3971018,0.071367 0.3540737,0.4436882 0.5974581,0.6312938 0.1228196,0.094672 0.4359951,-0.075001 0.4905388,-0.029551 0.016229,0.013522 -0.2859985,0.3368314 -0.2299567,0.4357261 0.032695,0.057695 0.1230643,0.038482 0.1584967,0.1010078 C 8.6696736,6.9366846 8.4877662,7.3234943 8.2381583,7.4744522 7.81151,7.7324801 7.3047645,7.5669288 6.848748,7.5915771 6.7136295,7.5988771 7.120147,7.5590381 7.2543959,7.5759971 7.563032,7.6149811 7.8237793,7.7187531 8.0065909,7.985934 8.1510374,8.1970457 7.9537969,8.50024 7.9883219,8.6645081 8.0221632,8.8255182 8.2136793,8.9728368 8.1156583,9.022331 8.0174177,9.071936 7.7521249,8.8881603 7.386567,8.9218576 7.1843028,8.9981602 6.5927787,8.9836205 6.4350408,8.7827047 6.1605436,8.4292064 6.1672889,8.2192044 6.1599521,8.2228724 5.959538,8.3230776 6.1218617,8.885765 5.7978251,9.0341523 5.3149024,9.2553015 5.1657262,9.0778037 4.7329347,8.9138048 4.5145271,8.8310411 4.2332847,8.906917 4.2359479,8.8971462 4.5540029,8.6196151 4.6487708,8.455204 4.6281632,8.3711572 4.580317,8.1760066 4.5778404,8.0410147 4.7829001,7.7656524 5.0023781,7.4709325 5.2691405,7.5056133 5.2691405,7.5056133 5.1284083,7.4499434 4.8319466,7.7041593 4.4293702,7.4787475 4.2405739,7.3730369 4.1076134,7.1620559 4.1564311,6.9774734 4.2052859,6.7927439 3.9475905,6.759859 3.8061226,6.5616248 4.0094429,6.4327699 4.2069422,6.519247 4.4229224,6.2650517 4.5616038,6.1018308 4.9965832,5.8945424 5.3604794,6.2446353"
       id="path2074-0"
       sodipodi:nodetypes="csscsssssssssssssscccsscssssscsc" />
    <path
       style="opacity:0.23;fill:#ff5599;fill-opacity:1;stroke:none;stroke-width:468.741;stroke-dasharray:none;stroke-opacity:1;filter:url(#filter14754)"
       d="m 100.68843,37.230286 0.0408,0.286287 c 0.48278,-0.0941 0.9652,-0.189089 1.44901,-0.279569 -0.49653,-0.0029 -0.9933,-0.0052 -1.48983,-0.0067 z"
       id="path15224"
       transform="matrix(0.04488232,0,0,0.04488232,-4.4367223,0.3026489)" />
  </g>
</svg>
